<?xml version="1.0" encoding="utf-8"?>
<!DOCTYPE svg PUBLIC "-//W3C//DTD SVG 20010904//EN" "http://www.w3.org/TR/2001/REC-SVG-20010904/DTD/svg10.dtd">
<svg version="1.0" xmlns="http://www.w3.org/2000/svg" width="256px" height="256px" viewBox="0 0 256 256" preserveAspectRatio="xMidYMid meet">
 <g fill="#000000">
  <path d="M92.9 252.3 c-1.8 -4.9 -3.8 -15.7 -5.5 -30.9 l-1.7 -14.9 -5.3 -3.7 c-6 -4.3 -8.9 -9.4 -10.6 -18.8 -1.5 -7.8 -0.2 -14.4 4.8 -25.2 2.1 -4.3 3.4 -8.1 3.1 -8.4 -0.3 -0.4 -1.9 -0.2 -3.5 0.4 -6.7 2.3 -12.6 -3.9 -10.1 -10.8 2.6 -7.3 10.1 -22.2 11.6 -22.7 0.8 -0.3 3.1 0 5.1 0.6 3.1 1 4.3 1 7.3 -0.3 3.9 -1.6 6 -5.4 7.5 -13.1 0.7 -3.7 0.6 -3.8 -1.7 -3.1 -8.2 2.5 -19.8 1.5 -28.5 -2.5 -8.1 -3.8 -18.4 -15.7 -18.4 -21.2 0 -2 1.1 -4 3.5 -6.4 1.9 -1.9 3.5 -3.9 3.5 -4.4 0 -0.4 -2 -2 -4.3 -3.4 -6.3 -3.7 -7 -5.9 -4.7 -14.9 3.6 -14.3 10.2 -23.5 18.4 -25.7 4.4 -1.2 12.5 -1.3 19.2 -0.3 5.5 0.8 8.6 -0.8 7.8 -4 -0.7 -3.1 5.6 -8.5 15.6 -13.3 10.1 -4.9 19 -5.2 29.5 -1 10 3.9 19.7 11.4 24.6 19 l4 6.2 7.1 1.2 c7.7 1.3 11.5 3.4 13.6 7.6 1.6 3.2 3.7 13.6 2.9 14.3 -1.1 1.2 -12.8 3.2 -15 2.6 -1.2 -0.3 -4.2 -1.8 -6.5 -3.5 -2.4 -1.6 -4.7 -2.5 -5.1 -2.1 -0.4 0.5 -1.6 3.2 -2.6 5.9 -1 2.8 -4.4 9.1 -7.5 14 -3.1 5 -6.6 11.5 -7.6 14.5 -1.9 5.3 -1.9 5.6 -0.1 9 1.5 3 1.7 5.1 1.1 15.5 -0.5 10.3 -0.4 12.2 0.9 13.4 1.9 1.5 3.7 0.7 3.7 -1.7 0 -0.9 1.1 -5.7 2.4 -10.7 1.3 -4.9 3.3 -12.8 4.5 -17.5 4.8 -18.7 6.1 -22 8.9 -23.1 6.5 -2.5 21.3 3.3 28.7 11.2 5.5 5.9 6.4 8.9 3.9 13.4 l-1.8 3.5 3.1 3.2 c5.2 5.6 13.4 16.9 12.8 17.9 -0.4 0.5 -6.1 4.1 -12.7 8 -10 5.9 -29.2 18.4 -32 20.8 -0.4 0.4 0.2 3.5 1.3 7 2.8 9.2 2.8 21.7 -0.1 27.6 -1.2 2.5 -3.5 5.4 -5 6.5 -3.6 2.6 -10.4 5 -13.9 5 -2.2 0 -3.1 0.8 -4.8 4.4 -1.2 2.4 -3.4 5.2 -4.8 6.3 -7.3 5.1 -6.8 4 -5 12.3 0.9 4.1 3.2 10.7 5.1 14.7 4 8.3 4.1 9.2 1.4 12 -3.8 4.1 -5.7 3.9 -11.7 -1.4 -4.5 -3.9 -6.7 -7.1 -12.1 -17.5 -6.6 -12.8 -9.2 -15.5 -11.2 -11.8 -1.2 2.2 -3 20.9 -3 31 0 8.1 -0.4 9.1 -3.7 10.9 -3.4 1.8 -5.3 1.3 -6.4 -1.6z"/>
 </g>
 <g fill="#372700">
  <path d="M92.9 252.3 c-1.8 -4.9 -3.8 -15.7 -5.5 -30.9 l-1.7 -14.9 -5.3 -3.7 c-6 -4.3 -8.9 -9.4 -10.6 -18.8 -1.5 -7.8 -0.2 -14.4 4.8 -25.2 2.1 -4.3 3.4 -8.1 3.1 -8.4 -0.3 -0.4 -1.9 -0.2 -3.5 0.4 -6.7 2.3 -12.6 -3.9 -10.1 -10.8 2.6 -7.3 10.1 -22.2 11.6 -22.7 0.8 -0.3 3.1 0 5.1 0.6 3.1 1 4.3 1 7.3 -0.3 3.9 -1.6 6 -5.4 7.5 -13.1 0.7 -3.7 0.6 -3.8 -1.7 -3.1 -8.2 2.5 -19.8 1.5 -28.5 -2.5 -8.1 -3.8 -18.4 -15.7 -18.4 -21.2 0 -2 1.1 -4 3.5 -6.4 1.9 -1.9 3.5 -3.9 3.5 -4.4 0 -0.4 -2 -2 -4.3 -3.4 -6.3 -3.7 -7 -5.9 -4.7 -14.9 3.6 -14.3 10.2 -23.5 18.4 -25.7 4.4 -1.2 12.5 -1.3 19.2 -0.3 5.5 0.8 8.6 -0.8 7.8 -4 -0.7 -3.1 5.6 -8.5 15.6 -13.3 10.1 -4.9 19 -5.2 29.5 -1 10 3.9 19.7 11.4 24.6 19 l4 6.2 7.1 1.2 c7.7 1.3 11.5 3.4 13.6 7.6 1.6 3.2 3.7 13.6 2.9 14.3 -1.1 1.2 -12.8 3.2 -15 2.6 -1.2 -0.3 -4.2 -1.8 -6.5 -3.5 -2.4 -1.6 -4.7 -2.5 -5.1 -2.1 -0.4 0.5 -1.6 3.2 -2.6 5.9 -1 2.8 -4.4 9.1 -7.5 14 -3.1 5 -6.6 11.5 -7.6 14.5 -1.9 5.3 -1.9 5.6 -0.1 9 1.5 3 1.7 5.1 1.1 15.5 -0.5 10.3 -0.4 12.2 0.9 13.4 1.9 1.5 3.7 0.7 3.7 -1.7 0 -0.9 1.1 -5.7 2.4 -10.7 1.3 -4.9 3.3 -12.8 4.5 -17.5 4.8 -18.7 6.1 -22 8.9 -23.1 6.5 -2.5 21.3 3.3 28.7 11.2 5.5 5.9 6.4 8.9 3.9 13.4 l-1.8 3.5 3.1 3.2 c5.2 5.6 13.4 16.9 12.8 17.9 -0.4 0.5 -6.1 4.1 -12.7 8 -10 5.9 -29.2 18.4 -32 20.8 -0.4 0.4 0.2 3.5 1.3 7 2.8 9.2 2.8 21.7 -0.1 27.6 -1.2 2.5 -3.5 5.4 -5 6.5 -3.6 2.6 -10.4 5 -13.9 5 -2.2 0 -3.1 0.8 -4.8 4.4 -1.2 2.4 -3.4 5.2 -4.8 6.3 -7.3 5.1 -6.8 4 -5 12.3 0.9 4.1 3.2 10.7 5.1 14.7 4 8.3 4.1 9.2 1.4 12 -3.8 4.1 -5.7 3.9 -11.7 -1.4 -4.5 -3.9 -6.7 -7.1 -12.1 -17.5 -6.6 -12.8 -9.2 -15.5 -11.2 -11.8 -1.2 2.2 -3 20.9 -3 31 0 8.1 -0.4 9.1 -3.7 10.9 -3.4 1.8 -5.3 1.3 -6.4 -1.6z m71.4 -109.5 c-0.4 -0.7 -1.7 -1.4 -2.8 -1.5 -1.7 -0.1 -1.7 0.1 0.5 1.7 2.7 2 3.7 1.9 2.3 -0.2z m-20.8 -102.1 c0.3 -1.6 1.8 -4 3.2 -5.3 1.4 -1.3 2.4 -2.6 2.2 -2.7 -0.2 -0.2 -3.7 -2.5 -7.7 -5.1 -4 -2.7 -8.3 -6.1 -9.4 -7.7 -3.3 -4.4 -4.6 -4.4 -6.4 0.1 -0.9 2.2 -2.8 4.9 -4.2 6 l-2.5 2 3 0 c1.7 0 3.6 -0.7 4.3 -1.5 3.5 -4.2 5 0.5 1.6 5 -3.2 4.1 -2 4.6 2.2 1 4.4 -3.7 7.6 -2 5.1 2.6 -0.5 1.1 -0.9 3 -0.7 4.2 0.3 1.9 0.6 1.7 2.6 -1.6 2.8 -4.9 4.8 -4.4 4.4 1.1 -0.3 3.7 0.8 8.1 1.4 5.7 0.1 -0.6 0.5 -2.3 0.9 -3.8z m-42.1 -31.6 c-0.5 -0.6 -2.4 1 -3.5 3.2 -1 2 -0.9 2 1.4 -0.3 1.3 -1.4 2.3 -2.7 2.1 -2.9z"/>
 </g>
 <g fill="#6a3a25">
  <path d="M92.9 252.3 c-1.8 -4.9 -3.8 -15.7 -5.5 -30.9 l-1.7 -14.9 -5.3 -3.7 c-6 -4.3 -8.9 -9.4 -10.6 -18.8 -1.5 -7.8 -0.2 -14.4 4.8 -25.2 2.1 -4.3 3.4 -8.1 3.1 -8.4 -0.3 -0.4 -1.9 -0.2 -3.5 0.4 -6.7 2.3 -12.6 -3.9 -10.1 -10.8 2.6 -7.3 10.1 -22.2 11.6 -22.7 0.8 -0.3 3.1 0 5.1 0.6 3.1 1 4.3 1 7.3 -0.3 3.9 -1.6 6 -5.4 7.5 -13.1 0.7 -3.7 0.6 -3.8 -1.7 -3.1 -8.2 2.5 -19.8 1.5 -28.5 -2.5 -8.1 -3.8 -18.4 -15.7 -18.4 -21.2 0 -2 1.1 -4 3.5 -6.4 1.9 -1.9 3.5 -3.9 3.5 -4.4 0 -0.4 -2 -2 -4.3 -3.4 -6.3 -3.7 -7 -5.9 -4.7 -14.9 3.6 -14.3 10.2 -23.5 18.4 -25.7 4.4 -1.2 12.5 -1.3 19.2 -0.3 5.5 0.8 8.6 -0.8 7.8 -4 -0.7 -3.1 5.6 -8.5 15.6 -13.3 10.1 -4.9 19 -5.2 29.5 -1 10 3.9 19.7 11.4 24.6 19 l4 6.2 7.1 1.2 c7.7 1.3 11.5 3.4 13.6 7.6 1.6 3.2 3.7 13.6 2.9 14.3 -1.1 1.2 -12.8 3.2 -15 2.6 -1.2 -0.3 -4.2 -1.8 -6.5 -3.5 -2.4 -1.6 -4.7 -2.5 -5.1 -2.1 -0.4 0.5 -1.6 3.2 -2.6 5.9 -1 2.8 -4.4 9.1 -7.5 14 -3.1 5 -6.6 11.5 -7.6 14.5 -1.9 5.3 -1.9 5.6 -0.1 9 1.5 3 1.7 5.1 1.1 15.5 -0.5 10.3 -0.4 12.2 0.9 13.4 1.9 1.5 3.7 0.7 3.7 -1.7 0 -0.9 1.1 -5.7 2.4 -10.7 1.3 -4.9 3.3 -12.8 4.5 -17.5 4.8 -18.7 6.1 -22 8.9 -23.1 6.5 -2.5 21.3 3.3 28.7 11.2 5.5 5.9 6.4 8.9 3.9 13.4 l-1.8 3.5 3.1 3.2 c5.2 5.6 13.4 16.9 12.8 17.9 -0.4 0.5 -6.1 4.1 -12.7 8 -10 5.9 -29.2 18.4 -32 20.8 -0.4 0.4 0.2 3.5 1.3 7 2.8 9.2 2.8 21.7 -0.1 27.6 -1.2 2.5 -3.5 5.4 -5 6.5 -3.6 2.6 -10.4 5 -13.9 5 -2.2 0 -3.1 0.8 -4.8 4.4 -1.2 2.4 -3.4 5.2 -4.8 6.3 -7.3 5.1 -6.8 4 -5 12.3 0.9 4.1 3.2 10.7 5.1 14.7 4 8.3 4.1 9.2 1.4 12 -3.8 4.1 -5.7 3.9 -11.7 -1.4 -4.5 -3.9 -6.7 -7.1 -12.1 -17.5 -6.6 -12.8 -9.2 -15.5 -11.2 -11.8 -1.2 2.2 -3 20.9 -3 31 0 8.1 -0.4 9.1 -3.7 10.9 -3.4 1.8 -5.3 1.3 -6.4 -1.6z m71.4 -109.5 c-0.4 -0.7 -1.7 -1.4 -2.8 -1.5 -1.7 -0.1 -1.7 0.1 0.5 1.7 2.7 2 3.7 1.9 2.3 -0.2z m-17.3 -107 c1.1 -0.9 2 -2.1 2 -2.7 0 -0.5 -3 -3 -6.7 -5.4 -3.8 -2.5 -8.4 -6.1 -10.2 -8.1 -1.9 -2 -4 -3.6 -4.7 -3.6 -0.7 0 -1.8 1.6 -2.4 3.5 -0.6 1.9 -2.5 4.5 -4.1 5.9 -1.6 1.4 -2.9 2.7 -2.9 3 0 1.2 5.7 0.5 7.6 -0.9 3.9 -2.9 4.8 -0.5 1.4 3.8 -1.1 1.4 -2 2.8 -2 3.1 0 1.4 3.8 0.4 5.5 -1.4 3.4 -3.7 4.6 -2.6 3.9 3.5 -0.4 3 -0.4 5.5 -0.1 5.5 0.3 0 1.4 -1.6 2.6 -3.5 2.5 -4.4 4.6 -4.7 3.8 -0.5 -0.4 1.6 -0.1 4.4 0.5 6.2 l1.2 3.3 1.2 -5 c0.7 -2.8 2.2 -5.7 3.4 -6.7z m-55.2 -1.5 c-1.5 -1.9 -4.5 -1.3 -12.8 2.6 -5.2 2.4 -6 3 -3.8 3.1 1.5 0 4.6 -0.7 6.8 -1.6 4.6 -1.9 7.2 -1.3 6.4 1.3 -0.4 1.2 0.3 0.8 2.1 -1.1 2.1 -2.3 2.4 -3.1 1.3 -4.3z m-26.3 0.8 c-0.3 -0.5 -0.1 -3.1 0.5 -5.7 1.2 -5.5 0.9 -6.1 -2.5 -4.6 -2.7 1.3 -3.5 3.5 -0.9 2.5 1.3 -0.5 1.5 -0.2 0.9 1.6 -0.8 2.7 0.1 7.1 1.6 7.1 0.6 0 0.8 -0.4 0.4 -0.9z m35.4 -24.4 c1.9 -2 2.1 -2.6 0.8 -2.2 -0.9 0.4 -3.1 2.7 -4.7 5.2 -3.5 5.1 -4 6.9 -0.8 2.7 1.2 -1.6 3.3 -4.2 4.7 -5.7z"/>
 </g>
 <g fill="#743f27">
  <path d="M92.9 252.3 c-1.8 -4.9 -3.8 -15.7 -5.5 -30.9 l-1.7 -14.9 -5.3 -3.7 c-6 -4.3 -8.9 -9.4 -10.6 -18.8 -1.5 -7.8 -0.2 -14.4 4.8 -25.2 2.1 -4.3 3.4 -8.1 3.1 -8.4 -0.3 -0.4 -1.9 -0.2 -3.5 0.4 -6.7 2.3 -12.6 -3.9 -10.1 -10.8 2.6 -7.3 10.1 -22.2 11.6 -22.7 0.8 -0.3 3.1 0 5.1 0.6 3.1 1 4.3 1 7.3 -0.3 3.9 -1.6 6 -5.4 7.5 -13.1 0.7 -3.7 0.6 -3.8 -1.7 -3.1 -8.2 2.5 -19.8 1.5 -28.5 -2.5 -8.1 -3.8 -18.4 -15.7 -18.4 -21.2 0 -2 1.1 -4 3.5 -6.4 1.9 -1.9 3.5 -3.9 3.5 -4.4 0 -0.4 -2 -2 -4.3 -3.4 -6.3 -3.7 -7 -5.9 -4.7 -14.9 3.6 -14.3 10.2 -23.5 18.4 -25.7 4.4 -1.2 12.5 -1.3 19.2 -0.3 5.5 0.8 8.6 -0.8 7.8 -4 -0.7 -3.1 5.6 -8.5 15.6 -13.3 10.1 -4.9 19 -5.2 29.5 -1 10 3.9 19.7 11.4 24.6 19 l4 6.2 7.1 1.2 c7.7 1.3 11.5 3.4 13.6 7.6 1.6 3.2 3.7 13.6 2.9 14.3 -1.1 1.2 -12.8 3.2 -15 2.6 -1.2 -0.3 -4.2 -1.8 -6.5 -3.5 -2.4 -1.6 -4.7 -2.5 -5.1 -2.1 -0.4 0.5 -1.6 3.2 -2.6 5.9 -1 2.8 -4.4 9.1 -7.5 14 -3.1 5 -6.6 11.5 -7.6 14.5 -1.9 5.3 -1.9 5.6 -0.1 9 1.5 3 1.7 5.1 1.1 15.5 -0.5 10.3 -0.4 12.2 0.9 13.4 1.9 1.5 3.7 0.7 3.7 -1.7 0 -0.9 1.1 -5.7 2.4 -10.7 1.3 -4.9 3.3 -12.8 4.5 -17.5 4.8 -18.7 6.1 -22 8.9 -23.1 6.5 -2.5 21.3 3.3 28.7 11.2 5.3 5.7 6.4 9.1 4.1 12.9 -0.9 1.6 -1.6 3.4 -1.7 4.2 0 0.7 -2.1 4.1 -4.7 7.5 -2.6 3.4 -7.5 9.9 -11 14.5 -14.4 19.2 -17.6 22.9 -19.1 22.3 -0.9 -0.3 -0.2 0.6 1.4 1.9 1.7 1.4 3.3 2.5 3.6 2.6 0.3 0 1.3 -1.7 2.2 -3.7 1.7 -3.9 10 -13.1 19.4 -21.6 2.9 -2.6 4.9 -4.7 4.5 -4.7 -0.3 0 0.8 -1.3 2.6 -3 1.8 -1.6 3.2 -3.2 3.2 -3.5 0 -0.3 0.6 -1.8 1.4 -3.4 0.9 -1.6 1.2 -3.2 0.8 -3.7 -0.4 -0.5 -0.2 -0.4 0.5 0.1 2.8 2.5 11.3 14.7 10.8 15.6 -0.4 0.5 -6.1 4.1 -12.7 8 -10 5.9 -29.2 18.4 -32 20.8 -0.4 0.4 0.2 3.5 1.3 7 2.8 9.2 2.8 21.7 -0.1 27.6 -1.2 2.5 -3.5 5.4 -5 6.5 -3.6 2.6 -10.4 5 -13.9 5 -2.2 0 -3.1 0.8 -4.8 4.4 -1.2 2.4 -3.4 5.2 -4.8 6.3 -7.3 5.1 -6.8 4 -5 12.3 0.9 4.1 3.2 10.7 5.1 14.7 4 8.3 4.1 9.2 1.4 12 -3.8 4.1 -5.7 3.9 -11.7 -1.4 -4.5 -3.9 -6.7 -7.1 -12.1 -17.5 -6.6 -12.8 -9.2 -15.5 -11.2 -11.8 -1.2 2.2 -3 20.9 -3 31 0 8.1 -0.4 9.1 -3.7 10.9 -3.4 1.8 -5.3 1.3 -6.4 -1.6z m54.1 -216.5 c1.1 -0.9 2 -2.1 2 -2.7 0 -0.5 -3 -3 -6.7 -5.4 -3.8 -2.5 -8.4 -6.1 -10.2 -8.1 -1.9 -2 -4 -3.6 -4.7 -3.6 -0.7 0 -1.8 1.6 -2.4 3.5 -0.6 1.9 -2.5 4.5 -4.1 5.9 -1.6 1.4 -2.9 2.7 -2.9 3 0 1.2 5.7 0.5 7.6 -0.9 3.9 -2.9 4.8 -0.5 1.4 3.8 -1.1 1.4 -2 2.8 -2 3.1 0 1.4 3.8 0.4 5.5 -1.4 3.4 -3.7 4.6 -2.6 3.9 3.5 -0.4 3 -0.4 5.5 -0.1 5.5 0.3 0 1.4 -1.6 2.6 -3.5 2.5 -4.4 4.6 -4.7 3.8 -0.5 -0.4 1.6 -0.1 4.4 0.5 6.2 l1.2 3.3 1.2 -5 c0.7 -2.8 2.2 -5.7 3.4 -6.7z m-55.2 -1.5 c-1.5 -1.9 -4.5 -1.3 -12.8 2.6 -5.2 2.4 -6 3 -3.8 3.1 1.5 0 4.6 -0.7 6.8 -1.6 4.6 -1.9 7.2 -1.3 6.4 1.3 -0.4 1.2 0.3 0.8 2.1 -1.1 2.1 -2.3 2.4 -3.1 1.3 -4.3z m-26.3 0.8 c-0.3 -0.5 -0.1 -3.1 0.5 -5.7 1.2 -5.5 0.9 -6.1 -2.5 -4.6 -2.7 1.3 -3.5 3.5 -0.9 2.5 1.3 -0.5 1.5 -0.2 0.9 1.6 -0.8 2.7 0.1 7.1 1.6 7.1 0.6 0 0.8 -0.4 0.4 -0.9z m35.4 -24.3 c1.3 -1.6 1.9 -2.8 1.3 -2.8 -1.2 0 -8.1 8.8 -8.2 10.4 0 0.5 1 -0.4 2.2 -2 1.2 -1.6 3.3 -4.1 4.7 -5.6z"/>
 </g>
 <g fill="#967339">
  <path d="M92.9 252.3 c-1.8 -4.9 -3.8 -15.7 -5.5 -30.9 l-1.7 -14.9 -5.3 -3.7 c-6 -4.3 -8.9 -9.4 -10.6 -18.8 -1.5 -7.8 -0.2 -14.4 4.8 -25.2 2.1 -4.3 3.4 -8.1 3.1 -8.4 -0.3 -0.4 -1.9 -0.2 -3.5 0.4 -6.7 2.3 -12.6 -3.9 -10.1 -10.8 2.6 -7.3 10.1 -22.2 11.6 -22.7 0.8 -0.3 3.1 0 5.1 0.6 3.1 1 4.3 1 7.3 -0.3 3.9 -1.6 6 -5.4 7.5 -13.1 0.7 -3.7 0.6 -3.8 -1.7 -3.1 -8.2 2.5 -19.8 1.5 -28.5 -2.5 -8.1 -3.8 -18.4 -15.7 -18.4 -21.2 0 -2 1.1 -4 3.5 -6.4 1.9 -1.9 3.5 -3.9 3.5 -4.4 0 -0.4 -2 -2 -4.3 -3.4 -6.3 -3.7 -7 -5.9 -4.7 -14.9 3.6 -14.3 10.2 -23.5 18.4 -25.7 4.4 -1.2 12.5 -1.3 19.2 -0.3 5.5 0.8 8.6 -0.8 7.8 -4 -0.7 -3.1 5.6 -8.5 15.6 -13.3 10.1 -4.9 19 -5.2 29.5 -1 10 3.9 19.7 11.4 24.6 19 l4 6.2 7.1 1.2 c7.7 1.3 11.5 3.4 13.6 7.6 1.6 3.2 3.7 13.6 2.9 14.3 -1.1 1.2 -12.8 3.2 -15 2.6 -1.2 -0.3 -4.2 -1.8 -6.5 -3.5 -2.4 -1.6 -4.7 -2.5 -5.1 -2.1 -0.4 0.5 -1.6 3.2 -2.6 5.9 -1 2.8 -4.4 9.1 -7.5 14 -3.1 5 -6.6 11.5 -7.6 14.5 -1.9 5.3 -1.9 5.6 -0.1 9 1.5 3 1.7 5.1 1.1 15.5 -0.5 10.3 -0.4 12.2 0.9 13.4 1.9 1.5 3.7 0.7 3.7 -1.7 0 -0.9 1.1 -5.7 2.4 -10.7 1.3 -4.9 3.3 -12.8 4.5 -17.5 4.8 -18.7 6.1 -22 8.9 -23.1 6.5 -2.5 21.3 3.3 28.7 11.2 5.3 5.7 6.4 9.1 4.1 12.9 -0.9 1.6 -1.6 3.3 -1.6 3.9 0 0.5 -7.5 11 -16.7 23.1 -12.4 16.4 -17 21.9 -18.2 21.5 -0.9 -0.3 -0.2 0.7 1.6 2.2 6.8 6 9.9 28.2 5.3 37.8 -1.2 2.5 -3.5 5.4 -5 6.5 -3.6 2.6 -10.4 5 -13.9 5 -2.2 0 -3.1 0.8 -4.8 4.4 -1.2 2.4 -3.4 5.2 -4.8 6.3 -7.3 5.1 -6.8 4 -5 12.3 0.9 4.1 3.2 10.7 5.1 14.7 4 8.3 4.1 9.2 1.4 12 -3.8 4.1 -5.7 3.9 -11.7 -1.4 -4.5 -3.9 -6.7 -7.1 -12.1 -17.5 -6.6 -12.8 -9.2 -15.5 -11.2 -11.8 -1.2 2.2 -3 20.9 -3 31 0 8.1 -0.4 9.1 -3.7 10.9 -3.4 1.8 -5.3 1.3 -6.4 -1.6z m54.1 -216.5 c3.1 -2.5 2.4 -4.1 -2.7 -6.8 -2.6 -1.4 -7.3 -4.9 -10.4 -7.7 -3.1 -2.9 -6.1 -5.3 -6.7 -5.3 -0.6 0 -1.6 1.6 -2.2 3.5 -0.6 1.9 -2.8 4.8 -4.8 6.5 l-3.7 3 3.6 0 c1.9 0 4.4 -0.7 5.5 -1.5 3.9 -2.9 4.8 -0.5 1.4 3.8 -1.1 1.4 -2 2.8 -2 3.1 0 1.4 3.8 0.4 5.5 -1.4 3.4 -3.7 4.6 -2.6 3.9 3.5 -0.8 6.1 0.3 7.1 2.6 2.3 2.1 -4.5 4.5 -5.1 3.7 -1 -0.4 1.7 -0.1 4.6 0.5 6.4 l1.2 3.3 1.2 -5 c0.7 -2.8 2.2 -5.7 3.4 -6.7z m-55.2 -1.5 c-1.5 -1.9 -4.5 -1.3 -12.8 2.6 -5.2 2.4 -6 3 -3.8 3.1 1.5 0 4.6 -0.7 6.8 -1.6 4.6 -1.9 7.2 -1.3 6.4 1.3 -0.4 1.2 0.3 0.8 2.1 -1.1 2.1 -2.3 2.4 -3.1 1.3 -4.3z m-26.3 0.8 c-0.3 -0.5 -0.1 -3.1 0.5 -5.7 1.2 -5.5 0.9 -6.1 -2.5 -4.6 -2.7 1.3 -3.5 3.5 -0.9 2.5 1.3 -0.5 1.5 -0.2 0.9 1.6 -0.8 2.7 0.1 7.1 1.6 7.1 0.6 0 0.8 -0.4 0.4 -0.9z m35.4 -24.3 c1.3 -1.6 2 -2.8 1.3 -2.8 -1.2 0 -8.2 8.7 -8.2 10.3 0 0.5 1 -0.3 2.2 -1.9 1.2 -1.6 3.3 -4.1 4.7 -5.6z m48.1 3.2 c-2.5 -1.6 -6.1 -3.2 -8 -3.6 -3.2 -0.5 -3 -0.2 2.5 3 7.5 4.5 12.1 5 5.5 0.6z"/>
 </g>
 <g fill="#9e7b3f">
  <path d="M92.9 252.3 c-1.8 -4.9 -3.8 -15.7 -5.5 -30.9 l-1.7 -14.9 -5.3 -3.7 c-6 -4.3 -8.9 -9.4 -10.6 -18.8 -1.5 -7.8 -0.2 -14.4 4.9 -25.2 3.1 -6.6 3.4 -8.1 2.2 -8.9 -0.8 -0.5 -0.9 -0.9 -0.3 -0.9 1.2 0 6.4 -11.1 6.4 -13.7 0 -1 -0.6 -1.3 -1.6 -0.9 -0.9 0.3 -1.9 0.6 -2.3 0.6 -1.2 0 -6.1 9.5 -6.1 11.7 0 1 0.5 2.4 1.1 3 1.7 1.7 -2.4 2.2 -6 0.7 -4.1 -1.7 -5.7 -5.7 -4 -10.4 2.6 -7.3 10.1 -22.2 11.6 -22.7 0.8 -0.3 3.1 0 5.1 0.6 3.1 1 4.3 1 7.3 -0.3 3.9 -1.6 6 -5.4 7.5 -13.1 0.7 -3.7 0.6 -3.8 -1.7 -3.1 -8.2 2.5 -19.8 1.5 -28.5 -2.5 -8.1 -3.8 -18.4 -15.7 -18.4 -21.2 0 -2 1.1 -4 3.5 -6.4 1.9 -1.9 3.5 -3.9 3.5 -4.4 0 -0.4 -2 -2 -4.3 -3.4 -6.3 -3.7 -7 -5.9 -4.7 -14.9 3.6 -14.3 10.2 -23.5 18.4 -25.7 4.4 -1.2 12.5 -1.3 19.2 -0.3 5.5 0.8 8.6 -0.8 7.8 -4 -0.7 -3.1 5.5 -8.5 15.6 -13.4 6.6 -3.2 8.4 -3.6 15.5 -3.6 4.8 -0.1 8.8 0.4 10 1.1 1.7 1.1 1.4 1.2 -2.5 0.8 l-4.5 -0.5 4 1.1 c2.2 0.5 4.8 0.8 5.8 0.5 0.9 -0.2 1.5 -0.1 1.2 0.3 -0.2 0.5 1.3 1.3 3.5 2 6.2 1.9 6.2 3.4 -0.1 2.6 l-5.4 -0.7 9 4.7 c5.7 3 9.8 4.5 11.3 4.2 2 -0.4 3 0.5 6.4 5.7 l3.9 6.1 7.1 1.2 c7.7 1.3 11.5 3.4 13.6 7.6 1.6 3.2 3.7 13.6 2.9 14.3 -1.1 1.2 -12.8 3.2 -15 2.6 -1.2 -0.3 -4.2 -1.8 -6.5 -3.5 -2.4 -1.6 -4.7 -2.5 -5.1 -2.1 -0.4 0.5 -1.6 3.2 -2.6 5.9 -1 2.8 -4.4 9.1 -7.5 14 -3.1 5 -6.6 11.5 -7.6 14.5 -1.9 5.3 -1.9 5.6 -0.1 9 1.5 3 1.7 5.1 1.1 15.5 -0.5 10.3 -0.4 12.2 0.9 13.4 1.9 1.5 3.7 0.7 3.7 -1.7 0 -0.9 1.1 -5.7 2.4 -10.7 1.3 -4.9 3.3 -12.8 4.5 -17.5 4.8 -18.7 6.1 -22 8.9 -23.1 6.5 -2.5 21.3 3.3 28.7 11.2 5.3 5.7 6.4 9.1 4.1 12.9 -0.9 1.6 -1.6 3.3 -1.6 3.9 0 0.6 -5 7.7 -11.2 15.8 -6.2 8.1 -13.6 18.1 -16.7 22.1 -3.9 5.2 -5.9 7.1 -7 6.7 -0.9 -0.3 -0.2 0.7 1.6 2.2 6.8 6 9.9 28.2 5.3 37.8 -1.2 2.5 -3.5 5.4 -5 6.5 -3.6 2.6 -10.4 5 -13.9 5 -2.2 0 -3.1 0.8 -4.8 4.4 -1.2 2.4 -3.4 5.2 -4.8 6.3 -7.3 5.1 -6.8 4 -5 12.3 0.9 4.1 3.2 10.7 5.1 14.7 4 8.3 4.1 9.2 1.4 12 -3.8 4.1 -5.7 3.9 -11.7 -1.4 -4.5 -3.9 -6.7 -7.1 -12.1 -17.5 -6.6 -12.8 -9.2 -15.5 -11.2 -11.8 -1.2 2.2 -3 20.9 -3 31 0 8.1 -0.4 9.1 -3.7 10.9 -3.4 1.8 -5.3 1.3 -6.4 -1.6z m61.8 -116.4 c0 -2.4 -0.2 -2.7 -1 -1.4 -0.5 0.9 -0.6 2.3 -0.3 3.1 0.8 2.2 1.3 1.7 1.3 -1.7z m3.2 -9.4 c0 -0.5 -0.6 0.1 -1.4 1.5 -0.8 1.4 -1.4 3 -1.4 3.5 0 0.6 0.6 -0.1 1.4 -1.5 0.8 -1.4 1.4 -2.9 1.4 -3.5z m5 -13.5 c0 -0.8 -0.7 0.1 -1.4 2 -1.8 4.6 -1.7 6.4 0 2.5 0.8 -1.6 1.4 -3.7 1.4 -4.5z m-57.9 3.5 c0 0.6 1.3 1 2.9 1.1 2.1 0.1 2.8 -0.3 2.4 -1.3 -0.4 -1 0 -1.3 1.2 -1.1 0.9 0.2 2.2 -0.6 2.9 -1.7 0.6 -1 2.6 -3.5 4.3 -5.5 1.8 -1.9 3.3 -3.8 3.3 -4.2 0 -0.5 0.5 -0.8 1 -0.8 0.6 0 2.1 -0.9 3.3 -2.1 l2.2 -2 -3 0.8 c-1.6 0.4 -7.6 0.7 -13.2 0.6 l-10.1 -0.1 0.7 2.6 c0.5 1.5 0.6 5.6 0.4 9.2 -0.3 4.6 -0.1 6.1 0.6 5 0.6 -0.8 1.1 -1 1.1 -0.5z m7.5 -23.9 c1.9 -0.8 3.5 -1.7 3.5 -2 0 -0.2 -1.4 -1.1 -3 -2 -1.7 -0.8 -2.8 -1 -2.4 -0.5 0.3 0.5 -1.4 1.8 -3.7 2.8 l-4.2 1.9 2.9 0.5 c1.6 0.2 3 0.5 3.2 0.6 0.1 0 1.8 -0.6 3.7 -1.3z m54.5 -11.8 c-2.4 -4 -2.6 -7.5 -0.4 -9.9 1.5 -1.6 1.4 -1.7 -0.5 -1.2 -4.9 1.3 -4.8 6.7 0.1 12 2.9 3.1 3.1 2.9 0.8 -0.9z m-22.5 -40.5 c0.3 -1.2 1.7 -3.3 3.1 -4.7 1.5 -1.3 2.4 -2.8 2 -3.4 -0.3 -0.6 -3.1 -2.4 -6.1 -4.1 -3 -1.7 -7.7 -5.3 -10.5 -8.1 -4.9 -4.8 -8 -5.7 -8 -2.3 0 2.5 -3.9 8.1 -6 8.8 -3.3 1.1 -2.2 2.5 1.9 2.5 2.2 0 4.4 -0.6 5.1 -1.5 0.7 -0.8 1.6 -1.5 2.1 -1.5 1.6 0 0.9 2.3 -1.7 5.7 l-2.5 3.3 2.5 0 c1.5 0 3.5 -0.9 4.7 -2.1 2.6 -2.6 4.2 -1.3 3.1 2.6 -0.9 3.2 -0.5 6.5 0.7 6.5 0.4 0 1.5 -1.6 2.4 -3.5 2.2 -4.7 3.6 -4.4 3 0.5 -0.4 2.9 -0.1 4.7 1.3 6.7 l1.9 2.8 0.3 -3 c0.1 -1.6 0.5 -4 0.7 -5.2z m-53.6 -0.7 c3.1 -3.3 2.4 -6 -1.4 -6.4 -3.3 -0.3 -16.1 4.6 -16.4 6.3 -0.3 1.7 3.5 1.7 7.4 0.1 2.1 -0.9 4.6 -1.6 5.7 -1.6 1.6 0 1.7 0.3 0.8 2 -1.6 2.9 1 2.6 3.9 -0.4z m-24.9 -5.3 c0 -1.6 0.3 -4.5 0.6 -6.5 0.6 -3.2 0.4 -3.8 -1.1 -3.8 -1.9 0 -5.5 2.7 -5.5 4.1 0 0.5 0.7 0.6 1.5 0.3 1.2 -0.5 1.5 0.2 1.5 3.3 0 2.2 0.3 4.3 0.7 4.6 1.4 1.4 2.3 0.6 2.3 -2z m35.3 -23.5 c2 -2 2.4 -2.8 1.4 -2.8 -1.7 0 -8.7 8.5 -8.7 10.4 0 0.6 1 -0.2 2.3 -1.9 1.2 -1.6 3.4 -4.2 5 -5.7z"/>
 </g>
 <g fill="#9f834c">
  <path d="M92.9 252.3 c-1.8 -4.9 -3.8 -15.7 -5.5 -30.9 l-1.7 -14.9 -5.3 -3.7 c-6 -4.3 -8.9 -9.4 -10.6 -18.8 -1.5 -7.8 -0.2 -14.4 4.9 -25.2 3.1 -6.6 3.4 -8.1 2.2 -8.9 -0.8 -0.5 -0.9 -0.9 -0.3 -0.9 1.2 0 6.4 -11.1 6.4 -13.6 0 -0.9 -1 -1.4 -2.8 -1.4 -2.4 0 -3.3 0.8 -5.4 4.8 -3.9 7.2 -4.3 9.8 -1.5 10.6 2.1 0.7 2.1 0.7 0.2 1.5 -2.9 1.2 -7.8 -1.1 -9.4 -4.4 -1.1 -2.4 -1.2 -3.5 -0.1 -6.4 2.7 -7.6 10.2 -22.3 11.7 -22.8 0.8 -0.3 3.1 0 5.1 0.6 3.1 1 4.3 1 7.3 -0.3 3.9 -1.6 6 -5.4 7.5 -13.1 0.7 -3.7 0.6 -3.8 -1.7 -3.1 -8.2 2.5 -19.8 1.5 -28.5 -2.5 -8.1 -3.8 -18.4 -15.7 -18.4 -21.2 0 -2 1.1 -4 3.5 -6.4 1.9 -1.9 3.5 -3.9 3.5 -4.4 0 -0.4 -2 -2 -4.3 -3.4 -6.3 -3.7 -7 -5.9 -4.7 -14.9 3.6 -14.3 10.2 -23.5 18.4 -25.7 4.4 -1.2 12.5 -1.3 19.2 -0.3 5.5 0.8 8.6 -0.8 7.8 -4 -1.3 -5.4 17.6 -16.4 29.7 -17.3 4.4 -0.4 6.9 -0.2 7.3 0.6 0.5 0.7 -0.4 1.1 -2.6 1.2 -2.1 0 -0.8 0.5 3.7 1.4 7 1.3 16 4.4 15.1 5.2 -0.2 0.2 -2.7 0 -5.6 -0.5 -6.3 -1.2 -5.8 -0.6 4.7 4.8 5.8 3 9 4.1 10.9 3.7 2.3 -0.4 3.1 0.2 6.7 5.9 3 4.8 4.6 6.4 6.3 6.4 8.1 0 19.3 5.3 18 8.6 -0.3 0.7 -0.1 1.4 0.4 1.6 1.1 0.4 3.5 11.6 2.7 12.4 -1.1 1.2 -12.8 3.2 -15 2.6 -1.2 -0.3 -4.2 -1.8 -6.5 -3.5 -2.4 -1.6 -4.7 -2.5 -5.1 -2.1 -0.4 0.5 -1.6 3.2 -2.6 5.9 -1 2.8 -4.4 9.1 -7.5 14 -3.1 5 -6.6 11.5 -7.6 14.5 -1.9 5.3 -1.9 5.6 -0.1 9 1.5 3 1.7 5.1 1.1 15.5 -0.5 10.3 -0.4 12.2 0.9 13.4 1.9 1.5 3.7 0.7 3.7 -1.7 0 -0.9 1.1 -5.7 2.4 -10.7 1.3 -4.9 3.3 -12.8 4.5 -17.5 4.8 -18.7 6.1 -22 8.9 -23.1 6.5 -2.5 21.3 3.3 28.7 11.2 5.3 5.7 6.4 9.1 4.1 12.9 -0.9 1.6 -1.6 3.3 -1.6 3.9 0 0.6 -5 7.7 -11.2 15.8 -6.2 8.1 -13.6 18.1 -16.7 22.1 -3.9 5.2 -5.9 7.1 -7 6.7 -0.9 -0.3 -0.2 0.7 1.6 2.2 6.8 6 9.9 28.2 5.3 37.8 -1.2 2.5 -3.5 5.4 -5 6.5 -3.6 2.6 -10.4 5 -13.9 5 -2.2 0 -3.1 0.8 -4.8 4.4 -1.2 2.4 -3.4 5.2 -4.8 6.3 -7.3 5.1 -6.8 4 -5 12.3 0.9 4.1 3.2 10.7 5.1 14.7 4 8.3 4.1 9.2 1.4 12 -3.8 4.1 -5.7 3.9 -11.7 -1.4 -4.5 -3.9 -6.7 -7.1 -12.1 -17.5 -6.6 -12.8 -9.2 -15.5 -11.2 -11.8 -1.2 2.2 -3 20.9 -3 31 0 8.1 -0.4 9.1 -3.7 10.9 -3.4 1.8 -5.3 1.3 -6.4 -1.6z m9.7 -35.6 c0.1 -0.7 0.5 -1.9 0.9 -2.8 0.5 -1.3 -0.3 -1.8 -3.6 -2.3 -2.3 -0.4 -4.3 -0.5 -4.6 -0.3 -0.9 0.9 2 5.3 4 6.3 2.4 1.1 3 0.9 3.3 -0.9z m52.1 -80.8 c0 -2.4 -0.2 -2.7 -1 -1.4 -0.5 0.9 -0.6 2.3 -0.3 3.1 0.8 2.2 1.3 1.7 1.3 -1.7z m3.2 -9.4 c0 -0.5 -0.6 0.1 -1.4 1.5 -0.8 1.4 -1.4 3 -1.4 3.5 0 0.6 0.6 -0.1 1.4 -1.5 0.8 -1.4 1.4 -2.9 1.4 -3.5z m-40.1 3.7 c0.7 0.7 1.4 -0.2 2.2 -3.3 1.9 -7.5 4.2 -14.3 5.3 -15.6 0.5 -0.7 2.9 -1.3 5.3 -1.3 4.1 0 4.3 -0.2 5.3 -3.7 0.6 -2.1 1.1 -4.6 1.1 -5.7 0 -1 0.5 -3.6 1.2 -5.7 0.6 -2.2 0.8 -4.2 0.5 -4.5 -0.3 -0.4 -2.7 1.2 -5.3 3.5 -6.6 5.7 -13 7.5 -22.5 6.2 -9.5 -1.3 -10.9 -0.6 -10.4 5.6 0.1 2.7 -0.1 5.5 -0.5 6.3 -1.3 2.4 -2.1 12.4 -1.2 13.8 0.8 1.2 1.9 1.6 9.5 3.2 2.1 0.4 4 1 4.4 1.3 0.3 0.4 1.3 0.2 2.3 -0.3 1.1 -0.6 2.1 -0.5 2.8 0.2z m21.9 -5.6 c-0.7 -1.3 -1.5 -2.2 -2 -1.9 -0.5 0.3 -0.1 1.4 0.9 2.4 2.2 2.5 2.4 2.4 1.1 -0.5z m23.2 -11.6 c0 -0.8 -0.7 0.1 -1.4 2 -1.8 4.6 -1.7 6.4 0 2.5 0.8 -1.6 1.4 -3.7 1.4 -4.5z m-49.6 -19.9 c2 -0.7 3.7 -1.6 3.7 -2 0 -0.4 -1.6 -1.5 -3.6 -2.4 -1.9 -1 -3.2 -1.3 -2.9 -0.7 0.4 0.6 -1.7 2.1 -4.7 3.6 -2.9 1.3 -4.3 2.3 -3 2 1.2 -0.2 2.2 0 2.2 0.4 0 1.1 3.5 0.7 8.3 -0.9z m54.1 -12 c-3.2 -4.9 -3 -9 0.6 -10.8 2.3 -1.2 2.4 -1.3 0.4 -1.3 -1.2 0 -3.2 0.8 -4.4 1.8 -2.1 1.7 -2.2 2.2 -1.1 5.3 1.2 3.5 5 8.8 6.4 8.9 0.4 0 -0.4 -1.8 -1.9 -3.9z m-108.8 -11.5 c1.8 0.5 1.8 0.5 0 -0.6 -1.5 -1 -2.1 -0.9 -3.5 0.6 -1.4 1.6 -1.4 1.7 0 0.6 0.9 -0.7 2.5 -1 3.5 -0.6z m85.4 -24.6 c0 -3.4 2 -7.9 4.4 -9.9 0.9 -0.8 1.6 -1.7 1.6 -2.2 0 -0.4 -3 -2.8 -6.7 -5.2 -3.8 -2.5 -8.7 -6.3 -11 -8.6 -4.6 -4.5 -6.1 -5 -6.9 -2.3 -1.3 4.3 -4 8.5 -6.1 9.5 -1.3 0.6 -2.3 1.4 -2.3 1.9 0 1.4 7.3 0.9 9.1 -0.8 2.8 -2.5 3.1 0 0.5 3.9 -1.7 2.4 -2.1 3.7 -1.3 4 1.6 0.6 6.4 -1.9 7 -3.5 0.3 -0.9 0.8 -1 1.6 -0.2 0.9 0.8 0.9 1.8 0.1 3.9 -1 2.7 -0.5 6.5 0.9 6.5 0.4 0 1.5 -1.6 2.4 -3.6 2 -4.1 3.6 -3.8 2.9 0.6 -0.5 3.2 1.4 9 2.9 9 0.5 0 0.9 -1.4 0.9 -3z m-51.4 -7.8 c0.8 -2.8 -0.6 -4.4 -3.8 -4.4 -3 0 -15.4 5.3 -15.7 6.7 -0.3 1.7 4.5 1.7 8.4 0.1 5.2 -2.2 6.8 -2.1 5.6 0.3 -0.6 1 -0.8 2.1 -0.4 2.4 1 1 5.3 -2.7 5.9 -5.1z m-26.6 -2.9 c0 -1.6 0.3 -4.5 0.6 -6.5 0.6 -3.2 0.4 -3.8 -1.1 -3.8 -1.9 0 -5.5 2.7 -5.5 4.1 0 0.5 0.7 0.6 1.5 0.3 1.2 -0.5 1.5 0.2 1.5 3.3 0 2.2 0.3 4.3 0.7 4.6 1.4 1.4 2.3 0.6 2.3 -2z m35.3 -23.5 c2 -2 2.4 -2.8 1.4 -2.8 -1.7 0 -8.7 8.5 -8.7 10.4 0 0.6 1 -0.2 2.3 -1.9 1.2 -1.6 3.4 -4.2 5 -5.7z"/>
 </g>
 <g fill="#b48f4d">
  <path d="M92.9 252.3 c-1.8 -4.9 -3.8 -15.7 -5.5 -30.9 l-1.7 -14.9 -5.3 -3.7 c-6.1 -4.4 -9 -9.7 -10.7 -19.2 -1.3 -7.8 -0.1 -14.2 4.5 -23.7 1.7 -3.5 3.4 -8 3.8 -9.9 0.5 -1.9 2 -6.4 3.5 -9.8 1.5 -3.5 2.5 -6.6 2.2 -6.8 -0.2 -0.2 -1.8 -0.1 -3.6 0.2 -3.6 0.7 -7.1 5.9 -9.1 13.2 -1.2 4.6 -1.6 4.9 -4.7 2.7 -4 -2.8 -3.8 -6.4 1.2 -17.5 7 -15.5 8.2 -16.8 13.7 -13.9 1.6 0.8 3.1 0.8 6.1 -0.2 4.3 -1.4 6.8 -5.4 8.3 -13.3 0.7 -3.8 0.6 -3.9 -1.7 -3.2 -8.2 2.5 -19.8 1.5 -28.5 -2.5 -8 -3.8 -18.4 -15.7 -18.4 -21.1 0 -2.1 1.2 -4.2 4 -7 3.8 -4 6.8 -4.7 3.9 -1.1 -1.3 1.6 -1.2 1.7 0.2 0.5 1.2 -0.9 2.4 -1 4.4 -0.2 2.4 0.9 2.6 0.8 2 -0.7 -1.9 -4.3 -1.6 -8.2 1.2 -15.2 3.9 -10.1 5.4 -11.5 11.2 -10.7 14.4 2.1 13.7 2.2 17.6 -1.7 8.6 -8.6 0.6 -12.8 -12.4 -6.7 -3.6 1.7 -7.6 3 -9 2.8 -2.5 -0.3 -2.6 -0.5 -2.5 -7 0.1 -6.3 -0.1 -6.8 -2.1 -6.8 -1.2 0 -3.2 1.1 -4.5 2.5 -2.5 2.7 -2.1 4.6 0.5 2.5 1.4 -1.2 1.6 -1 1 1.6 -0.4 1.6 -0.9 3.5 -1.1 4.2 -0.2 0.8 0.3 2.3 1.1 3.5 0.8 1.2 1.5 2.9 1.5 3.9 0 2.3 -9.9 22.8 -11 22.8 -2.1 0 -7.8 -4.2 -8.8 -6.5 -1.4 -3.1 1.3 -14.7 5.3 -22.6 6.2 -12.2 15.5 -16 33.1 -13.3 5.3 0.8 7.9 -0.6 7.9 -4.2 0 -2.1 1.2 -3.8 5.3 -7.1 6.7 -5.5 8 -5.5 3 0 -4.9 5.2 -6.1 7.4 -4.8 8.2 0.5 0.3 1 0.1 1 -0.5 0 -0.6 2 -3.3 4.5 -5.9 2.5 -2.6 4.5 -5.2 4.5 -5.8 0 -0.5 2.1 -2 4.8 -3.2 5.3 -2.7 17.5 -4.1 18.6 -2.2 0.5 0.7 -0.4 1.1 -2.6 1.2 -2.1 0 -0.8 0.5 3.7 1.4 7 1.3 16 4.4 15.1 5.2 -0.2 0.2 -2.7 0 -5.6 -0.5 -6.3 -1.2 -5.8 -0.6 4.7 4.8 5.8 3 9 4.1 10.9 3.7 2.3 -0.4 3.1 0.2 6.7 5.9 3 4.8 4.6 6.4 6.3 6.4 8.1 0 19.3 5.3 18 8.6 -0.3 0.7 -0.1 1.4 0.4 1.6 1.1 0.4 3.5 11.6 2.7 12.4 -1.1 1.2 -12.8 3.2 -15 2.6 -1.2 -0.3 -4.2 -1.8 -6.5 -3.5 -2.4 -1.6 -4.7 -2.5 -5.1 -2.1 -0.4 0.5 -1.6 3.2 -2.6 5.9 -1 2.8 -4.4 9.1 -7.5 14 -3.1 5 -6.6 11.5 -7.6 14.5 -1.9 5.3 -1.9 5.5 0 9.2 1.7 3.5 1.8 5 1 15.4 -0.8 10.5 -0.8 11.7 0.9 13.1 2.4 2.2 3 1.2 5.1 -8.2 1 -4.4 2.8 -11.6 4.1 -16 1.3 -4.4 2.7 -9.7 3 -11.7 0.9 -4.8 3.4 -11.8 3.5 -9.6 0 1 2 3.9 4.6 6.5 l4.5 4.8 -4.3 11.6 c-2.3 6.5 -4.6 11.5 -4.9 11.3 -0.4 -0.2 -0.5 0.6 -0.1 1.8 0.3 1.3 0.1 1.9 -0.5 1.5 -0.7 -0.5 -0.9 0.1 -0.5 1.5 0.3 1.3 0.1 1.9 -0.5 1.5 -0.7 -0.5 -0.9 0.1 -0.5 1.5 0.3 1.4 0.1 1.9 -0.6 1.4 -0.8 -0.5 -1 -0.1 -0.5 1 0.4 1.2 0.3 1.5 -0.5 1 -0.8 -0.5 -1 -0.2 -0.6 0.8 0.3 0.9 0.1 1.6 -0.5 1.6 -0.6 0 -0.8 0.7 -0.4 1.7 0.4 1.1 0.3 1.4 -0.5 0.9 -0.8 -0.5 -1 -0.1 -0.5 1 0.4 1.2 0.3 1.5 -0.5 1 -0.8 -0.5 -1 -0.2 -0.6 0.9 0.4 0.8 0.1 2.2 -0.6 3 -1.4 1.7 0.6 6.5 3 7.3 1.1 0.4 1 0.1 -0.3 -1.2 -0.9 -1 -1.7 -1.9 -1.7 -2.2 0 -0.2 1.6 -4.3 3.6 -9.1 2 -4.9 5.6 -15.1 8 -22.7 2.4 -7.7 4.8 -14.4 5.3 -14.9 0.5 -0.5 1.7 -0.4 3 0.2 1.3 0.8 0.3 -1.2 -2.9 -5.4 -2.8 -3.7 -5 -7.7 -5 -9 0 -3.8 4 -5.9 10.1 -5.2 6 0.7 9.9 3 16.7 9.6 5.6 5.5 7.2 9.3 5.2 12.5 -0.7 1.1 -1.6 3 -1.9 4.3 -0.3 1.2 -2.5 4.6 -4.9 7.5 -2.4 2.9 -6.7 8.5 -9.5 12.4 -16.1 22 -19 25.5 -20.6 24.9 -0.9 -0.3 -0.2 0.7 1.6 2.2 6.8 6 9.9 28.2 5.3 37.8 -1.2 2.5 -3.5 5.4 -5 6.5 -3.6 2.6 -10.4 5 -13.9 5 -2.2 0 -3.1 0.8 -4.8 4.4 -1.2 2.4 -3.4 5.2 -4.8 6.3 -7.3 5.1 -6.8 4 -5 12.3 0.9 4.1 3.2 10.7 5.1 14.7 4 8.3 4.1 9.2 1.4 12 -3.8 4.1 -5.7 3.9 -11.7 -1.4 -4.5 -3.9 -6.7 -7.1 -12.1 -17.5 -6.6 -12.8 -9.2 -15.5 -11.2 -11.8 -1.2 2.2 -3 20.9 -3 31 0 8.1 -0.4 9.1 -3.7 10.9 -3.4 1.8 -5.3 1.3 -6.4 -1.6z m9.9 -33.6 c0.5 -0.7 1.1 -2.4 1.4 -3.9 0.6 -3 -1 -3.8 -7.4 -3.8 -4.2 0 -4.8 0.9 -1.8 2.7 1 0.7 2.2 2.9 2.6 5 0.4 2.1 1.1 4.4 1.7 5.2 0.9 1 1.3 0.8 1.8 -1.4 0.4 -1.4 1.2 -3.2 1.7 -3.8z m32.5 -39.4 c-1.3 -0.2 -3.3 -0.2 -4.5 0 -1.3 0.2 -0.3 0.4 2.2 0.4 2.5 0 3.5 -0.2 2.3 -0.4z m6 -3 c-1.3 -0.2 -3.3 -0.2 -4.5 0 -1.3 0.2 -0.3 0.4 2.2 0.4 2.5 0 3.5 -0.2 2.3 -0.4z m1 -3 c-1.3 -0.2 -3.5 -0.2 -5 0 -1.6 0.2 -0.5 0.4 2.2 0.4 2.8 0 4 -0.2 2.8 -0.4z m-13.8 -2.2 c-0.3 -0.5 0.5 -1.2 1.7 -1.4 2 -0.4 1.9 -0.4 -0.4 -0.6 -2.7 -0.1 -3.5 0.8 -2.1 2.2 0.9 1 1.5 0.8 0.8 -0.2z m2.5 -9.1 c1 0 2.1 0.5 2.3 1 0.3 0.6 0.4 0.5 0.3 -0.2 -0.6 -2.9 -6.7 -1.4 -6.6 1.6 0 0.6 0.5 0.3 1.1 -0.6 0.5 -1 1.8 -1.8 2.9 -1.8z m3.1 -2.1 c-1.3 -1 -2.8 -1.9 -3.5 -1.9 -0.6 0.1 0.1 0.8 1.7 1.6 1.5 0.8 2.7 2 2.7 2.6 0 0.6 0.3 0.8 0.8 0.4 0.4 -0.4 -0.4 -1.6 -1.7 -2.7z m11.9 -1.2 c0 -0.1 -2.6 -2.7 -5.7 -5.7 l-5.8 -5.5 5.5 5.8 c5 5.3 6 6.2 6 5.4z m-22.3 -13.4 c-0.2 -1.6 -0.4 -0.5 -0.4 2.2 0 2.8 0.2 4 0.4 2.8 0.2 -1.3 0.2 -3.5 0 -5z m-0.5 -28.3 c1.1 -4.1 1.9 -5.5 3.4 -5.7 10.3 -1 13.4 -1.6 13.4 -2.3 0 -0.5 -0.6 -0.7 -1.3 -0.4 -1.1 0.4 -1.1 -0.8 -0.1 -7.3 0.7 -4.3 1.3 -9.1 1.3 -10.7 l0.1 -2.9 -4.8 4.5 c-2.7 2.5 -5.8 5 -7 5.7 -4.1 2.2 -11.8 3.1 -18.3 2 -8.8 -1.4 -10.9 -0.2 -10.8 6 0.1 2.5 -0.4 6.6 -1 9.1 -1.5 6.4 -1.3 9.4 0.7 11.6 2.1 2.3 10.1 4.8 15.8 4.9 l4.1 0 -0.3 4 c-0.3 2.2 0.4 0.2 1.5 -4.5 1 -4.7 2.5 -11 3.3 -14z m1.7 10 c-0.1 -0.8 -0.7 0.8 -1.5 3.5 -0.7 2.8 -1.3 5.9 -1.3 7 0 1.1 0.7 -0.5 1.4 -3.5 0.8 -3 1.4 -6.2 1.4 -7z m16.4 -1.7 c-1 -2.1 -1.9 -4 -2 -4.2 -0.1 -0.2 -0.9 0.2 -1.7 0.8 -1.3 1.1 -1 1.7 1.7 4.1 1.8 1.6 3.3 3 3.4 3 0.2 0 -0.5 -1.7 -1.4 -3.7z m-13.7 -4 c-0.4 -3.3 -0.3 -4.2 0.3 -2.8 0.8 1.6 1 1.7 1 0.3 0.1 -2.2 1.7 -3.1 6.6 -3.9 l4 -0.6 -3.5 -0.2 c-3 -0.2 -3.2 -0.4 -1.5 -1.2 1.7 -0.8 1.7 -0.9 -0.5 -0.4 -1.4 0.2 -3.4 0.5 -4.6 0.5 -1.7 0 -2.3 1 -3.2 5.1 -1.3 5.6 -1.4 8.8 -0.2 4.9 l0.8 -2.5 0.1 2.8 c0.1 1.5 0.4 2.7 0.7 2.7 0.4 0 0.4 -2.1 0 -4.7z m14.1 -11 c-0.2 -1.6 -0.4 -0.5 -0.4 2.2 0 2.8 0.2 4 0.4 2.8 0.2 -1.3 0.2 -3.5 0 -5z m-29.1 -16.9 c3 -0.8 5.4 -1.9 5.4 -2.3 0 -0.7 -6.3 -4.1 -7.6 -4.1 -0.3 0 -0.3 0.4 0.1 0.9 0.7 1.2 -2 2.7 -9 5.2 l-5 1.8 5.3 0.1 c3 0 7.8 -0.7 10.8 -1.6z m83.2 -1.6 c1.4 -1.4 1.6 -5.7 0.3 -7.7 -0.5 -0.8 -0.8 0.1 -0.7 2.5 0.1 3.8 0 3.9 -3.7 4.2 -2.4 0.2 -5.4 -0.4 -7.8 -1.6 -2.1 -1.1 -3.6 -1.5 -3.2 -1 0.9 1.6 8.5 4.8 11.4 4.8 1.4 0 3 -0.5 3.7 -1.2z m-19.2 -9 c-0.9 -1.2 -1.6 -3.3 -1.6 -4.5 0 -1.8 0.6 -2.3 2.6 -2.3 1.4 0 3.5 0.5 4.6 1.1 1.4 0.8 1.8 0.8 1.4 0 -1.2 -1.9 -8.6 -3.4 -10.2 -2 -2 1.6 -1.8 2.7 1.2 6.6 2.8 3.7 4.4 4.6 2 1.1z m-19.4 -35.2 c0.4 -1.7 0.1 -2.3 -1.1 -2.2 -1.8 0.3 -2.5 2.1 -1.7 4.2 0.8 2 2.3 1 2.8 -2z m-13.2 -2.8 c0 -3.5 3.2 -9.8 5 -9.8 0.5 0 1 -0.8 1 -1.7 0 -1.1 -2 -2.9 -5.3 -4.7 -2.8 -1.7 -7.8 -5.4 -10.9 -8.4 -5.7 -5.4 -8.8 -6.3 -8.8 -2.6 0 2.8 -4 8.4 -6.6 9 -3.3 0.8 -3 2.4 0.4 2.5 4.1 0.2 5.5 -0.1 7.4 -1.8 2.7 -2.4 2.9 0.1 0.3 3.9 -3.6 5.3 -0.9 6.7 4.3 2.3 3.4 -2.8 4.5 -2.4 3.1 1.3 -1.1 2.9 -0.4 7.2 1.1 7.2 0.5 0 1.8 -1.7 2.9 -3.7 l2 -3.8 0.1 4.8 c0 5 1.3 8.7 3 8.7 0.6 0 1 -1.5 1 -3.2z"/>
 </g>
 <g fill="#c09850">
  <path d="M92.9 252.3 c-1.8 -4.9 -3.8 -15.7 -5.5 -30.9 l-1.7 -14.9 -5.3 -3.7 c-6.1 -4.4 -9 -9.7 -10.7 -19.2 -1.3 -7.9 -0.1 -14.3 4.8 -24.5 1.9 -4 3.5 -8.1 3.5 -9.1 0 -0.9 1.1 -4.2 2.4 -7.1 4.4 -9.8 4.4 -9.7 -1.1 -9.4 -4.6 0.3 -4.9 0.5 -7.5 5.2 -1.5 2.7 -2.7 6.4 -2.7 8.6 -0.1 3.5 -0.3 3.7 -2.1 2.7 -3.2 -1.7 -4.4 -5.8 -2.9 -10 2.6 -7.3 10.1 -22.2 11.6 -22.7 0.8 -0.3 3.1 0 5.1 0.6 3.1 1 4.3 1 7.3 -0.3 3.9 -1.6 6 -5.4 7.5 -13.1 0.7 -3.7 0.6 -3.8 -1.7 -3.1 -8.2 2.5 -19.8 1.5 -28.5 -2.5 -8 -3.8 -18.4 -15.7 -18.4 -21.1 0 -2.1 1.2 -4.2 4 -7 2.3 -2.4 4 -3.5 4 -2.7 0 0.8 -0.6 2.1 -1.2 2.9 -0.7 0.8 -0.3 0.6 0.8 -0.3 2 -1.7 2.5 -1.7 5.7 -0.3 l3.6 1.4 -2 -3.1 c-2.5 -4.3 -2.4 -5.4 1.3 -14.8 4.2 -10.6 5.1 -11.2 15.3 -9.4 4.8 0.8 8.6 1 9.6 0.5 2.3 -1.3 7.9 -7.8 7.9 -9.3 0 -4.6 -8.4 -4.9 -18 -0.7 -3.8 1.7 -7.3 3 -7.9 3 -2.1 0 -3.3 -4.1 -2.6 -9.1 0.6 -4.6 0.5 -4.9 -1.5 -4.9 -4.5 0 -6.7 2.3 -7.6 8 -0.3 1.9 0.4 3.3 2.6 5.5 1.6 1.6 3 3.4 3 4 0 1.7 -9.8 22.3 -10.9 22.9 -1.5 1 -7.7 -3.2 -8.9 -5.9 -1.4 -3.1 1.3 -14.7 5.3 -22.6 6.2 -12.2 15.5 -16 33.1 -13.3 5.3 0.8 7.9 -0.6 7.9 -4.2 0 -2.1 1.2 -3.8 5.3 -7.1 2.9 -2.4 5.8 -4.3 6.5 -4.2 0.9 0 0.9 0.2 0 0.6 -2 0.8 -9.3 10.4 -8.7 11.5 0.3 0.5 1.8 -0.8 3.3 -2.9 1.6 -2.1 3.8 -4.7 5 -5.7 1.1 -1.1 2.1 -2.4 2.1 -3.1 0 -2.2 9.3 -5.7 16.4 -6.3 5 -0.4 6.7 -0.2 6.2 0.7 -0.4 0.6 -1.9 1.1 -3.4 1.2 -1.5 0.1 0.7 0.7 4.9 1.5 7.1 1.3 15.6 4.1 14.8 4.9 -0.2 0.2 -2.6 -0.1 -5.3 -0.6 -2.7 -0.5 -5.1 -0.8 -5.3 -0.6 -0.1 0.2 3.8 2.5 8.9 5.1 6.7 3.5 9.9 4.7 12.1 4.3 2.7 -0.4 3.3 0.1 7 6 3 4.7 4.6 6.3 6.3 6.3 7.8 0 18.9 5.1 18.2 8.4 -0.1 0.6 0.3 2 0.9 3.1 0.6 1.1 1.4 4.1 1.8 6.7 0.7 4.4 0.6 4.7 -1.6 5.2 -12.4 2.9 -13.2 2.8 -19.7 -1.7 -2.4 -1.6 -4.7 -2.5 -5.1 -2.1 -0.4 0.5 -1.6 3.2 -2.6 5.9 -1 2.8 -4.4 9.1 -7.6 14 -3.1 5 -6.4 11.1 -7.2 13.5 -0.9 2.5 -1.6 3.9 -1.7 3.1 0 -0.7 -2.6 1.3 -5.7 4.6 -7.9 8.2 -12.4 9.8 -24.6 9 -12.7 -0.8 -13.7 -0.2 -15.6 9.3 -2.1 11 -1.9 19.4 0.6 22.8 1.1 1.5 2.5 2.7 3.1 2.7 0.6 0 1.3 0.3 1.7 0.7 0.4 0.4 1.2 0.5 1.9 0.2 0.6 -0.2 2.2 0.5 3.4 1.6 1.2 1.1 2.2 1.8 2.2 1.4 0 -0.3 1.5 0.5 3.4 1.9 1.8 1.5 3.5 2.4 3.7 2.2 0.2 -0.2 0.3 1.8 0.2 4.3 -0.2 2.6 0.6 -0.2 1.8 -6.3 1.1 -6 3 -15 4.3 -20 1.8 -7.3 2.6 -9 4.2 -9.2 1 -0.1 4.5 -0.5 7.7 -0.8 l5.9 -0.7 -0.4 -3.3 c-0.2 -1.9 -0.1 -3.2 0.3 -3 0.3 0.3 0.7 -2.5 0.7 -6.2 0.1 -3.6 0.4 -6.8 0.7 -7.1 0.2 -0.3 1.2 1.2 2.1 3.4 1.4 3.3 1.5 5.6 0.7 15.4 -0.8 9.9 -0.7 11.7 0.7 12.7 0.8 0.7 1.9 1.1 2.4 1 0.5 -0.2 1.9 -4.6 3.1 -9.8 1.2 -5.2 3.2 -12.5 4.3 -16.4 1.1 -3.8 2.4 -8.7 2.7 -10.7 0.9 -4.7 3.4 -11.8 3.5 -9.7 0 0.9 2.1 4 4.6 6.8 3.3 3.6 4.3 5.5 3.6 6.4 -0.5 0.6 -2.2 4.9 -3.7 9.5 -1.4 4.5 -3 8 -3.5 7.7 -0.4 -0.3 -0.6 0.4 -0.3 1.5 0.3 1.1 0 2 -0.6 2 -0.5 0 -0.8 0.7 -0.5 1.5 0.4 0.8 0.1 1.5 -0.5 1.5 -0.6 0 -0.8 0.7 -0.5 1.5 0.4 0.8 0.1 1.5 -0.5 1.5 -0.6 0 -0.8 0.7 -0.5 1.5 0.4 0.8 0.1 1.5 -0.6 1.5 -0.6 0 -0.8 0.5 -0.5 1 0.3 0.6 0.2 1 -0.4 1 -0.6 0 -0.8 0.7 -0.5 1.5 0.4 0.8 0.1 1.5 -0.6 1.5 -0.6 0 -0.8 0.5 -0.5 1 0.3 0.6 0.2 1 -0.4 1 -0.6 0 -0.7 0.7 -0.4 1.7 0.4 1.1 0.3 1.4 -0.5 0.9 -0.8 -0.5 -1 -0.1 -0.5 1 0.4 1 0.2 1.5 -0.4 1.1 -1.5 -0.9 -1 5.8 0.6 7.7 0.7 0.9 1.8 1.6 2.3 1.6 0.5 0 0.2 -0.7 -0.6 -1.6 -0.9 -0.8 -1.6 -1.7 -1.6 -2 0 -0.2 1.6 -4.3 3.6 -9.1 2 -4.9 5.6 -15.1 8 -22.7 2.4 -7.7 4.8 -14.4 5.3 -14.9 0.5 -0.5 1.7 -0.4 3 0.2 1.2 0.7 2.1 1 2.1 0.9 0 -0.2 -2 -3 -4.5 -6.3 -7.3 -9.7 -6.1 -14 3.8 -13.7 8.4 0.4 19.7 9.7 19.7 16.4 0 7.2 -13.9 3 -18.6 -5.7 -1.6 -3.1 -1.7 -3.7 -0.4 -4.5 2.2 -1.4 3.4 -1.2 7.1 1.3 3.7 2.5 4.8 6.4 1.5 5.9 -1.1 -0.2 -1.5 0.1 -1.1 0.7 0.8 1.3 4.2 1.4 4.9 0.2 1.1 -1.7 -1.2 -5.8 -4.4 -8.1 -6.5 -4.6 -14.8 -3.3 -12 2 3.5 6.5 11.4 12.7 18.4 14.4 3.5 0.8 7.3 -1.4 7.9 -4.6 0.4 -2 0.4 -2 0.6 0.4 0 1.5 -0.3 3 -0.9 3.3 -0.5 0.3 -1.3 1.9 -1.7 3.5 -0.5 1.6 -2.7 5.3 -5.1 8.2 -2.4 2.9 -6.7 8.5 -9.5 12.4 -16.1 22 -19 25.5 -20.6 24.9 -0.9 -0.3 -0.2 0.7 1.6 2.2 6.8 6 9.9 28.2 5.3 37.8 -1.2 2.5 -3.5 5.4 -5 6.5 -3.6 2.6 -10.4 5 -13.9 5 -2.2 0 -3.1 0.8 -4.8 4.4 -1.2 2.4 -3.4 5.2 -4.8 6.3 -7.3 5.1 -6.8 4 -5 12.3 0.9 4.1 3.2 10.7 5.1 14.7 4 8.3 4.1 9.2 1.4 12 -3.8 4.1 -5.7 3.9 -11.7 -1.4 -4.5 -3.9 -6.7 -7.1 -12.1 -17.5 -6.1 -11.9 -8.6 -14.8 -10.9 -12.8 -0.4 0.4 -4.3 0.3 -8.6 -0.2 -4.4 -0.5 -8.1 -0.7 -8.3 -0.5 -0.3 0.3 0.5 2.2 1.7 4.3 1.9 3.2 2.3 5.7 2.5 13.9 0.4 12.3 1 17.3 2.4 19 1.3 1.6 3.9 0.9 5.8 -1.3 1 -1.4 1.2 -1.2 1.2 1.4 0 3.5 -0.8 4.7 -3.7 6.3 -3.4 1.8 -5.3 1.3 -6.4 -1.6z m39.8 -27.5 c-0.9 -11.2 -1.4 -12.8 -4.3 -12.8 -3 0 -8.9 2.4 -9.8 3.9 -0.4 0.6 0.2 2.3 1.3 3.7 1.2 1.5 2.1 3.2 2.1 3.9 0 0.7 0.7 1.6 1.6 1.9 0.8 0.3 1.2 1 0.9 1.6 -0.3 0.5 -0.1 1 0.4 1 0.6 0 1.1 0.5 1.1 1 0 1.9 2.5 3.9 4.9 4 2.4 0 2.4 0 1.8 -8.2z m-17.3 -21 c-0.6 -1 -0.4 -1 0.7 0 1.9 1.7 5.9 1.4 9.4 -0.9 1.7 -1 3.7 -2.2 4.5 -2.5 0.8 -0.4 3.2 -2.5 5.3 -4.6 3.6 -3.7 3.7 -4.1 2.3 -5.7 -0.9 -1 -1.6 -2.3 -1.6 -3 0 -0.7 -0.6 -1.1 -1.3 -0.8 -0.8 0.3 -1.3 -0.3 -1.3 -1.4 0 -1.1 0.3 -1.9 0.6 -1.9 1.2 0 3 2.5 3 4.2 0 1.1 0.7 1.8 1.8 1.8 1.5 0 1.5 -0.2 0.2 -1.1 -1 -0.7 -1.1 -1.2 -0.4 -1.5 0.7 -0.3 0.9 -1.4 0.6 -2.6 -0.3 -1.4 -0.1 -1.9 0.6 -1.4 0.7 0.4 1.2 0.2 1.2 -0.3 0 -0.6 0.8 -1.2 1.8 -1.2 2.7 -0.2 -6.9 -1.7 -11.4 -1.8 -2.7 -0.1 -5.4 -1 -7.9 -2.6 -2 -1.5 -3.9 -2.4 -4.1 -2.3 -0.8 0.8 8.2 5.8 10.3 5.8 3 0 3 2.6 0.1 3.5 -1.5 0.4 -1.8 0.8 -1 1.2 0.8 0.3 0.2 1.4 -2 3.3 -1.8 1.6 -2.9 3.2 -2.5 3.6 0.9 1 -3.2 5.4 -5 5.4 -0.8 0 -1.6 0.7 -1.9 1.5 -0.4 0.8 -1 1.5 -1.5 1.5 -1.3 0 -4.8 3.7 -4.1 4.4 1.1 1.2 4.3 0.6 3.6 -0.6z m25.9 -27.5 c-1.3 -0.2 -3.3 -0.2 -4.5 0 -1.3 0.2 -0.3 0.4 2.2 0.4 2.5 0 3.5 -0.2 2.3 -0.4z m1 -3 c-1.3 -0.2 -3.5 -0.2 -5 0 -1.6 0.2 -0.5 0.4 2.2 0.4 2.8 0 4 -0.2 2.8 -0.4z m-13.8 -2.2 c-0.3 -0.5 0.5 -1.2 1.7 -1.4 2 -0.4 1.9 -0.4 -0.4 -0.6 -2.7 -0.1 -3.5 0.8 -2.1 2.2 0.9 1 1.5 0.8 0.8 -0.2z m2.5 -9.1 c1 0 2.1 0.5 2.3 1 0.3 0.6 0.4 0.5 0.3 -0.2 -0.6 -2.9 -6.7 -1.4 -6.6 1.6 0 0.6 0.5 0.3 1.1 -0.6 0.5 -1 1.8 -1.8 2.9 -1.8z m3.1 -2.1 c-1.3 -1 -2.8 -1.9 -3.5 -1.9 -0.6 0.1 0.1 0.8 1.7 1.6 1.5 0.8 2.7 2 2.7 2.6 0 0.6 0.3 0.8 0.8 0.4 0.4 -0.4 -0.4 -1.6 -1.7 -2.7z m11.9 -1.2 c0 -0.1 -2.6 -2.7 -5.7 -5.7 l-5.8 -5.5 5.5 5.8 c5 5.3 6 6.2 6 5.4z m6.6 -1.5 c0.6 -0.4 1.6 -1.7 2.2 -2.9 1 -1.7 0.9 -2.5 -0.4 -3.8 -1.2 -1.2 -1.9 -1.3 -2.4 -0.5 -0.9 1.5 -9 0.6 -10.1 -1.2 -0.7 -1 -0.9 -1 -0.9 0 0 0.7 1.1 2.4 2.5 3.8 1.4 1.4 2.5 2.9 2.5 3.4 0 1.7 4.6 2.6 6.6 1.2z m-28.9 -11.9 c-0.2 -1.6 -0.4 -0.5 -0.4 2.2 0 2.8 0.2 4 0.4 2.8 0.2 -1.3 0.2 -3.5 0 -5z m1.2 -18.3 c-0.1 -0.8 -0.7 0.8 -1.5 3.5 -0.7 2.8 -1.3 5.9 -1.3 7 0 1.1 0.7 -0.5 1.4 -3.5 0.8 -3 1.4 -6.2 1.4 -7z m3 -3 c1.2 -7.3 2.7 -8.9 8 -9.1 l3.6 -0.2 -3.5 -0.7 c-2.6 -0.6 -2.9 -0.8 -1.1 -0.9 1.3 0 2.2 -0.3 1.9 -0.6 -0.2 -0.3 -2.5 -0.2 -5 0.1 -4.5 0.6 -4.5 0.7 -5.7 5.6 -1.3 5.8 -1.3 8.1 0 5.3 0.7 -1.5 0.8 -1 0.4 1.8 -0.4 2.1 -0.9 4.6 -1.2 5.5 -0.4 1.2 -0.3 1.4 0.4 0.7 0.6 -0.5 1.6 -3.9 2.2 -7.5z m14.8 2 c-2.9 -5.8 -3.1 -6 -4.9 -4.4 -1.7 1.7 -1.6 1.9 2.4 5.9 2.4 2.4 4.6 4.3 4.9 4.4 0.3 0 -0.8 -2.6 -2.4 -5.9z m-1 -17.2 c-0.2 -1.8 -0.4 -0.6 -0.4 2.7 0 3.3 0.2 4.8 0.4 3.3 0.2 -1.5 0.2 -4.2 0 -6z m-29.8 -14.3 c4.6 -1.4 8.6 -2.7 8.9 -2.9 0.4 -0.5 -4.3 -2.7 -8.8 -4.1 -1.5 -0.5 -2 -0.4 -1.6 0.4 0.9 1.4 -8.5 5.7 -14.7 6.8 l-4.2 0.8 5 0.6 c2.8 0.3 5.5 0.6 6 0.7 0.6 0.1 4.8 -1 9.4 -2.3z m-0.1 -10.1 c0.6 -0.2 1.2 0.1 1.2 0.7 0 0.7 1 0.8 2.8 0.4 1.5 -0.4 3.4 -0.9 4.2 -1 0.8 -0.1 2.9 -0.9 4.5 -1.6 2.3 -1.1 3 -2 3 -4.1 -0.1 -1.7 0.4 -2.8 1.2 -2.8 1.8 0 1.5 -9.7 -0.4 -12.8 -0.7 -1.2 -1.1 -2.7 -0.8 -3.2 0.8 -1.3 -0.1 -1.3 -2.6 0 -2.1 1.2 -2.6 0.1 -0.6 -1.9 1 -1 0.9 -1.1 -0.5 -0.6 -1 0.4 -1.8 1.2 -1.8 1.7 0 0.6 -0.6 0.5 -1.5 -0.2 -1.2 -1 -1.5 -1 -1.5 0.3 0 0.8 -0.6 1.7 -1.2 2 -0.9 0.3 -0.7 1 0.7 2.1 1.9 1.6 1.8 1.6 -1.1 0.2 -3.4 -1.6 -4.4 -1.3 -4.4 1.6 0 1 -0.7 1.8 -1.7 1.8 -1 0 -2.6 1.2 -3.6 2.5 -1.8 2.5 -1.8 2.5 0.5 2.6 2.2 0 2.2 0.1 0.3 0.8 -2.6 1.1 -4.8 0.2 -4.1 -1.6 0.4 -0.8 0.1 -1.1 -0.5 -0.8 -0.6 0.4 -0.8 1.3 -0.5 2 0.5 1.4 -1.4 2.5 -4.5 2.5 -1.6 0 -1.9 0.5 -1.4 2.3 0.3 1.2 0.3 1.7 -0.2 1.1 -0.4 -0.6 -4.1 -1.1 -8.3 -1.1 -4.1 0 -6.6 0.2 -5.6 0.5 1.5 0.3 1.6 0.6 0.5 1.3 -1 0.7 -0.6 0.8 1.1 0.4 1.8 -0.4 3.4 0 5.2 1.5 1.5 1.1 2.9 1.6 3.2 1.1 0.4 -0.6 1.8 -0.5 3.6 0.2 2 0.8 2.6 1.4 1.7 1.9 -0.7 0.5 0.6 0.6 2.8 0.3 3 -0.4 3.5 -0.3 2 0.4 -1.5 0.8 -0.8 0.9 2.5 0.5 2.5 -0.3 5.1 -0.7 5.8 -1z m45.1 -29.8 c2.6 -3.1 2.9 -7.1 0.9 -9.6 l-1.9 -2.3 3.8 -4.1 c3.3 -3.5 3.4 -3.7 0.5 -1.1 l-3.4 3 0.8 -3 c0.4 -1.6 1 -3.7 1.4 -4.5 0.9 -1.9 0.2 -4.2 -1.1 -3.4 -0.5 0.3 -1.2 -0.1 -1.5 -0.9 -0.4 -1.2 -1.2 -1.3 -3.6 -0.6 -2.5 0.7 -3.4 0.5 -5 -1.4 -1.1 -1.2 -1.7 -1.6 -1.3 -0.9 0.3 0.6 0.3 1.6 0 2.2 -0.8 1.3 -8 -3.2 -13.7 -8.8 -4.7 -4.6 -7.8 -5.1 -7.8 -1.5 0 2.3 -5.7 9.3 -7.6 9.3 -2.7 0 -1.4 1.7 1.7 2.4 2 0.4 4.3 0 6.2 -0.9 4.2 -2.1 4.3 -2 1.3 1.9 -1.4 1.9 -2.6 3.9 -2.6 4.5 0 2 3.8 1.1 7 -1.6 l3.2 -2.7 -0.7 4.2 c-0.7 4.1 0 8.2 1.4 8.2 0.4 0 1.5 -1.5 2.4 -3.2 l1.6 -3.3 0 2.8 c0.2 5.5 5.4 12.4 8.8 11.5 1.2 -0.3 2.7 0.6 4.3 2.4 2.7 3.2 3.3 3.4 4.9 1.4z"/>
  <path d="M102.1 235.9 c0.1 -4.6 0.5 -9.5 0.9 -10.9 0.5 -1.5 0.6 1.9 0.3 8 -0.3 5.8 -0.7 10.7 -0.9 10.9 -0.2 0.2 -0.4 -3.4 -0.3 -8z"/>
 </g>
 <g fill="#cea356">
  <path d="M92.9 252.3 c-1.8 -4.9 -3.8 -15.7 -5.5 -30.9 l-1.7 -14.9 -5.3 -3.7 c-6.1 -4.4 -9 -9.7 -10.7 -19.2 -1.3 -7.9 -0.1 -14.3 4.8 -24.5 1.9 -4 3.5 -8.1 3.5 -9.1 0 -0.9 1.1 -4.2 2.4 -7.1 1.3 -3 2.7 -6.5 3.1 -7.8 0.7 -2.2 0.5 -2.3 -2.4 -1.6 -2.3 0.5 -4.3 0.1 -7.3 -1.5 l-4.1 -2.1 0.6 2.1 c0.3 1.1 -0.4 4.6 -1.5 7.7 -1.1 3.2 -1.7 6.7 -1.3 8.1 0.8 3.3 -1.6 2.4 -3.4 -1.3 -1.1 -2.4 -1.2 -3.5 -0.1 -6.4 2.7 -7.6 10.2 -22.3 11.7 -22.8 0.8 -0.3 3.1 0 5.1 0.6 3.1 1 4.3 1 7.4 -0.3 3.5 -1.5 4.3 -2.8 7.2 -11.6 0.4 -1.2 0.5 -1.2 0.5 0.1 0.1 0.9 -0.6 3.6 -1.4 5.9 -2 5.7 -2 20.8 0 23.6 0.8 1.2 2.8 2.4 4.4 2.7 4 0.8 9.5 6.7 11 11.8 2 6.5 3.2 14 3.1 18.9 -0.1 3.5 0.2 4.2 1.1 3.3 0.7 -0.7 1.3 -4.7 1.4 -9.5 0.2 -9.1 3.3 -28.3 6.9 -42.3 l2.2 -9 7.4 -0.7 c4 -0.4 7.5 -1 7.7 -1.2 0.2 -0.2 0.7 -4.8 1.2 -10.2 l0.7 -9.9 1.8 4 c1.6 3.5 1.7 5.3 0.9 15.5 -0.8 9.9 -0.7 11.7 0.7 12.7 0.8 0.7 1.9 1.1 2.4 1 0.5 -0.2 1.9 -4.6 3.1 -9.8 1.2 -5.2 3.2 -12.5 4.3 -16.4 1.1 -3.8 2.4 -8.7 2.7 -10.7 0.9 -4.7 3.4 -11.8 3.5 -9.6 0 0.9 1.9 3.7 4.3 6.3 l4.3 4.8 -3.4 9.8 c-1.9 5.4 -3.8 9.7 -4.2 9.4 -0.5 -0.3 -0.6 0.4 -0.3 1.5 0.3 1.1 0 2 -0.6 2 -0.5 0 -0.8 0.7 -0.5 1.5 0.4 0.8 0.1 1.5 -0.5 1.5 -0.6 0 -0.8 0.7 -0.5 1.5 0.4 0.8 0.1 1.5 -0.5 1.5 -0.6 0 -0.8 0.7 -0.5 1.5 0.4 0.8 0.1 1.5 -0.6 1.5 -0.6 0 -0.8 0.5 -0.5 1 0.3 0.6 0.2 1 -0.4 1 -0.6 0 -0.8 0.7 -0.5 1.5 0.4 0.8 0.1 1.5 -0.6 1.5 -0.6 0 -0.8 0.5 -0.5 1 0.3 0.6 0.2 1 -0.4 1 -0.6 0 -0.7 0.7 -0.4 1.7 0.4 1.1 0.3 1.4 -0.5 0.9 -0.8 -0.5 -1 -0.1 -0.5 1 0.4 1 0.2 1.5 -0.4 1.1 -1.5 -0.9 -1 5.8 0.6 7.7 0.7 0.9 1.8 1.6 2.3 1.6 0.5 0 0.2 -0.7 -0.6 -1.6 -0.9 -0.8 -1.6 -1.7 -1.6 -2 0 -0.2 1.6 -4.3 3.6 -9.1 2 -4.9 5.6 -15.1 8 -22.7 2.4 -7.7 4.8 -14.4 5.3 -14.9 0.5 -0.5 1.8 -0.4 3.2 0.4 2.3 1.2 2.3 1.2 0.6 -1.2 -7.6 -10.5 -9.1 -14.1 -6.5 -16.7 1.8 -1.8 9.7 -1.4 14.3 0.7 5.2 2.3 12.5 10.3 12.5 13.5 0 7.5 -13.7 4.1 -18 -4.4 -1.7 -3.3 -1.7 -4 -0.5 -5 0.8 -0.6 2.3 -0.9 3.4 -0.5 2.9 0.9 7.1 4.5 7.1 6.1 0 1.5 -2.9 1.9 -4.6 0.7 -0.5 -0.5 0.1 0.2 1.3 1.4 2.6 2.4 5.3 2.1 5.3 -0.7 0 -4.5 -7.6 -10 -13.9 -10 -5.9 0 -4.5 5.6 3.1 12.6 8.7 8 18.5 9.4 19.9 2.9 0.7 -3 0.7 -3 0.8 -0.3 0 1.5 -0.3 3 -0.9 3.3 -0.5 0.3 -1.3 1.9 -1.7 3.5 -0.5 1.6 -2.7 5.3 -5.1 8.2 -2.4 2.9 -6.7 8.5 -9.5 12.4 -16.1 22 -19 25.5 -20.6 24.9 -0.9 -0.3 -0.2 0.7 1.6 2.2 6.8 6 9.9 28.2 5.3 37.8 -1.2 2.5 -3.5 5.4 -5 6.5 -3.6 2.6 -10.4 5 -13.9 5 -2.2 0 -3.1 0.8 -4.8 4.4 -1.2 2.4 -3.4 5.2 -4.8 6.3 -7.3 5.1 -6.8 4 -5 12.3 0.9 4.1 3.2 10.7 5.1 14.7 4 8.3 4.1 9.2 1.4 12 -3.8 4.1 -5.7 3.9 -11.7 -1.4 -4.5 -3.9 -6.7 -7.1 -12.1 -17.5 -6 -11.6 -9.1 -15.4 -10.7 -12.8 -0.2 0.4 -2.6 0.4 -5.2 0 -8.9 -1.5 -13.3 -1.8 -13.8 -1 -0.3 0.5 0 2.1 0.6 3.7 0.6 1.5 1.2 3.9 1.3 5.3 0.6 6.6 1.8 17.2 2.8 23.3 1.2 7.4 2.4 8.2 8.1 5.3 2.6 -1.4 2.7 -1.4 2.7 0.7 0 2.8 -0.9 4.1 -3.7 5.6 -3.4 1.8 -5.3 1.3 -6.4 -1.6z m45.4 -12.1 c2.3 -2 2.2 -5.3 -0.3 -5.9 -1.1 -0.3 -2 -1.4 -2 -2.5 0 -1.8 -2.6 -15.6 -3.6 -19 -0.3 -1.1 -1.5 -1.8 -3.1 -1.8 -4 0 -13.3 3.2 -13.3 4.6 0 3 9.1 18.7 13.1 22.7 4.5 4.4 5.9 4.7 9.2 1.9z m-13.1 -34.8 c9.1 -2.3 15.7 -7.4 15.8 -12.1 0 -1.3 0.4 -2.3 0.8 -2.3 0.5 0 1.3 -2.4 1.8 -5.4 l1 -5.5 -8.5 -0.6 c-9.5 -0.8 -12.3 -1.9 -16.8 -6.5 -2.9 -3 -3.1 -3.1 -3.8 -1.1 -0.3 1.2 0.1 3 1.1 4.6 1.3 2 1.4 2.8 0.4 3.9 -0.6 0.8 -1.8 1.2 -2.6 0.9 -1 -0.4 -1.4 0.2 -1.4 2.1 0 1.4 0.6 2.6 1.3 2.7 1 0 1 0.2 0 0.6 -0.7 0.2 -1.3 1.6 -1.3 2.9 0 3.1 -3.1 9.3 -5.9 11.8 -1.2 1.1 -2.1 2.4 -2.1 2.9 0 0.6 0.3 0.7 0.6 0.4 0.4 -0.3 1.6 0 2.8 0.8 2.7 1.9 9.3 1.9 16.8 -0.1z m16.1 -29.1 c-1.3 -0.2 -3.3 -0.2 -4.5 0 -1.3 0.2 -0.3 0.4 2.2 0.4 2.5 0 3.5 -0.2 2.3 -0.4z m1 -3 c-1.3 -0.2 -3.5 -0.2 -5 0 -1.6 0.2 -0.5 0.4 2.2 0.4 2.8 0 4 -0.2 2.8 -0.4z m-12.3 -1.5 l-2.5 -1.1 2.5 -0.7 2.5 -0.8 -2.7 -0.1 c-1.6 -0.1 -2.8 0.3 -2.8 0.7 0 1.4 2.3 3.2 4 3.1 0.8 0 0.4 -0.5 -1 -1.1z m5.9 -5 c1.9 -5.1 -2.6 -9.8 -7.2 -7.7 -1.4 0.6 -2.8 1.8 -3.1 2.6 -0.4 0.9 0.3 0.8 2 -0.6 1.5 -1.2 3.2 -1.7 4.2 -1.3 1.5 0.6 1.4 0.7 -0.3 1 -2.5 0.5 -4.5 2.1 -4.5 3.6 0 0.6 0.5 0.3 1.1 -0.6 1.5 -2.6 4.4 -2.2 5.9 0.8 1.2 2.2 1.2 2.7 0 3.4 -1.1 0.7 -1.1 1 -0.2 1 0.7 0 1.6 -1 2.1 -2.2z m-16.2 -10.5 c-0.3 -1 -0.5 -0.2 -0.5 1.7 0 1.9 0.2 2.7 0.5 1.8 0.2 -1 0.2 -2.6 0 -3.5z m35.7 1.1 c4.3 -4.4 3.4 -6.8 -5.7 -16.1 l-6.1 -6.2 -4.5 4.2 c-2.5 2.3 -4.5 4.8 -4.5 5.5 0.2 1 -0.1 1 -1.4 0 -2.7 -2.1 4.3 6.4 8.5 10.3 6 5.7 9.6 6.3 13.7 2.3z m-31 -15.2 c0.2 -5.1 0.9 -9.8 1.4 -10.5 0.5 -0.7 1.5 -4.1 2.1 -7.7 1.2 -7.3 2.7 -9 7.9 -9 3 0 3.2 -0.2 1.9 -1.5 -1.1 -1.1 -2.7 -1.3 -6 -0.9 l-4.4 0.6 -2.6 11.7 c-3 13.2 -5 25.1 -4.3 25.8 0.2 0.3 0.9 -1.9 1.4 -4.9 l1 -5.3 0.1 5.9 c0.2 8.7 0.9 6.4 1.5 -4.2z m20.9 -12.9 c-4.8 -9.3 -5.2 -9.7 -7.4 -7.7 -1.7 1.5 -1.4 1.9 4.4 8 3.4 3.5 6.3 6.4 6.4 6.4 0.1 0 -1.4 -3 -3.4 -6.7z m-3.6 -20.5 c-0.2 -1.8 -0.4 -0.6 -0.4 2.7 0 3.3 0.2 4.8 0.4 3.3 0.2 -1.5 0.2 -4.2 0 -6z"/>
  <path d="M96.1 102.6 c-0.1 -1.4 -0.6 -1.7 -2.3 -1.1 -8 2.4 -19.8 1.4 -28.4 -2.6 -7.9 -3.7 -18.4 -15.7 -18.4 -20.9 0 -3 3 -7.4 6.2 -9.1 1.8 -1 1.9 -0.9 0.7 1.3 -1.2 2.3 -1.2 2.3 0.8 0.5 1.9 -1.7 2.3 -1.7 5.8 -0.2 2.1 0.8 4 1.3 4.3 1 0.3 -0.3 0.1 -0.5 -0.5 -0.5 -1.8 0 -3.6 -5.8 -3.1 -9.8 0.3 -2 2 -6.8 3.7 -10.6 l3.1 -6.9 5.9 0.6 c3.3 0.4 7.8 0.9 10 1.3 3.8 0.6 4.4 0.4 8.1 -3.4 9.4 -9.4 0.3 -13.9 -14.8 -7.3 -4 1.8 -7.7 2.9 -8.3 2.5 -0.6 -0.3 -0.9 -3.2 -0.8 -6.3 0.3 -7.4 -0.3 -8.3 -4.2 -6.9 -2.9 1 -6.9 5.9 -6.9 8.4 0 0.6 1.6 2.8 3.5 5 3.9 4.4 3.9 4.4 -1.1 14.5 -1.9 3.7 -3.4 7.1 -3.4 7.6 0 0.4 -0.9 1.8 -1.8 3.1 l-1.8 2.4 -3.6 -2.1 c-5.4 -3.2 -6.1 -5.7 -3.8 -14.5 3.6 -14.3 10.2 -23.5 18.4 -25.7 4.4 -1.2 12.5 -1.3 19.2 -0.3 5.3 0.8 7.9 -0.6 7.9 -4.2 0 -2.1 1.2 -3.8 5.3 -7.1 2.9 -2.4 5.8 -4.3 6.5 -4.2 0.9 0 0.9 0.2 0 0.6 -2 0.8 -9.3 10.4 -8.7 11.5 0.3 0.5 1.8 -0.8 3.3 -2.9 1.6 -2.1 3.8 -4.7 5 -5.7 1.1 -1.1 2.1 -2.4 2.1 -3.1 0 -2 9.3 -5.7 15.9 -6.3 4.7 -0.4 6.2 -0.2 5.7 0.7 -0.4 0.6 -1.9 1.1 -3.4 1.2 -1.5 0.1 0.8 0.8 5.1 1.5 4.3 0.8 9.3 2.1 11 2.9 3.1 1.4 3 1.4 -2.8 0.9 l-6 -0.6 10 5.2 c6.7 3.5 11.2 5.2 13.8 5.2 3.5 0.1 4 0.5 7.4 5.9 2.7 4.4 4.2 5.9 5.9 5.9 7.8 0 18.9 5.1 18.2 8.4 -0.1 0.6 0.3 2 0.9 3.1 0.6 1.1 1.4 4.1 1.8 6.7 0.7 4.4 0.6 4.7 -1.6 5.2 -12.4 2.9 -13.2 2.8 -19.7 -1.6 -2.4 -1.6 -4.8 -2.6 -5.5 -2.2 -0.6 0.4 -0.9 0.4 -0.5 -0.1 0.4 -0.4 -0.4 -2.1 -1.8 -3.8 l-2.5 -3 3.8 -4 c2.1 -2.3 3 -3.5 2.1 -2.8 -1.7 1.2 -1.7 1 -1.2 -3.2 0.6 -4.4 0.5 -4.7 -2.7 -6.6 -1.9 -1.1 -3.8 -2.3 -4.4 -2.8 -2.7 -2.2 -16.5 -6 -16.5 -4.5 0 1.8 -3.9 0.9 -6.1 -1.4 -3.1 -3.3 -5.5 -3.1 -6.3 0.7 -0.6 3 -4.8 8 -7.6 9.2 -1.3 0.5 -1.3 0.7 0 1.6 2.2 1.5 6.2 1.3 8.8 -0.5 2.7 -1.9 2.9 -0.5 0.2 2.9 -2.5 3.2 -2.5 4.7 -0.1 4.7 2.1 0 10.5 7.9 16.6 15.5 2.2 2.7 4.6 5.6 5.3 6.3 0.6 0.8 1.7 2.2 2.2 3.3 1.5 2.6 4.4 1 6.9 -3.9 1.1 -2 2 -3.4 2.1 -3 0.1 1.5 -2.7 6.7 -8.2 15.5 -3.2 5.1 -5.8 9.7 -5.8 10.3 0 0.5 -3 4.2 -6.7 8.1 -7.6 8 -14.4 11.9 -20.9 11.9 -5.7 0 -13.4 -1.1 -13.4 -2 0 -0.7 11.5 -4.3 17.8 -5.5 4.3 -0.9 3.1 -1.9 -4 -3.4 -3.2 -0.7 -6.1 -1.7 -6.4 -2.3 -0.4 -0.7 0.2 -0.7 1.7 -0.2 3.5 1.1 10.1 1.3 12.7 0.3 3.1 -1.2 5.6 -3.8 7.6 -7.8 1.3 -2.7 1.4 -3.6 0.4 -4.3 -1 -0.6 -0.9 -0.8 0.2 -0.8 1.1 0 1.5 -1 1.5 -3.7 -0.1 -7.8 -4.4 -15.9 -7 -13.5 -0.5 0.4 -0.5 0.2 -0.1 -0.5 0.4 -0.8 -0.2 -1.5 -1.9 -1.9 -1.3 -0.3 -2.3 -1 -2 -1.4 0.6 -1 -2.2 -3.3 -3.3 -2.6 -0.5 0.3 -1.6 -0.4 -2.6 -1.5 -2.2 -2.6 -8.2 -2.3 -8 0.3 0.1 0.9 -0.4 1.9 -1.2 2.2 -0.9 0.3 -1.1 0 -0.7 -1.1 0.4 -1.1 0.2 -1.4 -0.5 -0.9 -0.7 0.4 -1.2 1.6 -1.2 2.7 0 1.1 -0.4 1.7 -1 1.4 -1.3 -0.8 -7 3.5 -7 5.4 0 1.4 0.1 1.4 1 0.1 0.8 -1.3 1 -1.2 1 0.3 0 1.1 -0.9 2.1 -2 2.4 -1.1 0.3 -2 0.9 -2 1.4 0 0.5 -0.5 0.9 -1 0.9 -0.7 0 -0.7 -0.6 0 -2 1.3 -2.4 0.1 -2.6 -2.6 -0.5 -1.8 1.4 -1.8 1.6 -0.1 2.9 1.5 1.1 1.5 1.5 0.3 2.5 -0.8 0.7 -2 1.1 -2.8 1 -2.9 -0.4 -4.8 0.2 -4.8 1.4 0 0.8 -1.7 1.2 -5.3 1.2 -5.5 -0.1 -9.3 1.2 -10.2 3.3 -0.2 0.7 -0.1 1 0.4 0.7 0.5 -0.3 1.2 -0.1 1.6 0.5 0.4 0.6 1.1 0.8 1.6 0.5 0.5 -0.4 0.9 -0.1 0.9 0.6 0 0.6 0.8 0.9 2 0.6 1.3 -0.3 1.8 -0.1 1.3 0.6 -0.4 0.7 0 0.8 1.1 0.4 0.9 -0.4 1.5 -0.3 1.1 0.2 -0.5 0.8 4.5 2.5 6.1 2.1 0.4 -0.1 1 0.2 1.3 0.7 0.9 1.3 12 4.5 13.1 3.8 0.6 -0.3 1 -0.2 1 0.4 0 0.5 1.8 1.2 4 1.6 2.2 0.4 4.3 1.1 4.6 1.6 0.7 1.1 -7.3 4.8 -14.1 6.5 -2.7 0.7 -4 1.3 -2.7 1.3 1.2 0.1 2.2 0.6 2.2 1.1 0 1 -3 1.3 -12.2 1.4 -2.7 0 -4.8 0.3 -4.8 0.7 0 1.8 14.6 1.4 22.3 -0.6 1.3 -0.3 0.9 0.2 -1 1.2 -1.8 0.9 -3.4 2.3 -3.6 3.2 -0.4 1.2 -0.5 1.2 -0.6 -0.3z m-27.6 -29.6 c-0.3 -0.5 0 -1 0.8 -1 1.4 0 3.2 -2.8 2.3 -3.7 -0.2 -0.2 -1.6 -0.1 -3 0.3 -2.6 0.6 -3.2 3.1 -1.1 4.6 1.4 1.1 1.7 1 1 -0.2z"/>
  <path d="M102 60.1 c0 -0.5 0.7 -1.1 1.5 -1.5 0.9 -0.3 1.5 0 1.5 0.9 0 0.8 -0.7 1.5 -1.5 1.5 -0.8 0 -1.5 -0.4 -1.5 -0.9z"/>
 </g>
 <g fill="#dbaf5f">
  <path d="M92.9 252.3 c-1.8 -4.9 -3.8 -15.7 -5.5 -30.9 l-1.7 -14.9 -5.3 -3.7 c-6.1 -4.4 -9 -9.7 -10.7 -19.2 -1.3 -7.9 -0.1 -14.3 4.8 -24.5 1.9 -4 3.5 -8.1 3.5 -9.1 0 -0.9 1.1 -4.2 2.4 -7.1 1.3 -3 2.7 -6.5 3.1 -7.8 0.7 -2.2 0.5 -2.3 -2.4 -1.6 -2.3 0.5 -4.3 0.1 -7.1 -1.4 -2.2 -1.1 -4.1 -1.7 -4.3 -1.3 -0.2 0.4 -1.2 3.6 -2.2 7 -1.5 5.1 -1.7 7 -0.7 9.4 1.4 3.9 -0.7 3.4 -2.7 -0.7 -1.1 -2.4 -1.2 -3.5 -0.1 -6.4 2.7 -7.6 10.2 -22.3 11.7 -22.8 0.8 -0.3 3.1 0 5.1 0.6 5.5 1.8 10.4 -0.5 12.6 -5.9 0.9 -2.2 1.6 -4.8 1.7 -5.8 0 -1 0.3 -1.2 0.6 -0.5 0.2 0.7 -0.2 3.4 -1 6 -1.7 5.2 -2.3 9.1 -3.2 19.4 l-0.5 6.6 5 0.5 c5.5 0.6 9.8 3.7 12.7 9.2 2.4 4.6 4.2 17.1 4.3 28.8 0 14.2 -1.3 20 -5.7 24.9 l-3.5 3.9 2.8 1.1 c3.7 1.4 15.3 0.6 22.2 -1.5 6.1 -2 12.2 -7.5 12.2 -11 0 -1.4 0.4 -2.6 0.9 -2.8 0.5 -0.1 1.4 -2.6 1.9 -5.5 l0.9 -5.2 -8.8 -0.7 c-7 -0.5 -9.7 -1.2 -12.6 -3.1 -6.4 -4.2 -7.8 -6.8 -7.7 -14.8 0.1 -7.9 3.3 -27.4 6.8 -41 l2.2 -9 7.4 -0.7 c4 -0.4 7.5 -1 7.7 -1.2 0.2 -0.2 0.7 -4.8 1.2 -10.2 l0.7 -9.9 1.8 4 c1.6 3.5 1.7 5.3 0.9 15.5 -0.8 9.9 -0.7 11.7 0.7 12.7 0.8 0.7 1.9 1.1 2.4 1 0.5 -0.2 1.9 -4.6 3.1 -9.8 1.2 -5.2 3.2 -12.5 4.3 -16.4 1.1 -3.8 2.4 -8.7 2.7 -10.7 0.9 -4.7 3.4 -11.8 3.5 -9.6 0 0.9 1.9 3.7 4.3 6.3 l4.3 4.8 -3.4 9.8 c-1.9 5.4 -3.8 9.7 -4.2 9.4 -0.5 -0.3 -0.6 0.4 -0.3 1.5 0.3 1.1 0 2 -0.6 2 -0.5 0 -0.8 0.7 -0.5 1.5 0.4 0.8 0.1 1.5 -0.5 1.5 -0.6 0 -0.8 0.7 -0.5 1.5 0.4 0.8 0.1 1.5 -0.5 1.5 -0.6 0 -0.8 0.7 -0.5 1.5 0.4 0.8 0.1 1.5 -0.6 1.5 -0.6 0 -0.8 0.5 -0.5 1 0.3 0.6 0.2 1 -0.4 1 -0.6 0 -0.8 0.7 -0.5 1.5 0.4 0.8 0.1 1.5 -0.6 1.5 -0.6 0 -0.8 0.5 -0.5 1 0.3 0.6 0.2 1 -0.4 1 -0.6 0 -0.7 0.7 -0.4 1.7 0.4 1.1 0.3 1.4 -0.5 0.9 -0.8 -0.5 -1 -0.1 -0.5 1 0.4 1 0.2 1.5 -0.4 1.1 -1.5 -0.9 -1 5.8 0.6 7.7 0.7 0.9 1.8 1.6 2.3 1.6 0.5 0 0.2 -0.7 -0.6 -1.6 -0.9 -0.8 -1.6 -1.7 -1.6 -2 0 -0.2 1.6 -4.3 3.6 -9.1 2 -4.9 5.6 -15.1 8 -22.7 2.4 -7.7 4.8 -14.4 5.3 -14.9 0.5 -0.5 1.8 -0.4 3.2 0.4 2.3 1.2 2.3 1.2 0.6 -1.2 -7.6 -10.5 -9.1 -14.1 -6.5 -16.7 1.8 -1.8 9.7 -1.4 14.3 0.7 5.2 2.3 12.5 10.3 12.5 13.5 0 7.5 -13.7 4.1 -18 -4.4 -1.7 -3.3 -1.7 -4 -0.5 -5 0.8 -0.6 2.3 -0.9 3.4 -0.5 2.9 0.9 7.1 4.5 7.1 6.1 0 1.5 -2.9 1.9 -4.6 0.7 -0.5 -0.5 0.1 0.2 1.3 1.4 2.6 2.4 5.3 2.1 5.3 -0.7 0 -4.5 -7.6 -10 -13.9 -10 -5.9 0 -4.5 5.6 3.1 12.6 8.7 8 18.5 9.4 19.9 2.9 0.7 -3 0.7 -3 0.8 -0.3 0 1.5 -0.3 3 -0.9 3.3 -0.5 0.3 -1.3 1.9 -1.7 3.5 -0.5 1.6 -2.7 5.3 -5.1 8.2 -2.4 2.9 -6.7 8.5 -9.5 12.4 -16.1 22 -19 25.5 -20.6 24.9 -0.9 -0.3 -0.2 0.7 1.6 2.2 6.8 6 9.9 28.2 5.3 37.8 -1.2 2.5 -3.5 5.4 -5 6.5 -3.6 2.6 -10.4 5 -13.9 5 -2.2 0 -3.1 0.8 -4.8 4.4 -1.2 2.4 -3.4 5.2 -4.8 6.3 -7.3 5.1 -6.8 4 -5 12.3 0.9 4.1 3.2 10.7 5.1 14.7 4 8.3 4.1 9.2 1.4 12 -3.8 4.1 -5.7 3.9 -11.7 -1.4 -4.5 -3.9 -6.7 -7.1 -12.1 -17.5 -6 -11.5 -9.1 -15.4 -10.7 -12.9 -0.2 0.4 -4.5 0.1 -9.5 -0.7 -5 -0.8 -9.3 -1.3 -9.5 -1 -0.5 0.5 3 29.6 4.3 35.8 0.9 4.1 3.6 5 8.2 2.6 2.9 -1.4 3 -1.4 3 0.7 0 2.8 -0.9 4.1 -3.7 5.6 -3.4 1.8 -5.3 1.3 -6.4 -1.6z m45.4 -12.1 c2.2 -1.9 2.2 -4.8 0 -6 -1.1 -0.7 -2.2 -4 -3.4 -9.8 -2.9 -14.1 -2.5 -13.4 -6.2 -13.4 -1.7 0.1 -5.4 0.9 -8.2 1.9 -5.9 2.1 -5.9 2.2 -0.4 13.7 2.7 5.7 4.9 8.9 7.6 10.9 2.1 1.6 4.1 3.5 4.6 4.2 0.8 1.4 3.3 0.8 6 -1.5z m3 -63.9 c-1.3 -0.2 -3.3 -0.2 -4.5 0 -1.3 0.2 -0.3 0.4 2.2 0.4 2.5 0 3.5 -0.2 2.3 -0.4z m1 -3 c-1.3 -0.2 -3.5 -0.2 -5 0 -1.6 0.2 -0.5 0.4 2.2 0.4 2.8 0 4 -0.2 2.8 -0.4z m-12.3 -1.5 c-2.5 -1 -2.5 -1 1.4 -2.2 4.2 -1.2 5.8 -3.8 4.5 -7.3 -1.7 -4.6 -8.7 -4.9 -10.4 -0.5 -0.5 1.2 -0.1 1.2 1.5 -0.3 1.1 -1 2.2 -1.6 2.5 -1.3 0.3 0.3 -0.1 1.1 -1 1.8 -0.8 0.7 -1.5 1.8 -1.5 2.4 0 0.6 0.5 0.3 1.1 -0.6 1.2 -2.1 4.5 -2.4 5.2 -0.4 0.3 0.7 0 1.9 -0.6 2.6 -0.9 1 -0.8 1.2 0.6 0.7 0.9 -0.4 1.7 -0.2 1.7 0.3 0 0.5 -1.8 1.3 -4 1.6 -2.2 0.4 -4 1 -4 1.3 0 1.3 2.4 3.1 4 3 0.8 0 0.4 -0.5 -1 -1.1z m-10.3 -15.5 c-0.3 -1 -0.5 -0.2 -0.5 1.7 0 1.9 0.2 2.7 0.5 1.8 0.2 -1 0.2 -2.6 0 -3.5z m36.2 0.8 c3.3 -4.6 2.6 -6.6 -4.6 -14.4 -3.7 -4 -6.8 -7.4 -7 -7.6 -0.1 -0.2 -2 1.1 -4 3 -2.1 1.9 -4.9 4.1 -6.1 4.9 l-2.4 1.5 6.3 6.9 c6.5 7.1 8.6 8.4 13.1 8.5 1.8 0.1 3.3 -0.8 4.7 -2.8z m-31.7 -10.3 c0.1 -2.9 0.2 -7.2 0.3 -9.4 0 -2.3 0.6 -4.8 1.2 -5.5 0.6 -0.8 1.5 -4.3 2.2 -7.8 0.6 -3.6 1.5 -6.9 2.1 -7.5 0.5 -0.5 2.8 -1.2 5 -1.5 2.9 -0.5 3.7 -0.9 3.1 -1.9 -0.6 -1 -2.2 -1.1 -5.8 -0.6 l-5 0.6 -2.6 11.7 c-3.1 13.8 -5 25.1 -4.2 25.9 0.3 0.3 0.5 -0.6 0.5 -1.9 0.1 -2.1 0.2 -2.2 1.1 -0.6 0.5 0.9 0.7 2.2 0.4 2.7 -0.3 0.6 -0.1 1 0.4 1 0.6 0 1.2 -2.3 1.3 -5.2z m22.2 -15.5 c-1.9 -3.1 -3.4 -6.1 -3.4 -6.7 0 -0.5 -0.7 -1.8 -1.7 -2.8 -1.5 -1.7 -1.8 -1.7 -3.4 -0.2 -1.6 1.5 -1.4 2 4.9 8.5 3.7 3.8 6.8 6.9 6.9 6.9 0.1 0 -1.4 -2.6 -3.3 -5.7z m-4.7 -22.5 c-0.2 -1.8 -0.4 -0.6 -0.4 2.7 0 3.3 0.2 4.8 0.4 3.3 0.2 -1.5 0.2 -4.2 0 -6z"/>
  <path d="M96.1 102.6 c-0.1 -1.4 -0.6 -1.7 -2.3 -1.1 -8 2.4 -19.8 1.4 -28.4 -2.6 -8 -3.8 -18.4 -15.7 -18.4 -21 0 -1.8 1.1 -4 3.1 -6.1 1.8 -1.8 2.6 -2.5 1.9 -1.5 -0.8 1 -0.9 2.1 -0.4 2.5 0.5 0.4 0.8 0.6 0.7 0.3 -0.1 -0.2 0.8 -1.2 2.2 -2.2 1.9 -1.5 2.9 -1.7 5 -0.9 1.5 0.6 3.1 0.7 3.7 0.4 0.7 -0.5 0.8 -0.2 0.3 0.6 -0.5 0.8 -0.3 1.1 0.6 0.8 0.8 -0.3 2 0.1 2.7 0.9 0.8 0.7 1.8 1 2.3 0.7 0.6 -0.3 1.9 0.2 3 1.2 1 0.9 1.9 1.3 1.9 0.8 0 -0.5 0.4 -0.4 0.8 0.2 0.9 1.4 12.2 5.6 12.2 4.6 0 -0.4 0.4 -0.2 0.8 0.3 1 1.4 12 4.7 13.2 4 0.6 -0.3 1 -0.2 1 0.4 0 0.5 1.8 1.2 4 1.6 5.7 1 5.8 2.2 0.3 4.7 -8.3 3.7 -18.9 5.6 -24.2 4.3 -10.1 -2.6 -10.1 -2.6 -10.1 -1.1 0 0.9 -0.6 1.3 -1.5 1.1 -0.8 -0.3 -2.2 -0.7 -3.1 -1 -0.8 -0.3 -1.2 -1 -0.9 -1.6 0.5 -0.8 1 -0.8 1.8 0 1.3 1.3 2.7 1.4 2.7 0.3 0 -0.4 -1.6 -1.4 -3.6 -2.1 -3 -1.1 -3.8 -1.1 -4.6 0 -0.8 1.1 -0.9 1 -0.4 -0.3 0.6 -1.9 -0.9 -3.4 -1.9 -1.8 -0.3 0.5 -1.2 1 -1.8 1 -0.9 0 -0.9 -0.2 0 -0.8 0.7 -0.4 0.9 -1.3 0.4 -2.1 -0.6 -0.9 -1 -0.7 -1.4 1 -0.8 3.1 -0.3 3.7 5.6 6.4 11 5.1 22.5 6.8 33.7 5.2 3.7 -0.6 4.1 -0.5 2.3 0.4 -1.2 0.7 -2.4 1.9 -2.6 2.8 -0.4 1.3 -0.5 1.2 -0.6 -0.3z m-44.1 -25.8 c0 -1.6 -0.3 -1.9 -1.1 -1.1 -0.6 0.6 -0.8 1.6 -0.5 2.2 1.1 1.7 1.6 1.3 1.6 -1.1z"/>
  <path d="M107 99.1 l-3.5 -0.7 4 -1.7 c2.1 -1 7 -2.5 10.8 -3.3 3.8 -0.9 6.5 -1.9 6 -2.3 -0.4 -0.5 -3.4 -1.3 -6.5 -2 -3.2 -0.7 -6.1 -1.7 -6.4 -2.3 -0.5 -0.8 -0.1 -0.9 1.2 -0.4 3.6 1.4 7.3 1.8 10.7 1.2 4 -0.8 9.7 -5.2 9.7 -7.7 0 -0.9 0.5 -1.9 1 -2.1 1.4 -0.4 2 -9.6 1 -14.4 -0.7 -3.1 -2.6 -5.5 -8.7 -11.2 -4.3 -3.9 -8.8 -7.5 -10 -7.8 -1.3 -0.3 -2.3 -0.9 -2.3 -1.3 0 -0.7 -4.9 -3 -7.6 -3.5 -5.6 -1.1 -10.4 -2.8 -10 -3.5 0.3 -0.5 -0.3 -1.6 -1.4 -2.6 -3.1 -2.8 -10.5 -2.4 -17.7 0.9 -8.2 3.7 -9.5 3.2 -9.2 -3.9 0.2 -3 -0.2 -5.9 -0.7 -6.4 -1.7 -1.7 -7.3 1.6 -9.1 5.3 -1.7 3.6 -1.7 3.6 1.5 7.5 1.8 2.2 3.2 4.6 3.2 5.3 0 1.1 -9.5 21.5 -10.5 22.6 -0.7 0.8 -7.3 -4.1 -8.3 -6.3 -1.4 -3.1 1.3 -14.7 5.3 -22.6 6.2 -12.2 15.5 -16 33.1 -13.3 5.3 0.8 7.9 -0.6 7.9 -4.2 0 -2.1 1.2 -3.8 5.3 -7.1 2.9 -2.4 5.8 -4.3 6.5 -4.2 0.9 0 0.9 0.2 0 0.6 -2 0.8 -9.3 10.4 -8.7 11.5 0.3 0.5 1.8 -0.8 3.3 -2.9 1.6 -2.1 3.8 -4.7 5 -5.7 1.1 -1.1 2.1 -2.4 2.1 -3.1 0 -2 9.3 -5.7 15.9 -6.3 4.7 -0.4 6.2 -0.2 5.7 0.7 -0.4 0.6 -1.9 1.1 -3.4 1.2 -1.5 0.1 0.8 0.8 5.1 1.5 4.3 0.8 9.3 2.1 11 2.9 3.1 1.4 3 1.4 -3.2 0.8 -4.2 -0.4 -6.2 -0.2 -5.8 0.4 0.4 0.6 2 1.3 3.7 1.6 1.6 0.4 3 1.1 3 1.6 0 1.3 -7.3 1 -8.2 -0.3 -0.5 -0.7 -0.8 -0.4 -0.8 0.6 0 0.9 0.6 1.9 1.3 2.1 0.7 0.3 0.5 0.6 -0.6 0.6 -1 0.1 -2 -0.6 -2.3 -1.4 -0.4 -0.8 -1 -1.5 -1.5 -1.5 -0.4 0 -0.6 0.7 -0.2 1.6 0.5 1.4 0.2 1.6 -2 1 -2 -0.5 -2.7 -0.3 -2.7 0.8 0 0.8 0.6 1.6 1.3 1.9 0.6 0.2 0 0.8 -1.5 1.2 -1.5 0.4 -2.9 1.2 -3.1 1.8 -0.2 0.7 -0.2 0.2 -0.1 -1 0.6 -3.2 -1.1 -3.7 -2.5 -0.7 -0.8 1.9 -0.8 2.4 0 1.8 0.9 -0.5 1 0 0.6 1.5 -0.7 2.8 1 6.9 3.2 7.6 0.9 0.3 3.3 2.1 5.4 4 2.1 1.9 4.1 3.5 4.6 3.5 1 0 15.9 14.8 19.9 19.8 1.7 2.2 3.2 4.5 3.2 5.1 0 2.2 2.9 1 5.5 -2.1 4.1 -5.2 1.8 -0.3 -4.7 9.9 -3.2 5.1 -5.8 9.7 -5.8 10.3 0 0.5 -3 4.2 -6.7 8.1 -10.3 10.9 -17.9 13.5 -31.3 11z"/>
  <path d="M62.4 58.4 c0.3 -0.9 0.6 -1.8 0.6 -2.1 0 -0.3 0.7 0 1.5 0.7 1.2 1 1.5 1 1.5 -0.4 0 -0.9 0.5 -1.6 1 -1.6 2.3 0 0.8 2.9 -2.1 3.9 -2.7 0.9 -3 0.8 -2.5 -0.5z"/>
  <path d="M172.5 55.3 c-1.1 -0.3 -3.9 -1.9 -6.3 -3.5 -2.4 -1.6 -4.8 -2.6 -5.5 -2.2 -0.6 0.4 -0.9 0.4 -0.5 -0.1 0.4 -0.4 -0.4 -2.1 -1.8 -3.8 l-2.5 -3 3.3 -3.5 c1.8 -1.9 5.3 -4.4 7.8 -5.6 l4.5 -2.1 -3.5 -0.3 c-1.9 -0.2 -4.4 -1.2 -5.5 -2.2 -2.9 -2.8 -8.5 -6.6 -12.8 -9 -4.5 -2.5 -4.4 -3.4 0.1 -2.1 1.7 0.5 4 0.7 5 0.4 1.5 -0.4 2.8 0.8 5.7 5.5 l3.6 6 6.2 0.6 c4.2 0.5 5.7 1 4.6 1.7 -1.2 0.7 -1.2 0.9 0.1 0.9 0.9 0 3.3 1.2 5.5 2.7 l4 2.6 -2.5 -2.9 -2.5 -2.9 2.8 2.4 c1.5 1.4 2.6 2.9 2.5 3.5 -0.1 0.6 0.3 2 0.9 3.1 0.6 1.1 1.4 4.1 1.8 6.7 0.8 5 0.9 4.9 -6.5 6.3 -1.9 0.4 -4.2 0.8 -5 0.9 -0.8 0.2 -2.4 0.1 -3.5 -0.1z"/>
  <path d="M74 51 c0 -0.5 -1.3 -1 -2.9 -1 -1.7 0 -3.3 -0.4 -3.6 -1 -0.9 -1.5 1.4 -5 3.3 -4.9 0.9 0 1.2 0.3 0.5 0.5 -1.5 0.7 2.4 5.4 4.4 5.4 0.8 0 1.1 0.5 0.8 1 -0.3 0.6 -1 1 -1.6 1 -0.5 0 -0.9 -0.4 -0.9 -1z"/>
  <path d="M75.7 48.3 c-1.5 -0.8 -2.5 -1.8 -2.2 -2.4 0.9 -1.4 3.5 -1.1 3.5 0.5 0 0.8 0.8 1.6 1.8 1.8 0.9 0.2 1.3 0.6 0.7 0.9 -0.5 0.3 -2.2 -0.1 -3.8 -0.8z"/>
 </g>
 <g fill="#d1ac6e">
  <path d="M92.9 252.3 c-2.1 -6 -2.1 -5.9 -0.8 -4.5 1.7 1.6 4.8 1.5 8.2 -0.2 2.6 -1.4 2.7 -1.4 2.7 0.7 0 2.8 -0.9 4.1 -3.7 5.6 -3.4 1.8 -5.3 1.3 -6.4 -1.6z"/>
  <path d="M129.3 241.4 c-4.2 -3.6 -6.5 -7.1 -11.9 -17.4 -6.1 -11.8 -9.3 -15.6 -10.9 -13 -0.2 0.4 -3.9 0.1 -8.2 -0.7 -4.3 -0.7 -8.8 -1.2 -10 -1 -1.3 0.2 -1.9 -0.1 -1.7 -0.7 0.3 -0.7 -2.2 -3 -5.5 -5.3 -6.8 -4.9 -9.7 -9.8 -11.4 -19.7 -1.3 -7.9 -0.1 -14.3 4.8 -24.5 1.9 -4 3.5 -8.1 3.5 -9.1 0 -0.9 1.1 -4.2 2.4 -7.1 1.3 -3 2.7 -6.5 3.1 -7.8 0.7 -2.2 0.5 -2.3 -2.4 -1.6 -2.3 0.5 -4.3 0.1 -7 -1.3 -2.2 -1.2 -4.2 -1.8 -4.6 -1.4 -1.4 1.5 0.9 -5.5 3.2 -9.5 2.5 -4.5 4.6 -5.3 8.5 -3.2 1.6 0.8 3.1 0.8 6 -0.2 4.1 -1.3 5.4 -2.9 7.4 -9.4 0.7 -2.2 1.3 -3.3 1.3 -2.4 0.1 0.9 -0.6 3.6 -1.4 6 -0.9 2.4 -1.9 7.7 -2.2 11.9 -0.7 7.2 -0.7 7.4 -1.6 3.7 l-0.9 -3.9 -2 5.4 c-1.1 2.9 -1.9 6.1 -1.9 7.1 0 1 -0.4 3 -1 4.3 -1 2.7 -0.7 2.7 4.4 -0.9 6 -4.1 15.1 -0.4 19.4 7.7 2.4 4.6 4.2 17.1 4.3 28.8 0 14.2 -1.3 20 -5.7 24.9 l-3.5 3.9 2.8 1.1 c3.7 1.4 15.3 0.6 22.2 -1.5 6.1 -2 12.2 -7.5 12.2 -11.1 0 -1.3 0.4 -2.5 0.9 -2.7 0.5 -0.1 1.4 -2.6 1.9 -5.5 l0.9 -5.2 -8.8 -0.7 c-7 -0.5 -9.7 -1.2 -12.6 -3.1 -6.4 -4.2 -7.8 -6.8 -7.7 -14.8 0.1 -7.9 3.3 -27.4 6.8 -41 l2.2 -9 7.4 -0.7 c4 -0.4 7.5 -1 7.7 -1.2 0.2 -0.2 0.7 -4.8 1.2 -10.2 l0.7 -9.9 1.8 4 c1.6 3.5 1.7 5.3 0.9 15.5 -0.8 9.9 -0.7 11.7 0.7 12.7 0.8 0.7 1.9 1.1 2.4 1 0.5 -0.2 1.9 -4.6 3.1 -9.8 1.2 -5.2 3.2 -12.5 4.3 -16.4 1.1 -3.8 2.4 -8.7 2.7 -10.7 0.9 -4.7 3.4 -11.8 3.5 -9.6 0 0.9 1.9 3.7 4.3 6.3 l4.3 4.8 -3.4 9.8 c-1.9 5.4 -3.8 9.7 -4.2 9.4 -0.5 -0.3 -0.6 0.4 -0.3 1.5 0.3 1.1 0 2 -0.6 2 -0.5 0 -0.8 0.7 -0.5 1.5 0.4 0.8 0.1 1.5 -0.5 1.5 -0.6 0 -0.8 0.7 -0.5 1.5 0.4 0.8 0.1 1.5 -0.5 1.5 -0.6 0 -0.8 0.7 -0.5 1.5 0.4 0.8 0.1 1.5 -0.6 1.5 -0.6 0 -0.8 0.5 -0.5 1 0.3 0.6 0.2 1 -0.4 1 -0.6 0 -0.8 0.7 -0.5 1.5 0.4 0.8 0.1 1.5 -0.6 1.5 -0.6 0 -0.8 0.5 -0.5 1 0.3 0.6 0.2 1 -0.4 1 -0.6 0 -0.7 0.7 -0.4 1.7 0.4 1.1 0.3 1.4 -0.5 0.9 -0.8 -0.5 -1 -0.1 -0.5 1 0.4 1 0.2 1.5 -0.4 1.1 -1.5 -0.9 -1 5.8 0.6 7.7 0.7 0.9 1.8 1.6 2.3 1.6 0.5 0 0.2 -0.7 -0.6 -1.6 -0.9 -0.8 -1.6 -1.7 -1.6 -2 0 -0.2 1.6 -4.3 3.6 -9.1 2 -4.9 5.6 -15.1 8 -22.7 2.4 -7.7 4.8 -14.4 5.3 -14.9 0.5 -0.5 1.8 -0.4 3.2 0.4 2.3 1.2 2.3 1.2 0.6 -1.2 -7.6 -10.5 -9.1 -14.1 -6.5 -16.7 1.8 -1.8 9.7 -1.4 14.3 0.7 5.2 2.3 12.5 10.3 12.5 13.5 0 7.5 -13.7 4.1 -18 -4.4 -1.7 -3.3 -1.7 -4 -0.5 -5 0.8 -0.6 2.3 -0.9 3.4 -0.5 2.9 0.9 7.1 4.5 7.1 6.1 0 1.5 -2.9 1.9 -4.6 0.7 -0.5 -0.5 0.1 0.2 1.3 1.4 2.6 2.4 5.3 2.1 5.3 -0.7 0 -4.5 -7.6 -10 -13.9 -10 -5.9 0 -4.5 5.6 3.1 12.6 8.7 8 18.5 9.4 19.9 2.9 0.7 -3 0.7 -3 0.8 -0.3 0 1.5 -0.3 3 -0.9 3.3 -0.5 0.3 -1.3 1.9 -1.7 3.5 -0.5 1.6 -2.7 5.3 -5.1 8.2 -2.4 2.9 -6.7 8.5 -9.5 12.4 -16.1 22 -19 25.5 -20.6 24.9 -0.9 -0.3 -0.2 0.7 1.6 2.2 6.8 6 9.9 28.2 5.3 37.8 -1.2 2.5 -3.5 5.4 -5 6.5 -3.6 2.5 -10.4 5 -13.9 5 -2.1 0 -3.1 0.9 -5.1 4.7 -2.2 4.2 -6.7 8.4 -10.3 9.6 -1.7 0.5 3.5 20.4 6.7 25.5 3.7 6 3.2 9.2 -2.1 12 -3.1 1.7 -3.2 1.6 -9 -3.4z m9 -1.2 c2.2 -1.9 2.2 -4.8 0 -6 -1.1 -0.7 -2.2 -4 -3.4 -9.8 -2.9 -14.1 -2.5 -13.4 -6.2 -13.4 -1.7 0.1 -5.4 0.9 -8.2 1.9 -5.9 2.1 -5.9 2.2 -0.4 13.7 2.7 5.7 4.9 8.9 7.6 10.9 2.1 1.6 4.1 3.5 4.6 4.2 0.8 1.4 3.3 0.8 6 -1.5z m4 -63.9 c-1.8 -0.7 -1.6 -2.1 0.5 -2.7 0.9 -0.3 -1.1 -0.4 -4.5 -0.2 -3.5 0.2 -6.3 0.1 -6.3 -0.4 0 -0.4 -1 -1.1 -2.2 -1.4 -2.1 -0.7 -1.9 -0.9 1.6 -1.9 4.2 -1.3 5.8 -3.9 4.5 -7.4 -1.2 -3.2 -4.2 -4.6 -7.3 -3.1 -2.4 1 -3 2 -2.7 4.1 0 0.4 -0.8 0.7 -1.8 0.7 -1.7 0 -1.9 -0.7 -1.8 -5.7 0.1 -3.2 0.5 -6 0.9 -6.3 0.4 -0.3 0.9 -4.7 1.2 -9.8 0.2 -5.1 0.9 -9.8 1.4 -10.5 0.5 -0.7 1.5 -4.1 2.1 -7.7 1.2 -7.3 2.7 -9 7.9 -9 1.9 0 3.1 -0.4 2.7 -1 -0.3 -0.5 -0.1 -1 0.6 -1 0.7 0 1 -0.3 0.6 -0.6 -0.3 -0.3 -3.2 -0.3 -6.5 0.1 l-5.9 0.7 -2.6 11.6 c-3.4 15.2 -4.8 24 -4.1 26.8 0.3 1.2 0.1 2.5 -0.5 2.8 -1.4 0.9 -1.5 6.6 -0.1 6.6 1.2 0 0.9 2.2 -0.5 3.3 -0.6 0.4 -0.4 1.1 0.5 1.7 0.8 0.5 1.1 1 0.6 1 -1.6 0 2.7 4 4.3 4 1.2 0 1.3 0.2 0.3 0.9 -1 0.6 -1 1 0.2 2 0.8 0.7 2 1 2.6 0.6 0.5 -0.3 1 -0.1 1 0.6 0 0.7 1 0.9 3 0.6 1.7 -0.4 3 -0.2 3 0.3 0 0.6 1.9 1 4.3 0.9 2.3 0 3.6 -0.3 3 -0.6z m13.6 -19.2 c3.3 -4.6 2.7 -6.6 -4.5 -14.2 -3.6 -3.8 -6.2 -7.4 -5.9 -7.9 0.4 -0.6 1.1 -0.8 1.6 -0.4 0.5 0.3 0.7 0.9 0.5 1.3 -0.3 0.4 0.1 0.8 0.8 0.8 0.8 0 0 -2.1 -2.1 -5.6 -1.8 -3 -3.3 -5.9 -3.3 -6.5 0 -0.5 -0.7 -1.8 -1.7 -2.8 -1.5 -1.7 -1.8 -1.7 -3.4 -0.2 -1.8 1.6 -1.6 1.9 3.2 6.6 l5.1 5 -3.3 2.9 c-1.9 1.6 -5.1 4.1 -7.1 5.6 l-3.8 2.5 2.9 3.7 c3.8 4.6 10.2 10.7 12.1 11.4 3.9 1.4 6.9 0.6 8.9 -2.2z m2.6 -11 c-0.6 -0.4 -3 -2.5 -5.5 -4.7 l-4.5 -3.8 4.5 4.7 c2.4 2.6 4.9 4.7 5.4 4.7 0.6 0 0.6 -0.3 0.1 -0.9z m-16.8 -37.3 c-0.2 -1.8 -0.4 -0.6 -0.4 2.7 0 3.3 0.2 4.8 0.4 3.3 0.2 -1.5 0.2 -4.2 0 -6z"/>
  <path d="M127.7 166.6 c-0.7 -1.8 1.3 -4.6 3.2 -4.6 2.4 0 3.2 2.1 1.7 4.1 -1.3 1.8 -4.4 2.1 -4.9 0.5z"/>
  <path d="M96.1 102.6 c-0.1 -1.5 -0.5 -1.7 -2.8 -1 -1.6 0.5 -6.2 0.9 -10.3 0.9 -9.4 0 -17.8 -2.7 -22.7 -7.1 -4.4 -4 -4 -4.2 2.9 -1 11.1 5.2 22.6 6.9 33.8 5.3 3.7 -0.6 4.1 -0.5 2.3 0.4 -1.2 0.7 -2.4 1.9 -2.6 2.8 -0.4 1.3 -0.5 1.2 -0.6 -0.3z"/>
  <path d="M107 99.1 l-3.5 -0.7 4 -1.7 c2.1 -1 7 -2.5 10.8 -3.3 3.8 -0.9 6.5 -1.9 6 -2.3 -0.4 -0.5 -3.4 -1.3 -6.5 -2 -3.2 -0.7 -6.1 -1.7 -6.4 -2.3 -0.5 -0.8 -0.1 -0.9 1.2 -0.4 3.6 1.4 7.3 1.8 10.7 1.2 4 -0.8 9.7 -5.2 9.7 -7.7 0 -0.9 0.5 -1.9 1 -2.1 1.5 -0.5 2 -9.7 1 -14.4 -0.9 -3.8 -2.8 -6 -14 -15.8 -2.4 -2.2 -3.6 -3.7 -2.6 -3.3 1 0.4 3 0.7 4.4 0.7 2.1 0 2.4 0.2 1.2 1 -1.2 0.7 -0.8 1 1.5 1.1 1.7 0 4.3 0.3 5.8 0.5 3.2 0.5 3.1 0.2 -1 -5.4 -4.3 -5.8 -1.9 -4.5 5.8 3.2 8.2 8.1 13.9 14.9 13.9 16.5 0 2.2 2.9 1 5.5 -2.1 4.1 -5.2 1.8 -0.3 -4.7 9.9 -3.2 5.1 -5.8 9.7 -5.8 10.3 0 0.5 -3 4.2 -6.7 8.1 -10.3 10.9 -17.9 13.5 -31.3 11z"/>
  <path d="M81.5 95.3 c-2.7 -0.7 -6 -1.5 -7.2 -1.8 -1.6 -0.4 -2.3 -0.1 -2.3 0.9 0 1 -0.6 1.3 -1.7 1 -1 -0.3 -2.4 -0.8 -3.1 -1 -0.7 -0.2 -1 -0.9 -0.7 -1.5 0.5 -0.8 1 -0.8 1.8 0 1.3 1.3 2.7 1.4 2.7 0.3 0 -0.4 -1.6 -1.4 -3.6 -2.1 -3 -1.1 -3.8 -1.1 -4.6 0 -0.8 1.1 -0.9 1 -0.4 -0.3 0.6 -1.9 -0.9 -3.4 -1.9 -1.8 -0.8 1.3 -4.5 0.7 -5.6 -1.1 -0.5 -0.8 -0.9 -1 -0.9 -0.5 0 1.7 -3 -1.7 -3 -3.5 0 -1.1 -0.3 -1.8 -0.7 -1.8 -1.9 0.3 -2.3 -0.2 -1.3 -2 0.7 -1.4 0.7 -2 -0.1 -2.3 -0.7 -0.2 -0.7 -1.2 0.2 -3.1 1 -2.2 1.5 -2.5 2.8 -1.5 0.9 0.7 1.3 0.9 0.9 0.4 -0.4 -0.5 0.3 -1.7 1.7 -2.7 1.9 -1.5 2.9 -1.7 5 -0.9 1.5 0.6 3.1 0.7 3.7 0.4 0.7 -0.5 0.8 -0.2 0.3 0.6 -0.5 0.8 -0.3 1.1 0.6 0.8 0.8 -0.3 2 0.1 2.7 0.9 0.8 0.7 1.8 1 2.3 0.7 0.6 -0.3 1.9 0.2 3 1.2 1 0.9 1.9 1.3 1.9 0.8 0 -0.5 0.4 -0.4 0.8 0.2 0.9 1.4 12.2 5.6 12.2 4.6 0 -0.4 0.4 -0.2 0.8 0.3 1 1.4 12 4.7 13.2 4 0.6 -0.3 1 -0.2 1 0.4 0 0.5 1.8 1.2 4 1.6 2.2 0.4 4.2 1.1 4.6 1.6 0.8 1.4 -9 5.4 -17.1 7.1 -5.7 1.1 -7.9 1.1 -12 0.1z m-29.9 -20 c-1.1 -1.1 -1.9 0.6 -1.1 2.4 0.8 1.7 0.8 1.7 1.2 0 0.3 -1 0.2 -2.1 -0.1 -2.4z"/>
  <path d="M43.7 57.8 c-0.9 -2.4 2.6 -15.5 5.8 -21.9 6.2 -12.2 15.5 -16 33.1 -13.3 5.3 0.8 7.9 -0.6 7.9 -4.2 0 -2.1 1.2 -3.8 5.3 -7.1 2.9 -2.4 5.8 -4.3 6.5 -4.2 0.9 0 0.9 0.2 0 0.6 -2.1 0.8 -9.3 10.5 -8.7 11.5 0.4 0.6 1.5 -0.4 2.6 -2.1 2.4 -3.7 4.2 -4.2 2.6 -0.6 -1.9 4.1 1.9 7.6 17.4 16.2 1.2 0.6 2.5 1.8 3 2.7 0.7 1.3 0.2 1.4 -2.9 1.1 -6.5 -0.8 -9.3 -1.6 -9.3 -2.6 0 -0.6 -0.4 -0.7 -1 -0.4 -0.5 0.3 -2.2 0 -3.7 -0.8 -1.5 -0.8 -3.4 -1.2 -4 -1 -0.7 0.3 -1.3 0 -1.3 -0.5 0 -0.5 -1.2 -1.2 -2.7 -1.5 -1.6 -0.4 -5.7 -1.3 -9.3 -2.2 -3.6 -0.9 -8 -1.6 -9.8 -1.6 -2.1 -0.1 -3.6 -0.7 -4 -1.7 -0.4 -1.2 -0.9 -0.7 -1.9 1.9 -0.7 1.9 -1.2 2.5 -1.1 1.4 0.4 -3.6 -0.9 -4.5 -4.5 -3.3 -1.7 0.7 -4.1 2 -5.2 3.1 -1.1 1.1 -1.4 1.7 -0.7 1.3 1 -0.6 1 -0.2 0.1 1.8 -0.7 1.4 -1.6 2.4 -2.1 2.3 -0.6 -0.1 -1.5 0.7 -2.1 1.8 -0.7 1 -2.2 3.7 -3.5 5.8 -1.3 2.2 -2.5 4.9 -2.6 6.1 -0.2 1.1 -0.6 2.8 -1 3.6 -0.3 0.8 -0.9 3.3 -1.4 5.5 -0.6 2.9 -1 3.5 -1.5 2.3z"/>
  <path d="M172.5 55.3 c-1.1 -0.3 -3.9 -1.9 -6.3 -3.5 -2.4 -1.6 -4.8 -2.6 -5.5 -2.2 -0.6 0.4 -0.9 0.4 -0.5 -0.1 0.4 -0.4 -0.4 -2.1 -1.8 -3.8 l-2.5 -3 3.3 -3.5 c4.2 -4.4 11 -7.5 14.6 -6.7 2.6 0.5 12.6 6.5 10.9 6.5 -0.4 0 -0.1 1 0.7 2.3 0.8 1.2 1.7 4.3 2.1 6.9 0.8 5 0.9 4.9 -6.5 6.3 -1.9 0.4 -4.2 0.8 -5 0.9 -0.8 0.2 -2.4 0.1 -3.5 -0.1z"/>
  <path d="M156.9 24.5 c-1.9 -1.3 -5.1 -3.4 -7.2 -4.5 -2.2 -1.2 -3.7 -2.3 -3.5 -2.5 0.7 -0.7 5.8 0.8 5.8 1.7 0 0.6 0.8 0.4 1.7 -0.3 0.9 -0.8 1.4 -0.9 1 -0.3 -0.4 0.7 1 2.3 3.3 3.8 2.2 1.4 4 3.1 4 3.6 0 1.6 -1.5 1.2 -5.1 -1.5z"/>
  <path d="M101 12.3 c0 -0.4 0.9 -1.4 2.1 -2.1 1.1 -0.7 1.8 -1.9 1.6 -2.6 -0.9 -2.2 8.1 -5.9 15.1 -6.2 4.2 -0.2 6.1 0 5.6 0.7 -0.3 0.6 -1.9 0.9 -3.5 0.7 -1.6 -0.3 -2.5 0 -2.2 0.5 0.3 0.5 0 0.7 -0.8 0.5 -0.8 -0.3 -3 0.3 -4.9 1.4 -1.9 1 -4 1.8 -4.7 1.8 -0.7 0 -2.8 1.4 -4.8 3.1 -1.9 1.7 -3.5 2.7 -3.5 2.2z"/>
 </g>
 <g fill="#ffeb9d">
  <path d="M84.8 204.4 c-8.9 -2.7 -14.1 -10.6 -15.5 -23.5 -0.6 -6.4 1.3 -14.1 5.8 -23.1 1.6 -3.1 2.9 -6.6 2.9 -7.7 0 -1 1.1 -4.3 2.4 -7.2 4.3 -9.5 4.3 -9.9 0.1 -9.9 -4.5 0 -9.2 -2.3 -10 -5 -0.9 -2.8 3.9 -11 6.5 -11 1 0 3 0.5 4.4 1.1 1.9 0.9 3.2 0.9 5.6 -0.1 1.7 -0.7 3.3 -1.1 3.5 -0.8 0.3 0.2 -0.8 4.4 -2.5 9.2 -1.6 4.8 -2.7 9.3 -2.4 10 0.3 0.7 0 2.5 -0.6 4 l-1 2.8 3.5 -2.1 c2.3 -1.3 5.3 -2.1 8.2 -2.1 3.9 0 5 0.5 8.3 3.8 6.1 6.1 7.5 12.2 7.5 33.2 0 14.4 -0.3 18 -1.7 20.5 -4.7 8.5 -13.7 11.4 -25 7.9z"/>
  <path d="M147.4 190.8 c0.3 -1.3 0.9 -4.2 1.2 -6.4 l0.6 -4.1 -11 -0.7 c-11.9 -0.8 -16.3 -2.6 -20.7 -8.4 -2.6 -3.6 -2.5 -12.5 0.4 -29.2 3.6 -20.7 6.4 -30.5 8.7 -30.7 13.8 -1.4 13.3 -1.2 13.7 -4.6 0.2 -1.8 0.5 0.1 0.5 4.1 0.1 4.3 0.6 7.2 1.3 7.2 0.7 0 0.8 -3.9 0.5 -12 -0.3 -6.6 -0.1 -12.2 0.4 -12.5 1.5 -1 2.1 4.9 1.4 15.2 -0.6 9.1 -0.9 10.3 -2.5 10.3 -1.1 0 -2.8 0.9 -4 2.1 l-2 2 4.1 4.5 c3.2 3.5 3.9 4.8 3.1 6.2 -1.2 2.2 -6 6.7 -8.8 8.1 -1.3 0.6 -2.3 1.5 -2.3 2 0 1.5 13.2 15.2 16.2 16.7 6.1 3.2 14 -2.9 12.2 -9.5 -0.4 -1.4 -0.8 -3.4 -0.9 -4.3 -0.1 -1 -1 -2.6 -1.9 -3.7 -1 -1.1 -1.5 -2.5 -1.1 -3 0.3 -0.6 0.2 -1.1 -0.3 -1.1 -2.4 0 -1.9 -3.7 1.5 -11.8 1.9 -4.8 5.5 -15 7.9 -22.6 2.4 -7.7 4.8 -14.4 5.3 -14.9 0.5 -0.5 2.1 -0.2 4 0.7 3.6 1.9 4.1 0.8 0.9 -2 -3.3 -2.9 -7.8 -10.5 -7.8 -13.1 0 -3.5 4.1 -4.7 10.4 -3.2 6.2 1.5 16 10.3 15.4 13.9 -0.5 3.8 -3 4.6 -8.2 2.6 -6.7 -2.6 -11.8 -10.7 -7 -11.4 2.4 -0.3 7.4 3.3 7.4 5.4 0 2.1 -2.1 1.7 -2.7 -0.5 -0.6 -2.2 -2.9 -3.5 -3.8 -2.1 -1.5 2.4 5.9 8.6 8.9 7.4 2.3 -0.9 2 -4.6 -0.6 -7.9 -2.6 -3.3 -9.1 -6.4 -13.6 -6.5 -6.7 0 -5 6.2 3.9 14.4 6.1 5.7 11.2 8.1 15.8 7.4 2.5 -0.4 2.8 -0.2 2.2 1.8 -0.3 1.3 -2.5 4.7 -4.9 7.6 -2.4 2.9 -6.7 8.5 -9.5 12.4 -16.1 22 -19 25.5 -20.6 24.9 -0.9 -0.3 -0.2 0.7 1.6 2.2 6.8 6 9.9 28.2 5.3 37.8 -1.2 2.5 -3.5 5.4 -5 6.5 -3.5 2.5 -10.4 5 -13.7 5 -2.1 0 -2.4 -0.4 -1.9 -2.2z m-4.1 -14.5 c-2.7 -0.5 -3 -2 -0.5 -2.6 0.9 -0.3 -0.9 -0.5 -4 -0.6 -3.1 0 -6.9 -0.6 -8.5 -1.2 l-2.8 -1.1 3.9 -1.2 c4.2 -1.2 5.8 -3.8 4.5 -7.3 -1.7 -4.7 -9 -4.9 -10.4 -0.1 -1.2 3.4 -2.5 1.8 -2.5 -2.9 0.1 -6.5 2.5 -25.1 4.4 -34.3 1.8 -8.2 3.2 -10 8.2 -10 3.1 0 5.3 -1.5 4.1 -2.7 -0.3 -0.3 -3.2 -0.2 -6.5 0.2 l-5.9 0.7 -2.7 11.6 c-3.2 14.2 -6.2 36.8 -5.3 40.2 0.4 1.4 2.2 4.2 4 6.3 3.5 4.1 8 5.5 17.2 5.5 2.8 -0.1 4 -0.3 2.8 -0.5z"/>
  <path d="M43.7 57.8 c-1.6 -4.2 5.4 -23.7 10.5 -29.1 2.9 -3 7.7 -6.1 8.4 -5.4 0.3 0.3 -0.3 1 -1.4 1.6 -1.8 0.9 -8.2 9.3 -8.2 10.7 0 0.2 -1.2 2.3 -2.6 4.5 -1.4 2.3 -2.7 5.1 -2.8 6.3 -0.2 1.1 -0.6 2.8 -1 3.6 -0.3 0.8 -0.9 3.3 -1.4 5.5 -0.6 2.9 -1 3.5 -1.5 2.3z"/>
  <path d="M111.1 35.7 c-2.3 -0.5 -4.1 -1.3 -4.1 -1.8 0 -0.6 -0.4 -0.7 -1 -0.4 -0.5 0.3 -2.2 0 -3.7 -0.8 -1.5 -0.8 -3.4 -1.2 -4 -1 -0.7 0.3 -1.3 0 -1.3 -0.5 0 -0.5 -1.2 -1.2 -2.7 -1.5 -1.6 -0.4 -5.7 -1.3 -9.3 -2.2 -3.6 -0.9 -8 -1.6 -9.8 -1.6 -1.9 -0.1 -3.6 -0.7 -3.9 -1.5 -0.3 -0.8 -1.9 -1.5 -3.7 -1.5 l-3.1 -0.2 3.5 -0.6 c1.9 -0.3 6.9 -0.3 11 0.2 9.1 0.9 12.3 -0.1 11.4 -3.6 -0.4 -2 0.3 -3.2 4.3 -6.6 6.1 -5.2 7.4 -5.2 3.1 0 -4.9 6 -5.3 6.7 -4.5 7.5 0.4 0.4 2.1 -0.8 3.7 -2.7 2.8 -3.1 2.9 -3.2 1.9 -0.7 -1.9 4.5 1.6 7.8 17.3 16.5 1.2 0.6 2.5 1.8 3 2.6 0.9 1.7 -1.1 1.8 -8.1 0.4z"/>
  <path d="M101 12.3 c0 -0.4 0.9 -1.4 2.1 -2.1 1.1 -0.7 1.8 -1.9 1.6 -2.6 -0.8 -2 7.9 -5.7 14.3 -6.2 4.1 -0.3 4.8 -0.2 2.5 0.5 -1.6 0.4 -4.8 1.8 -7 2.9 -2.2 1.2 -4.5 2.2 -5.2 2.2 -0.7 0 -2.8 1.4 -4.8 3.1 -1.9 1.7 -3.5 2.7 -3.5 2.2z"/>
 </g>
 <g fill="#fcfbf4">
  <path d="M86.3 204.6 c-8.7 -2.8 -13.9 -8.9 -16.3 -19.4 -2.3 -9.9 0.6 -20.8 9 -33.6 5.9 -9 10.7 -12.6 16.8 -12.6 3.8 0 5 0.6 8.2 3.8 6.1 6.1 7.5 12.2 7.5 33.2 0 14.4 -0.3 18 -1.7 20.5 -4.5 8.3 -13.2 11.3 -23.5 8.1z"/>
 </g>
 <g fill="#fefefd">
  <path d="M86.5 204.5 c-2.8 -0.9 -3.3 -1.3 -1.7 -1.4 2.7 -0.1 2.8 -2 0.2 -4.9 -1.1 -1.2 -2.3 -3.5 -2.6 -5.2 -0.4 -1.6 -1 -2.7 -1.5 -2.4 -0.5 0.3 -1 -0.5 -1.1 -1.8 -0.2 -3.7 -0.3 -4.2 -1.2 -5.7 -0.7 -1 -0.5 -1.2 0.4 -0.6 0.9 0.6 1 0 0.5 -2.6 -0.9 -4 -1.3 -4.9 -2.4 -4.9 -1.1 0 -2.1 3.7 -1.3 4.5 0.3 0.3 0.7 2.4 0.7 4.6 0.1 2.3 0.7 4.4 1.5 4.9 1.1 0.7 1.1 1.2 0.2 2.3 -1 1.2 -0.9 1.6 0.3 2.1 0.9 0.3 1.3 1 1 1.6 -0.3 0.5 0 1 0.7 1 0.9 0 0.9 0.3 -0.2 1 -1.4 0.9 -0.7 1.4 1.3 1.1 0.5 -0.1 0.7 0.4 0.5 1 -0.2 0.7 -1.2 1.3 -2.2 1.5 -1 0.1 -1.5 0 -1.3 -0.3 0.3 -0.3 -0.6 -1.7 -2 -3.2 -1.4 -1.4 -3.1 -4.1 -3.9 -5.9 -2.1 -4.8 -2.8 -14.9 -1.4 -20.2 0.6 -2.5 1.2 -5.3 1.3 -6.2 0.1 -1 0.5 -1.8 1 -1.8 0.4 0 0.5 -0.4 0.2 -1 -0.3 -0.5 -0.1 -1 0.5 -1 0.6 0 0.8 -0.4 0.5 -1 -0.3 -0.5 -0.2 -1 0.2 -1 0.5 0 1.7 -1.6 2.8 -3.6 1 -1.9 3.1 -4.4 4.6 -5.5 2.6 -1.9 2.7 -1.9 3.2 0.1 0.3 1.1 -0.2 2.7 -1 3.6 -0.8 0.8 -1.3 2.4 -1 3.4 0.3 1.1 0 2.3 -0.6 2.8 -1.7 1 -4.6 7.1 -5.3 10.9 -0.8 4 1 5 5 2.9 l2.7 -1.4 -2.1 -1.5 c-2 -1.4 -2.1 -1.7 -0.6 -4.4 0.8 -1.5 1.5 -2.2 1.6 -1.5 0 0.7 0.4 1.1 1 0.7 0.5 -0.3 0.7 -1.2 0.3 -2 -0.3 -0.9 0 -2.1 0.6 -2.8 0.6 -0.8 1.3 -3.1 1.6 -5.2 0.2 -2.1 0.9 -4.1 1.4 -4.4 0.5 -0.3 1 -2.2 1.1 -4.1 0.3 -5.3 0.1 -6.2 -1.2 -5.4 -0.7 0.4 -0.8 0.3 -0.4 -0.5 0.4 -0.6 1.2 -0.9 1.7 -0.6 0.5 0.4 0.9 0.1 0.9 -0.4 0 -0.6 2 -1.1 4.6 -1.1 4 0 5.1 0.5 8.4 3.8 6.1 6.1 7.5 12.2 7.5 33.2 0 14.4 -0.3 18 -1.7 20.5 -4.5 8.3 -13.3 11.3 -23.3 8z m3.7 -26.1 c-1.2 -0.8 -3.2 -1.4 -4.5 -1.2 -1.9 0.4 -1.7 0.6 1.3 1.5 5 1.6 5.8 1.5 3.2 -0.3z m4.8 -0.4 c0 -0.5 -0.7 -1 -1.5 -1 -0.8 0 -1.5 -0.5 -1.5 -1.2 0 -0.6 -0.3 -0.8 -0.6 -0.5 -0.8 0.8 1.4 3.7 2.7 3.7 0.5 0 0.9 -0.4 0.9 -1z"/>
  <path d="M147.4 191.5 c0.3 -0.8 0.8 -3.7 1.2 -6.4 l0.6 -4.8 -11 -0.7 c-11.9 -0.8 -16.3 -2.6 -20.7 -8.4 -2.6 -3.6 -2.5 -12.5 0.4 -29.2 3.6 -20.7 6.4 -30.5 8.7 -30.7 13.8 -1.4 13.3 -1.2 13.7 -4.6 0.2 -1.8 0.5 0.1 0.5 4.1 0.1 4.3 0.6 7.2 1.3 7.2 0.7 0 0.8 -3.9 0.5 -12 -0.3 -6.6 -0.1 -12.2 0.4 -12.5 1.5 -1 2.1 4.9 1.4 15.2 -0.6 9.1 -0.9 10.3 -2.5 10.3 -1.1 0 -2.8 0.9 -4 2.1 l-2.1 2.1 3.6 3.7 c2 2 3.6 4.6 3.6 5.7 0 2.1 -4.9 7.3 -8.7 9.3 -1.3 0.7 -2.3 1.5 -2.3 2 0 1.5 13.2 15.2 16.2 16.7 4 2.1 9.3 0.4 11.4 -3.8 1.9 -3.7 1.1 -9.6 -1.7 -13.3 -1.1 -1.3 -1.7 -2.9 -1.4 -3.5 0.3 -0.5 0.2 -1 -0.3 -1 -2.4 0 -1.9 -3.7 1.5 -11.8 1.9 -4.8 5.5 -15 7.9 -22.6 2.4 -7.7 4.7 -14.3 5.2 -14.8 0.4 -0.4 3.7 0.5 7.2 1.9 4.6 1.9 8.3 2.8 12.6 2.8 5.8 0 6.1 0.1 5.5 2.2 -0.3 1.2 -2.5 4.6 -4.9 7.5 -2.4 2.9 -6.7 8.5 -9.5 12.4 -16.1 22 -19 25.5 -20.6 24.9 -0.9 -0.3 -0.2 0.7 1.6 2.2 4.4 3.8 7.3 13.8 7.4 25 0.1 13 -3.7 19.1 -14.2 22.8 -5.5 2 -9.3 2 -8.5 0z m0 -15.1 c0.9 -0.3 1.6 -1.2 1.6 -1.8 0 -0.9 -2.5 -1.3 -8 -1.5 -4.4 -0.1 -9.2 -0.6 -10.7 -1.2 l-2.8 -1.1 3.9 -1.2 c4.2 -1.2 5.8 -3.8 4.5 -7.3 -1.7 -4.7 -9 -4.9 -10.4 -0.1 -1.2 3.4 -2.5 1.8 -2.5 -2.9 0.1 -6.1 2.5 -24.6 4.5 -34.3 1.7 -8.2 3.1 -10 8.1 -10 3.1 0 5.3 -1.5 4.1 -2.7 -0.3 -0.3 -3.2 -0.2 -6.5 0.2 l-5.9 0.7 -2.7 11.6 c-3.2 14.2 -6.2 36.8 -5.3 40.2 1.4 4.8 6.9 10 11.7 10.9 5.4 1.1 14.2 1.3 16.4 0.5z"/>
 </g>
 <g fill="#f1f6f8">
  <path d="M93 252.4 c-1.3 -3.3 -1.3 -3.3 0.8 -2.7 1.1 0.2 3.5 -0.2 5.5 -1.1 3.4 -1.4 3.7 -1.4 3.7 0.2 0 2.3 -1.1 3.7 -3.7 5.1 -3.4 1.7 -5.3 1.3 -6.3 -1.5z"/>
  <path d="M133 244.5 c-1 -1.2 -0.9 -1.5 0.7 -1.5 2.5 0 7.3 -3.7 7.3 -5.6 0 -0.8 0.5 -1.4 1 -1.4 1.4 0 1.2 4.2 -0.3 6.1 -1.3 1.7 -5 3.9 -6.5 3.9 -0.5 0 -1.5 -0.7 -2.2 -1.5z"/>
  <path d="M147.4 191.5 c0.3 -0.8 0.8 -3.7 1.2 -6.4 l0.6 -4.8 -11 -0.7 c-11.9 -0.8 -16.3 -2.6 -20.7 -8.4 -2.6 -3.6 -2.5 -12.5 0.4 -29.2 3.6 -20.7 6.4 -30.5 8.7 -30.7 13.8 -1.4 13.3 -1.2 13.7 -4.6 0.2 -1.8 0.5 0.1 0.5 4.1 0.1 4.3 0.6 7.2 1.3 7.2 0.7 0 0.8 -3.9 0.5 -12 -0.3 -6.6 -0.1 -12.2 0.4 -12.5 1.5 -1 2.1 4.9 1.4 15.2 -0.6 9.1 -0.9 10.3 -2.5 10.3 -1.1 0 -2.8 0.9 -4 2.1 l-2.1 2.1 3.3 3.4 c1.8 1.9 3.4 4.4 3.6 5.6 0.4 2.4 -3.6 7.1 -7.9 9.4 -1.6 0.8 -2.8 1.8 -2.8 2.3 0 1.5 13.2 15.2 16.2 16.7 4 2.1 9.3 0.4 11.4 -3.8 1.9 -3.7 1.1 -9.6 -1.7 -13.3 -1.1 -1.3 -1.7 -2.9 -1.4 -3.5 0.3 -0.5 0.2 -1 -0.3 -1 -2.4 0 -1.9 -3.7 1.5 -11.8 1.9 -4.8 5.5 -15 7.9 -22.6 2.4 -7.7 4.7 -14.3 5.2 -14.8 0.4 -0.4 3.7 0.5 7.2 1.9 4.6 1.9 8.3 2.8 12.6 2.8 5.8 0 6.1 0.1 5.5 2.2 -0.3 1.2 -2.5 4.6 -4.9 7.5 -2.4 2.9 -6.7 8.5 -9.5 12.4 -16.1 22 -19 25.5 -20.6 24.9 -0.9 -0.3 -0.2 0.7 1.6 2.2 4.4 3.8 7.3 13.8 7.4 25 0.1 13 -3.7 19.1 -14.2 22.8 -5.5 2 -9.3 2 -8.5 0z m0 -15.1 c0.9 -0.3 1.6 -1.2 1.6 -1.8 0 -0.9 -2.5 -1.3 -8 -1.5 -4.4 -0.1 -9.2 -0.6 -10.7 -1.2 l-2.8 -1.1 3.9 -1.2 c4.2 -1.2 5.8 -3.8 4.5 -7.3 -1.7 -4.7 -9 -4.9 -10.4 -0.1 -1.2 3.4 -2.5 1.8 -2.5 -2.9 0.1 -6.1 2.5 -24.6 4.5 -34.3 1.7 -8.2 3.1 -10 8.1 -10 3.1 0 5.3 -1.5 4.1 -2.7 -0.3 -0.3 -3.2 -0.2 -6.5 0.2 l-5.9 0.7 -2.7 11.6 c-3.2 14.2 -6.2 36.8 -5.3 40.2 1.4 4.8 6.9 10 11.7 10.9 5.4 1.1 14.2 1.3 16.4 0.5z m-15.3 -48.1 l2.4 -2.7 -3.2 2.3 c-3.3 2.3 -4 3.1 -2.5 3.1 0.5 0 1.9 -1.2 3.3 -2.7z m58.4 -25.3 c0.8 -1.3 -1.5 -1.3 -3.5 0 -1.2 0.8 -1.1 1 0.7 1 1.2 0 2.5 -0.4 2.8 -1z"/>
  <path d="M78 149.4 c0 -0.7 1.1 -3.6 2.4 -6.5 4.3 -9.5 4.3 -9.9 0.1 -9.9 -4.5 0 -9.2 -2.3 -10 -5 -0.9 -2.8 3.9 -11 6.5 -11 1 0 3 0.5 4.4 1.1 1.9 0.9 3.2 0.9 5.6 -0.1 1.7 -0.7 3.3 -1.1 3.5 -0.8 0.7 0.7 -7.2 23.2 -10 28.7 -1.3 2.5 -2.4 4.1 -2.5 3.5z"/>
 </g>
 <g fill="#ecece6">
  <path d="M133 244.5 c-1 -1.2 -0.9 -1.5 0.7 -1.5 2.5 0 7.3 -3.7 7.3 -5.6 0 -0.8 0.5 -1.4 1 -1.4 0.6 0 1 1.1 1 2.5 0 1.6 -0.4 2.3 -1.3 1.9 -1.6 -0.6 -4.1 2.1 -3.3 3.5 0.3 0.5 -0.1 1.2 -1 1.5 -2.3 0.9 -3 0.8 -4.4 -0.9z"/>
  <path d="M86.5 204.5 c-2.8 -0.9 -3.3 -1.3 -1.7 -1.4 2.7 -0.1 2.8 -2 0.2 -4.9 -1.1 -1.2 -2.3 -3.5 -2.6 -5.2 -0.4 -1.6 -1 -2.7 -1.5 -2.4 -0.5 0.3 -1 -0.5 -1.1 -1.8 -0.2 -3.7 -0.3 -4.2 -1.2 -5.7 -0.6 -1 -0.5 -1.2 0.2 -0.7 1.3 0.8 1.4 -0.5 0.3 -4.4 -0.6 -2.2 -0.2 -2.7 2.7 -4.1 l3.4 -1.6 -2.2 -1.6 c-2 -1.4 -2.1 -1.7 -0.6 -4.4 0.8 -1.5 1.5 -2.2 1.6 -1.5 0 0.7 0.4 1.1 1 0.7 0.5 -0.3 0.7 -1.2 0.3 -2 -0.3 -0.9 0 -2.1 0.6 -2.8 0.6 -0.8 1.3 -3.1 1.6 -5.2 0.2 -2.1 0.9 -4.1 1.4 -4.4 0.5 -0.3 1 -2.2 1.1 -4.1 0.3 -5.3 0.1 -6.2 -1.2 -5.4 -0.7 0.4 -0.8 0.3 -0.4 -0.5 0.4 -0.6 1.2 -0.9 1.7 -0.6 0.5 0.4 0.9 0.1 0.9 -0.4 0 -0.6 2 -1.1 4.6 -1.1 4 0 5.1 0.5 8.4 3.8 6.1 6.1 7.5 12.2 7.5 33.2 0 14.4 -0.3 18 -1.7 20.5 -4.5 8.3 -13.3 11.3 -23.3 8z m3.7 -26.1 c-1.2 -0.8 -3.2 -1.4 -4.5 -1.2 -1.9 0.4 -1.7 0.6 1.3 1.5 5 1.6 5.8 1.5 3.2 -0.3z m4.8 -0.4 c0 -0.5 -0.7 -1 -1.5 -1 -0.8 0 -1.5 -0.5 -1.5 -1.2 0 -0.6 -0.3 -0.8 -0.6 -0.5 -0.8 0.8 1.4 3.7 2.7 3.7 0.5 0 0.9 -0.4 0.9 -1z"/>
  <path d="M147.4 191.8 c0.3 -1 0.8 -4 1.2 -6.7 l0.6 -4.8 -11 -0.7 c-11.9 -0.8 -16.3 -2.6 -20.7 -8.4 -2.6 -3.6 -2.5 -12.5 0.4 -29.2 3.6 -20.7 6.4 -30.5 8.7 -30.7 13.8 -1.4 13.3 -1.2 13.7 -4.6 0.2 -1.8 0.5 0.1 0.5 4.1 0.1 4.3 0.6 7.2 1.3 7.2 0.7 0 0.8 -3.9 0.5 -12 -0.3 -6.6 -0.1 -12.2 0.4 -12.5 1.5 -1 2.1 4.9 1.4 15.2 -0.6 9.1 -0.9 10.3 -2.5 10.3 -1.1 0 -2.8 0.9 -4 2.1 l-2.1 2.1 3.8 4.1 c2.2 2.3 2.8 3.3 1.5 2.2 l-2.4 -2 0.7 2.3 c0.6 1.8 0 3 -3 5.7 -2.1 1.9 -3.4 3.5 -2.9 3.5 0.5 0 0.4 0.5 -0.3 1.2 -1.5 1.5 -6.5 -2.8 -5.4 -4.8 1 -1.7 8.9 -7.4 10.4 -7.4 0.8 0 0.7 -0.6 -0.4 -1.6 -1.5 -1.5 -1.9 -1.5 -5.2 0.5 -2 1.3 -4.3 3.2 -5.2 4.4 -1.5 2 -1.5 2.1 -1 0.2 0.2 -1.1 1 -4.7 1.5 -8 1.2 -6.7 2.9 -8.5 7.7 -8.5 3.1 0 5.3 -1.5 4.1 -2.7 -0.3 -0.3 -3.2 -0.2 -6.5 0.2 l-5.9 0.7 -2.6 11.6 c-3 12.8 -5.7 30.4 -5.7 36.8 0 3.2 0.8 5.1 3.6 8.6 3.9 5.1 4.9 5.5 14.5 6.4 7.5 0.7 11.9 0 11.9 -1.9 0 -1 -2.2 -1.4 -8 -1.6 -4.4 -0.1 -9.2 -0.6 -10.7 -1.2 l-2.8 -1.1 3.9 -1.2 c4.2 -1.2 5.8 -3.8 4.5 -7.3 -1.7 -4.7 -9 -4.9 -10.4 -0.1 -1 3.1 -2.5 2 -2.5 -1.9 0 -2 0.5 -8.8 1.1 -15 1.1 -10.7 1.3 -11.1 2.6 -8.5 3.3 6.4 5.7 6.5 12.7 0.4 4.1 -3.6 4.1 -3.6 1.1 -0.3 -1.6 1.8 -4.2 3.9 -5.7 4.7 -1.6 0.8 -2.8 1.8 -2.8 2.3 0 1.5 13.2 15.2 16.2 16.7 4 2.1 9.3 0.4 11.4 -3.8 1.9 -3.7 1.1 -9.6 -1.7 -13.3 -1.1 -1.3 -1.7 -2.9 -1.4 -3.5 0.3 -0.5 0.2 -1 -0.3 -1 -2.4 0 -1.9 -3.7 1.5 -11.8 1.9 -4.8 5.5 -15 7.9 -22.6 2.4 -7.7 4.7 -14.3 5.2 -14.8 0.4 -0.4 3.7 0.5 7.2 1.9 4.6 1.9 8.3 2.8 12.6 2.8 5.8 0 6.1 0.1 5.5 2.2 -0.3 1.2 -2.4 4.3 -4.6 6.9 -2.1 2.6 -5.5 7 -7.4 9.8 -5.4 8.1 -15.4 20.1 -16.3 19.9 -0.4 -0.2 -1.1 -0.4 -1.5 -0.5 -0.5 -0.2 -0.9 0.2 -1 0.7 -0.1 0.6 0.5 0.9 1.3 0.7 2 -0.4 1.8 0.5 -1.3 4.4 -1.7 2.3 -3.1 3.3 -4.2 2.9 -0.9 -0.3 0 0.8 1.9 2.5 3.4 3 3.4 3 0.5 1.4 l-3 -1.6 3.3 3.1 c3.8 3.7 4 4.5 0.8 3.7 -2 -0.5 -2.3 -0.2 -2 1.7 0.2 1.2 0.5 6.3 0.8 11.2 0.3 5 0.7 9.9 1 11 0.2 1.1 0.5 2.7 0.6 3.5 0.4 3.4 2.9 -7 2.9 -12.4 0.1 -9.1 2.2 -5.6 2.2 3.8 0.1 8.9 -2.4 15.2 -7.2 18.7 -2.8 2 -4.1 1.5 -1.8 -0.8 1.4 -1.4 -1.3 -1.2 -7.3 0.7 -2.6 0.8 -5.1 2.3 -5.8 3.4 -0.7 1.4 -0.9 1.5 -0.6 0.4z m35.2 -79.2 c1.8 -1.4 1.8 -1.4 0 -1.3 -2.7 0.3 -3 -1.6 -0.7 -4.4 1.3 -1.6 2.9 -2.4 5.2 -2.4 1.8 0 3.4 -0.6 3.7 -1.2 0.7 -2.3 -4.5 -1.4 -7.8 1.4 -6 5 -6.4 12.2 -0.4 7.9z"/>
  <path d="M78 149.4 c0 -0.7 1.1 -3.6 2.4 -6.5 4.3 -9.5 4.3 -9.9 0.1 -9.9 -3.3 0 -9.5 -2.3 -9.5 -3.6 0 -0.2 0.9 0 1.9 0.6 2.7 1.4 2.7 1.4 4.2 -2.1 1.1 -2.8 1 -3.3 -0.5 -4.5 -1 -0.7 -2.4 -1 -3.2 -0.7 -1.8 0.7 -1.8 -0.2 0.2 -3.2 1.8 -2.7 4 -3.1 7.8 -1.4 1.9 0.9 3.2 0.9 5.6 -0.1 1.7 -0.7 3.3 -1.1 3.5 -0.8 0.7 0.7 -7.2 23.2 -10 28.7 -1.3 2.5 -2.4 4.1 -2.5 3.5z"/>
  <path d="M149 129 c-1.7 -3.3 -2 -4.8 -1.2 -6.4 0.6 -1.2 2.2 -6.8 3.6 -12.6 5.8 -24 9.4 -36.8 9.5 -33.9 0.1 0.8 1.6 3.3 3.5 5.6 l3.5 4 -5.1 16.3 c-2.7 9 -6.5 19.7 -8.3 23.8 l-3.3 7.5 -2.2 -4.3z"/>
  <path d="M90.4 18.6 c-0.6 -1.6 0.3 -2.9 4.1 -6.3 6.2 -5.4 7.7 -5.5 3.3 -0.2 -1.8 2.3 -4.1 5.1 -5 6.3 -1.6 2 -1.7 2 -2.4 0.2z"/>
 </g>
 <g fill="#ced3d6">
  <path d="M93.6 254.1 c-1.2 -1.8 0.5 -3.7 4.9 -5.2 4.2 -1.5 4.5 -1.5 4.5 0 0 2.2 -1.1 3.6 -3.7 5 -2.6 1.3 -5 1.4 -5.7 0.2z"/>
  <path d="M133.5 245.1 c-0.7 -1.2 3.1 -2.5 4.6 -1.5 0.8 0.4 0.7 0.9 -0.2 1.5 -1.8 1.1 -3.6 1.1 -4.4 0z"/>
  <path d="M141.5 240 c-0.3 -0.5 -0.1 -1.8 0.4 -2.7 0.9 -1.6 1 -1.4 1.1 1 0 2.8 -0.5 3.4 -1.5 1.7z"/>
  <path d="M160 189.3 c0 -0.5 0.5 -1.4 1.1 -2 1.5 -1.5 -4 -0.9 -7 0.6 -3.9 2.2 -5.1 1.4 -5.1 -3.3 l0 -4.3 -10.9 -0.8 c-11.8 -0.7 -16.2 -2.5 -20.6 -8.3 -2.6 -3.6 -2.5 -12.5 0.4 -29.2 3.6 -20.7 6.4 -30.5 8.7 -30.7 13.8 -1.4 13.3 -1.2 13.7 -4.6 0.2 -1.8 0.5 0 0.5 3.9 0.2 6.3 -0.1 7.4 -2.3 9.8 -1.4 1.5 -2.3 3.2 -2 3.7 0.4 0.5 -0.1 0.9 -0.9 0.9 -0.9 0 -3.3 1.6 -5.4 3.5 l-3.9 3.4 1.4 -7.2 c1.5 -7.9 2.9 -9.7 7.9 -9.7 3.1 0 5.3 -1.5 4.1 -2.7 -0.3 -0.3 -3.2 -0.2 -6.5 0.2 l-5.9 0.7 -2.6 11.6 c-3 12.8 -5.7 30.4 -5.7 36.8 0 3.2 0.8 5.1 3.6 8.6 3.9 5.1 4.9 5.5 14.5 6.4 7.5 0.7 11.9 0 11.9 -1.9 0 -1 -2.2 -1.4 -8 -1.6 -4.4 -0.1 -9.2 -0.6 -10.7 -1.2 l-2.8 -1.1 3.9 -1.2 c4.2 -1.2 5.8 -3.8 4.5 -7.3 -1.7 -4.7 -9 -4.9 -10.4 -0.1 -0.4 1 -1.1 1.8 -1.7 1.8 -0.8 0 -0.9 -3 -0.4 -9.7 0.8 -11.7 1.6 -17.3 2.5 -17.3 0.4 0 2.5 2.4 4.6 5.3 5.7 7.4 14.5 16.7 17.7 18.3 5.9 3 12.8 -1.5 12.8 -8.4 0 -1.9 -1.1 -5.4 -2.5 -7.7 -1.3 -2.3 -2.1 -4.5 -1.8 -4.9 0.3 -0.3 0.2 -0.6 -0.4 -0.6 -2.5 0 -2.1 -3.6 1.4 -11.8 1.9 -4.8 5.5 -15 7.9 -22.6 2.4 -7.7 4.7 -14.3 5.2 -14.8 0.5 -0.5 3.5 0.4 6.8 1.9 4.6 2.2 7.4 2.8 12.5 2.8 6.3 0 6.6 0.1 6 2.2 -0.3 1.2 -2.4 4.3 -4.6 6.9 -2.1 2.6 -5.5 7 -7.4 9.8 -5.4 8.1 -15.4 20.1 -16.3 19.9 -0.4 -0.2 -1.2 -0.4 -1.7 -0.5 -0.5 -0.2 -0.9 0.2 -0.9 0.7 -0.1 0.6 0.6 0.9 1.4 0.7 2 -0.4 1.8 0.5 -1.3 4.4 -1.7 2.3 -3.1 3.3 -4.2 2.9 -0.9 -0.3 0 0.8 1.9 2.5 3.4 3 3.4 3 0.5 1.4 l-3 -1.6 3.3 3.1 c3.8 3.7 4 4.5 0.8 3.7 -2 -0.5 -2.3 -0.2 -2 1.7 0.2 1.2 0.5 6.3 0.8 11.2 0.3 5 0.7 9.9 1 11 0.2 1.1 0.5 2.7 0.6 3.5 0.4 3.2 2.8 -6.8 2.9 -11.7 0.1 -6.6 2.1 -7 2.2 -0.5 0.2 8.7 -0.2 11.7 -2.3 15.9 -1.8 3.9 -7.8 9.7 -7.8 7.6z m-22.6 -70.2 c0.3 -0.4 0.3 -1.1 0 -1.4 -0.8 -0.8 -3.4 0.3 -3.4 1.4 0 1.1 2.7 1.2 3.4 0z m45.2 -6.5 c1.8 -1.4 1.8 -1.4 0 -1.3 -2.7 0.3 -3 -1.6 -0.7 -4.4 1.3 -1.6 2.9 -2.4 5.2 -2.4 1.8 0 3.4 -0.6 3.7 -1.2 0.7 -2.3 -4.5 -1.4 -7.8 1.4 -6 5 -6.4 12.2 -0.4 7.9z"/>
  <path d="M78 149.4 c0 -0.7 1.1 -3.6 2.4 -6.5 4.1 -9.3 4.2 -9.9 0.7 -9.9 -5 0 -6.1 -0.8 -4.9 -3.5 1.1 -2.5 4 -4.3 7.7 -4.7 1.8 -0.2 2.7 -1.1 3.3 -3.5 0.8 -3.1 2.4 -5 3.4 -4.1 0.6 0.7 -7.3 23.4 -10.1 28.7 -1.3 2.5 -2.4 4.1 -2.5 3.5z"/>
  <path d="M130.1 139.4 c-3.6 -3 -3.3 -4 2.6 -8.3 5 -3.6 5.9 -3.8 6.8 -1.1 0.5 1.6 -0.2 2.9 -2.8 5.3 -1.9 1.8 -3.3 4 -3.2 5 0.4 2.2 0.2 2.2 -3.4 -0.9z"/>
  <path d="M149 129 c-1.7 -3.3 -2 -4.8 -1.2 -6.4 0.6 -1.2 2 -6.4 3.2 -11.6 1.2 -5.2 2.9 -11.1 3.7 -13 0.8 -1.9 1.7 -4.5 1.8 -5.7 1.1 -8.3 4.3 -20.1 4.5 -16.2 0 0.8 1.5 3.3 3.4 5.6 l3.5 4 -5.1 16.3 c-2.7 9 -6.5 19.7 -8.3 23.8 l-3.3 7.5 -2.2 -4.3z"/>
  <path d="M141.8 118.3 c0.9 -0.3 1.2 -4 1.3 -13.1 0 -9.5 0.3 -12.1 1 -10.2 0.6 1.5 0.8 6.7 0.3 13.3 -0.5 9 -0.9 10.7 -2.3 10.6 -1 0 -1.1 -0.2 -0.3 -0.6z"/>
 </g>
 <g fill="#c1c8cb">
  <path d="M163.2 186.9 c2.8 -7.4 4.8 -16 4.8 -20.5 0 -3 0.3 -5.4 0.8 -5.4 0.4 0 0.6 3.4 0.5 7.6 -0.2 8.3 -2.5 16.5 -5 18.6 -1.4 1.1 -1.6 1.1 -1.1 -0.3z"/>
  <path d="M149 181.6 c0 -1 -2.7 -1.5 -10.9 -2.1 -11.8 -0.7 -16.2 -2.5 -20.6 -8.3 -2.6 -3.6 -2.5 -12.5 0.4 -29.2 3.6 -20.7 6.4 -30.5 8.7 -30.7 13.8 -1.4 13.3 -1.2 13.6 -4.6 0.2 -1.8 0.6 0.2 0.8 4.4 l0.5 7.7 -2.3 -0.9 c-1.4 -0.6 -3.1 -0.5 -4.3 0.1 -2.7 1.5 -2.4 3.3 0.6 2.8 2 -0.4 2.3 -0.2 1.5 1.2 -0.5 1 -0.6 2 -0.3 2.4 0.3 0.3 -0.2 0.6 -1.2 0.6 -1.1 0 -3.6 1.6 -5.6 3.6 l-3.6 3.5 1.4 -7.3 c1.5 -8 2.9 -9.8 7.9 -9.8 3.1 0 5.3 -1.5 4.1 -2.7 -0.3 -0.3 -3.2 -0.2 -6.5 0.2 l-5.9 0.7 -2.6 11.6 c-3 12.8 -5.7 30.4 -5.7 36.8 0 3.2 0.8 5.1 3.6 8.6 3.9 5.1 4.9 5.5 14.5 6.4 7.5 0.7 11.9 0 11.9 -1.9 0 -1 -2.2 -1.4 -8 -1.6 -4.4 -0.1 -9.2 -0.6 -10.7 -1.2 l-2.8 -1.1 3.9 -1.2 c4.2 -1.2 5.8 -3.8 4.5 -7.3 -1.7 -4.7 -9 -4.9 -10.4 -0.1 -0.4 1 -1.1 1.8 -1.7 1.8 -0.8 0 -0.9 -3 -0.4 -9.7 0.8 -11.6 1.6 -17.3 2.5 -17.3 0.3 0.1 2.4 2.4 4.6 5.3 6.1 7.9 14.7 16.7 17.8 18.4 1.5 0.8 3.6 1.1 4.6 0.8 1.7 -0.5 1.7 -0.1 0.9 4.7 -0.4 2.9 -1.1 7.1 -1.3 9.3 -0.3 2.2 -0.8 4.8 -1.1 5.8 -0.6 2 -2.4 2.3 -2.4 0.3z"/>
  <path d="M162.8 149.5 c-2.3 -1.3 -4.6 -5.1 -3.9 -6.4 0.2 -0.2 -0.4 -0.8 -1.3 -1.3 -0.9 -0.5 -1.4 -1.3 -1.1 -1.9 0.4 -0.5 0.2 -0.9 -0.3 -0.9 -2.4 0 -1.9 -3.7 1.5 -11.8 1.9 -4.8 5.5 -15 7.9 -22.6 2.4 -7.7 4.7 -14.3 5.2 -14.8 0.5 -0.5 3.5 0.4 6.8 1.9 4.6 2.2 7.4 2.8 12.5 2.8 6 0 6.5 0.2 6.1 2 -0.2 1.2 -1.9 3.9 -3.9 6 -1.9 2.2 -3 3.2 -2.3 2.2 0.8 -1.1 1 -2.1 0.4 -2.7 -1.5 -1.5 -8.7 2.6 -10.8 6 -3 5.1 0 8.3 3.8 4.1 1.7 -1.9 1.7 -1.9 -0.3 -1.4 -3 0.8 -2.7 -2.1 0.5 -4.6 5.8 -4.5 6 -0.8 0.4 7.5 -4.7 7.1 -10.2 13.6 -9.4 11.1 0.6 -1.5 0.3 -1.6 -2 -0.7 -4.3 1.6 -7.2 3.9 -8.5 6.7 -1.6 3.4 -0.1 4.9 3 3.2 2 -1.1 2.1 -1.4 0.7 -1.7 -2.5 -0.5 -2.2 -2.8 0.4 -4.6 2.6 -1.8 4.8 -2.1 4.8 -0.6 0 0.6 -2.3 4.2 -5.1 8.1 -3.4 4.6 -5.6 6.8 -6.6 6.5 -0.8 -0.3 -1.1 -0.1 -0.8 0.4 0.3 0.6 0 1 -0.7 1 -0.7 0.1 0.7 1.9 3.2 4 4.6 4.1 4.6 5 -0.2 2.5z"/>
  <path d="M78 149.4 c0 -0.7 1.1 -3.6 2.4 -6.5 4.2 -9.3 4.2 -9.9 0.7 -9.9 -3.6 0 -3.7 -0.4 -1.1 -4.7 1.2 -2 2.8 -3.3 4 -3.3 1.4 0 2.5 -1.2 3.6 -4 0.9 -2.2 2 -4 2.5 -4 1.2 0 1.4 -0.6 -3.2 12.5 -3.8 11.3 -8.8 22.3 -8.9 19.9z"/>
  <path d="M149 129 c-1.7 -3.3 -2 -4.8 -1.2 -6.4 0.6 -1.2 2 -6.4 3.2 -11.6 1.2 -5.2 3 -11.4 4 -13.7 1 -2.4 2.1 -6.6 2.5 -9.5 0.5 -5.3 3.4 -14.7 3.5 -11.7 0 0.8 1.5 3.3 3.4 5.6 l3.5 4 -5.1 16.3 c-2.7 9 -6.5 19.7 -8.3 23.8 l-3.3 7.5 -2.2 -4.3z"/>
 </g>
 <g fill="#cf7cd4">
  <path d="M131.9 179.1 c-5.9 -0.6 -11 -3.4 -14.4 -8 -2.6 -3.5 -2.5 -12.4 0.4 -29.1 3.6 -20.7 6.4 -30.5 8.7 -30.7 13.8 -1.4 13.3 -1.2 13.7 -4.6 0.2 -1.8 0.5 -0.1 0.5 3.7 0.2 6.8 0.2 6.8 -2.3 6.3 -3.5 -0.6 -6.5 2 -7.1 6.3 -0.3 1.9 -1.4 4.4 -2.5 5.5 -2.2 2.2 -2.3 1.7 -0.9 -5.6 1.1 -6.1 2.9 -7.9 7.6 -7.9 3.1 0 5.3 -1.5 4.1 -2.7 -0.3 -0.3 -3.2 -0.2 -6.5 0.2 l-5.9 0.7 -2.6 11.6 c-3 12.8 -5.7 30.4 -5.7 36.8 0 3.2 0.8 5.1 3.6 8.6 4.1 5.3 4.9 5.6 16.7 6.5 5.7 0.4 8.6 1 8.4 1.7 -0.4 1.3 -7.8 1.6 -15.8 0.7z"/>
  <path d="M148.7 128.3 c-1.3 -3.3 -1.3 -4 -0.1 -5.4 0.8 -0.9 1.9 -5.1 2.4 -9.5 1.2 -9.3 2.6 -14 5.1 -17.3 1.3 -1.7 1.9 -4.1 1.9 -8 0 -4.8 2.8 -16.3 3 -12 0 0.9 1.5 3.3 3.4 5.5 2.5 2.9 3.2 4.3 2.5 5.9 -0.4 1.1 -2.4 7.6 -4.4 14.5 -3.8 13.2 -10.3 30 -11.5 30 -0.4 0 -1.5 -1.7 -2.3 -3.7z"/>
  <path d="M143.2 106 c0 -10.2 0.2 -12.8 1 -10.7 0.6 1.8 0.7 6.4 0 13.5 l-0.9 10.7 -0.1 -13.5z"/>
  <path d="M76.4 94 c-9.4 -2.4 -15.9 -5.6 -20.5 -10 -4.6 -4.4 -5.1 -8.4 -1.6 -12.5 l2.2 -2.6 16 6.4 c14.2 5.7 32.9 11.7 36.2 11.7 0.6 0 1.5 0.5 1.8 1 0.8 1.3 -8.3 5.4 -15.3 6.9 -7.1 1.5 -10.4 1.3 -18.8 -0.9z"/>
  <path d="M172.5 55.3 c-2.9 -0.8 -13.1 -7.9 -15 -10.5 -1.5 -2.2 -1.4 -2.5 2.8 -6.5 2.4 -2.3 6.2 -4.7 8.5 -5.3 3.6 -1.1 4.5 -1 8.7 1 5.6 2.7 9.1 7.7 10 14.2 0.8 5 0.9 4.9 -6.5 6.3 -1.9 0.4 -4.2 0.8 -5 0.9 -0.8 0.2 -2.4 0.1 -3.5 -0.1z"/>
  <path d="M90.2 17.4 c0.3 -1.8 9.5 -10 10.3 -9.3 0.6 0.7 -8.4 10.9 -9.7 10.9 -0.5 0 -0.8 -0.7 -0.6 -1.6z"/>
 </g>
 <g fill="#9a459d">
  <path d="M157.1 139.9 c-1.7 -1.6 -3.1 -3.1 -3.1 -3.4 0 -0.3 1.6 -4.4 3.6 -9.2 2 -4.9 5.6 -15.1 8 -22.7 2.4 -7.7 4.8 -14.4 5.2 -14.8 0.6 -0.6 3.6 0.5 7.1 2.3 4.4 2.3 8 3.4 12.2 3.7 6.6 0.5 7.1 1.3 3.3 5.7 -1.5 1.7 -2.3 2.4 -1.9 1.7 1 -1.8 -2.1 -2.6 -5.4 -1.2 -3.1 1.2 -7.5 5.5 -8.4 8.2 -0.3 0.9 0 2.4 0.8 3.5 1.3 1.7 1.5 1.7 4.5 -0.5 2.9 -2.2 2.8 -1.9 -1.6 4.1 -3.3 4.7 -5.1 6.3 -6.4 6 -4 -1.1 -12 5.3 -12 9.5 0 2.1 0.4 2.4 2.5 2 3.1 -0.6 3.1 -0.5 -0.1 3.7 -3.5 4.6 -4.8 4.8 -8.3 1.4z"/>
  <path d="M81.2 94.8 c-10.7 -1.5 -22.4 -7.2 -27.4 -13.2 -2.4 -2.9 -2.2 -7 0.5 -10.2 l2.3 -2.7 10.5 4.6 c11.7 5.1 28.5 10.8 37.2 12.8 3.2 0.7 6 1.6 6.3 2.1 1.1 1.7 -17.2 8.2 -21.9 7.7 -0.7 -0.1 -4.1 -0.6 -7.5 -1.1z m-5.2 -7.6 c-6.9 -3.6 -12.9 -7.7 -14.6 -10 -1.3 -1.6 -1.3 -1.6 -1.4 0.1 -0.1 4.6 6.3 9.6 14.7 11.6 6.6 1.6 6.9 1.2 1.3 -1.7z"/>
  <path d="M183 45.9 c-7.7 -8.4 -13.9 -9.2 -20.9 -2.8 -3.3 2.9 -3.5 3 -4.8 1.3 -1.1 -1.6 -0.9 -2.2 1.9 -5.2 4.4 -4.6 7.9 -6.2 13.1 -6.2 7.2 0 13.7 6.1 15.1 14.3 0.4 2 0.6 3.7 0.4 3.6 -0.2 0 -2.3 -2.2 -4.8 -5z"/>
 </g>
 <g fill="#8c4e91">
  <path d="M131.9 179.1 c-5.9 -0.6 -11 -3.4 -14.4 -8 -2.6 -3.5 -2.5 -12.4 0.4 -29.1 3.6 -20.7 6.4 -30.5 8.7 -30.7 13.4 -1.3 13.3 -1.3 13.7 -4.1 0.2 -1.5 0.5 0.2 0.6 3.7 l0.1 6.3 -2.7 -0.5 c-3.4 -0.6 -7.3 3.1 -7.3 7.1 0 1.6 -0.9 3.7 -2 4.7 -2.3 2.1 -2.4 1.7 -1 -5.6 1.1 -6.1 2.9 -7.9 7.6 -7.9 3.1 0 5.3 -1.5 4.1 -2.7 -0.3 -0.3 -3.2 -0.2 -6.5 0.2 l-5.9 0.7 -2.6 11.6 c-3 12.8 -5.7 30.4 -5.7 36.8 0 3.2 0.8 5.1 3.6 8.6 4.1 5.3 4.9 5.6 16.7 6.5 5.7 0.4 8.6 1 8.4 1.7 -0.4 1.3 -7.8 1.6 -15.8 0.7z"/>
  <path d="M157.1 139.9 c-1.7 -1.6 -3.1 -3.1 -3.1 -3.4 0 -0.3 1.6 -4.4 3.6 -9.2 3.8 -9.2 5.5 -13.9 9.9 -28.5 1.4 -4.8 3 -9 3.5 -9.3 0.5 -0.3 3.6 0.9 7 2.7 4.3 2.2 8 3.3 12.1 3.6 6.6 0.5 7.1 1.3 3.3 5.7 -1.5 1.7 -2.3 2.4 -1.9 1.7 1 -1.8 -2.1 -2.6 -5.4 -1.2 -3.1 1.2 -7.5 5.5 -8.4 8.2 -0.3 0.9 0 2.4 0.8 3.5 1.3 1.7 1.5 1.7 4.5 -0.5 2.9 -2.2 2.8 -1.9 -1.6 4.1 -3.3 4.7 -5.1 6.3 -6.4 6 -4 -1.1 -12 5.3 -12 9.5 0 2.1 0.4 2.4 2.5 2 3.1 -0.6 3.1 -0.5 -0.1 3.7 -3.5 4.6 -4.8 4.8 -8.3 1.4z"/>
  <path d="M86 95.1 c-0.8 -0.6 -2.8 -0.8 -4.5 -0.5 -2.7 0.3 -2.8 0.3 -0.5 -0.5 2.3 -0.7 2.2 -0.9 -2.5 -2.5 l-5 -1.6 4.3 0.5 c5.9 0.7 5.3 -1 -1.6 -4.3 -6.5 -3.2 -11.8 -6.8 -14.3 -9.6 -1.6 -2 -1.6 -2 -2.3 0.2 -1 3.1 -2.5 2.7 -3.7 -0.8 -0.6 -1.6 -1.6 -3 -2.2 -3 -0.6 0 -0.2 -0.9 1 -2.1 l2.1 -2.1 10.3 4.5 c11.7 5.1 28.5 10.8 37.2 12.8 3.2 0.7 6 1.6 6.3 2.1 0.7 1.1 -8.8 5.3 -15.4 6.7 -6.4 1.3 -7.3 1.3 -9.2 0.2z"/>
  <path d="M71.5 92.5 c-3.9 -1.8 -3.1 -1.8 2.5 -0.1 2.5 0.8 3.6 1.5 2.5 1.5 -1.1 0 -3.3 -0.6 -5 -1.4z"/>
  <path d="M63.8 89.4 c-3.9 -2.1 -3.5 -2.8 0.5 -0.8 3.7 1.9 4.4 2.4 3.1 2.4 -0.5 -0.1 -2.1 -0.8 -3.6 -1.6z"/>
  <path d="M159.5 39 c2.1 -2.2 4.1 -4 4.4 -4 0.3 0 -1.3 1.8 -3.4 4 -2.1 2.2 -4.1 4 -4.4 4 -0.3 0 1.3 -1.8 3.4 -4z"/>
  <path d="M96.9 12.2 c0.5 -1 1.8 -2.5 2.7 -3.3 1.1 -0.9 0.9 -0.2 -0.6 1.9 -2.6 3.5 -3.6 4.2 -2.1 1.4z"/>
 </g>
 <g fill="#1c549e">
  <path d="M157.1 139.9 c-1.7 -1.6 -3.1 -3.1 -3.1 -3.4 0 -0.3 1.6 -4.4 3.6 -9.2 3.8 -9.2 5.5 -13.9 9.9 -28.5 1.4 -4.8 3 -9 3.5 -9.3 0.5 -0.3 3.6 0.9 7 2.7 4.3 2.2 8 3.3 12.1 3.6 3.2 0.2 5.9 0.7 5.9 1.1 0 0.4 -0.7 1.7 -1.6 2.9 -1.1 1.6 -2.2 2 -3.9 1.6 -2.7 -0.7 -7.1 1.4 -10.1 4.8 -2.9 3.2 -3.5 5.3 -2 7.4 1.3 1.7 1.5 1.7 4.2 -0.1 l2.9 -1.9 -2.9 4 c-1.6 2.1 -3.7 4.8 -4.5 5.9 -0.9 1.1 -2.4 1.9 -3.3 1.7 -4 -0.8 -11.8 5.5 -11.8 9.6 0 2.1 0.4 2.4 2.5 2 3.1 -0.6 3.1 -0.5 -0.1 3.7 -3.5 4.6 -4.8 4.8 -8.3 1.4z"/>
 </g>
 <g fill="#255e9f">
  <path d="M131.9 179.1 c-5.9 -0.6 -11 -3.4 -14.4 -8 -2.5 -3.3 -2.5 -12.2 -0.1 -26.6 2.1 -12 6.6 -31.8 7.5 -32.6 1 -1.1 15.1 -2 15.1 -1 0 0.5 -2.8 1.2 -6.3 1.5 l-6.4 0.7 -2.6 11.7 c-3 12.8 -5.7 30.4 -5.7 36.8 0 3.2 0.8 5.1 3.6 8.6 4.1 5.3 4.9 5.6 16.7 6.5 5.7 0.4 8.6 1 8.4 1.7 -0.4 1.3 -7.8 1.6 -15.8 0.7z"/>
  <path d="M159.9 142.5 c-0.1 -0.3 -0.2 -0.8 -0.3 -1.2 -0.1 -0.5 -0.5 -1.4 -1 -2.1 -0.5 -0.9 0.5 -4 2.7 -8.5 4.2 -8.4 6.7 -17.7 6.6 -23.8 l-0.1 -4.4 -1.3 3 c-0.8 1.7 -1.4 2.6 -1.5 2.1 0 -1.7 5.1 -17.6 6 -18.1 0.5 -0.3 3.6 0.9 7 2.7 4.3 2.2 8 3.3 12.1 3.6 3.2 0.2 5.9 0.7 5.9 1.1 0 0.4 -0.7 1.7 -1.6 2.9 -1.1 1.6 -2.2 2 -3.9 1.6 -2.7 -0.7 -7.1 1.4 -10.1 4.8 -2.9 3.2 -3.5 5.3 -2 7.4 1.3 1.7 1.5 1.7 4.2 -0.1 l2.9 -1.9 -2.9 4 c-1.6 2.1 -3.7 4.8 -4.5 5.9 -0.9 1.1 -2.4 1.9 -3.3 1.7 -4 -0.8 -11.8 5.5 -11.8 9.6 0 2.1 0.4 2.4 2.5 2 3 -0.6 3.1 -0.5 0.3 3.2 -1.2 1.7 -3 3 -4 3 -1.1 0 -1.6 0.5 -1.3 1 0.3 0.6 0.4 1 0.1 1 -0.3 0 -0.7 -0.2 -0.7 -0.5z"/>
  <path d="M155.1 133.5 c0 -0.5 0.6 -2.1 1.4 -3.5 0.8 -1.4 1.4 -2 1.4 -1.5 0 0.6 -0.6 2.1 -1.4 3.5 -0.8 1.4 -1.4 2.1 -1.4 1.5z"/>
  <path d="M148.7 128.3 c-1.3 -3.3 -1.3 -4 -0.1 -5.4 0.8 -0.9 1.9 -5.1 2.4 -9.5 1.2 -9.3 2.6 -14 5.1 -17.3 1.3 -1.7 1.9 -4.1 1.9 -8 0 -4.8 2.8 -16.3 3 -12.1 0 0.9 1.4 3.3 3.2 5.4 l3.1 3.8 -3.7 13.2 c-4.2 14.6 -11.3 33.6 -12.6 33.6 -0.4 0 -1.5 -1.7 -2.3 -3.7z"/>
 </g>
 <g fill="#2e70b7">
  <path d="M160.5 139.8 c-0.3 -0.7 0.2 -3.1 1 -5.3 1.1 -3 1.4 -3.4 1.5 -1.6 0 1.9 0.4 2.3 2.4 1.9 l2.5 -0.5 -2.6 3.4 c-2.7 3.5 -4.1 4.1 -4.8 2.1z"/>
  <path d="M149.1 129.4 c-1.6 -3.7 -0.9 -3.9 1.1 -0.3 0.9 1.6 1.4 2.9 0.9 2.9 -0.4 0 -1.3 -1.2 -2 -2.6z"/>
  <path d="M166 131.2 c0 -0.9 2.5 -3.3 4.8 -4.6 1.9 -1.1 1.4 1.2 -0.8 3.4 -2.1 2.1 -4 2.6 -4 1.2z"/>
  <path d="M127.5 125.5 c1.4 -9.3 1.7 -9.6 9.8 -10.8 1.9 -0.3 2.7 0 2.7 1.1 0 1 -0.7 1.3 -2.1 0.9 -2.9 -0.8 -6.9 3.3 -6.9 7.1 0 1.7 -0.9 3.7 -2.1 4.8 l-2.1 1.9 0.7 -5z"/>
  <path d="M163.9 128.4 c0.5 -1.1 1.7 -2.6 2.5 -3.3 2.9 -2.4 10.3 -29.2 9 -32.6 -0.3 -0.8 -1.1 -1.5 -1.7 -1.5 -0.6 0 -0.8 -0.2 -0.5 -0.5 0.3 -0.3 2.9 0.7 5.8 2.2 3.3 1.7 7.3 2.8 11.1 3.1 3.2 0.2 5.9 0.6 5.9 0.9 0 0.2 -0.7 1.5 -1.6 2.8 -1.2 1.9 -2.2 2.3 -3.9 1.9 -2.7 -0.7 -7.1 1.4 -10.1 4.8 -2.9 3.2 -3.5 5.3 -2 7.4 1.3 1.7 1.5 1.7 4 0.1 2.1 -1.4 1.9 -0.9 -1.6 3.8 -2.7 3.6 -4.8 5.5 -6.2 5.5 -2.4 0 -8.4 3.4 -10.4 5.9 -1.1 1.4 -1.2 1.3 -0.3 -0.5z"/>
  <path d="M181 110.2 c0 -1.4 4 -5.2 5.6 -5.2 1.2 0 1.2 0.4 0.4 2 -1.4 2.7 -6 5.1 -6 3.2z"/>
  <path d="M162.5 99 c0.5 -2.2 0.1 -3.7 -1.3 -5.5 -1.4 -1.7 -2.2 -2.1 -2.5 -1.3 -1.3 3.2 -0.5 -10.1 0.8 -13.7 0.8 -2.2 1.4 -3.3 1.5 -2.5 0 0.9 1.4 3.3 3.1 5.3 l3.2 3.8 -2.3 8.5 c-1.3 4.6 -2.5 8.4 -2.7 8.4 -0.3 0 -0.2 -1.3 0.2 -3z"/>
 </g>
 <g fill="#007492">
  <path d="M131.9 179.1 c-5.9 -0.6 -11 -3.4 -14.4 -8 -1.6 -2.1 -2 -4 -1.9 -9.6 0.1 -7.9 3.3 -27.4 6.8 -41 l2.2 -9 7 -0.7 c3.8 -0.4 7.3 -0.3 7.7 0.1 0.5 0.5 -2 1.2 -5.6 1.5 l-6.4 0.7 -2.6 11.7 c-3 12.8 -5.7 30.4 -5.7 36.8 0 3.2 0.8 5.1 3.6 8.6 4.1 5.3 4.9 5.6 16.7 6.5 5.7 0.4 8.6 1 8.4 1.7 -0.4 1.3 -7.8 1.6 -15.8 0.7z"/>
  <path d="M130 171.8 c-2.5 -1 -2.5 -1 1.4 -2.2 4.2 -1.2 5.8 -3.8 4.5 -7.3 -1.7 -4.7 -9 -4.9 -10.4 -0.1 -0.4 1 -1.1 1.8 -1.7 1.8 -1.1 0 -0.4 -17.3 1 -23.7 l0.7 -3.2 9 10.1 c12.7 14.1 12.4 13.6 12.7 19.8 l0.3 5.5 -7.5 0.2 c-4.1 0.1 -8.6 -0.3 -10 -0.9z"/>
  <path d="M127.7 166.4 c-1.1 -1.1 1.3 -4.4 3.2 -4.4 2.3 0 3.4 2.3 1.8 3.9 -1.2 1.2 -4 1.5 -5 0.5z"/>
  <path d="M82.5 138 c1.5 -5.1 4.7 -13.1 5.1 -12.8 0.4 0.4 -4.5 14 -5.3 14.8 -0.3 0.3 -0.2 -0.6 0.2 -2z"/>
  <path d="M127.5 125.5 c1.4 -9.2 1.7 -9.6 9.6 -10.8 1.7 -0.2 2.6 0.1 2.6 1 0 0.9 -0.7 1.3 -2 0.9 -2.7 -0.7 -6.7 3.6 -6.7 7.2 0 1.7 -0.9 3.7 -2.1 4.8 l-2.1 1.9 0.7 -5z"/>
 </g>
 <g fill="#035d73">
  <path d="M137.3 163.5 c-0.7 -0.8 -1.3 -1.8 -1.3 -2.3 0 -1.2 -4.5 -3.2 -7.1 -3.2 -1.1 0 -1.7 -0.4 -1.4 -1 0.3 -0.5 0.3 -1 -0.2 -1 -2.5 0 -4 -8.3 -2.6 -15 l0.6 -3.3 7.9 8.4 c8.4 8.9 9.5 11.2 8.1 15.5 -1.1 3.3 -2.3 3.8 -4 1.9z"/>
  <path d="M119.6 135.1 c-0.3 -0.4 0.7 -5.9 2.2 -12.2 l2.8 -11.4 5.7 -0.5 c3.1 -0.3 5.7 -0.2 5.7 0.1 0 0.8 -3.7 1.9 -6.6 1.9 -1.8 0 -2.3 1.1 -3.9 8.1 -3.1 14.4 -4.1 16.9 -5.9 14z"/>
  <path d="M127.4 126.2 c0.3 -1.7 0.9 -4.6 1.2 -6.2 0.6 -3.3 3 -5 6.6 -4.9 2.3 0 2.3 0 0.2 0.9 -2.9 1.2 -5.4 4.9 -5.4 8.1 0 1.5 -0.7 3.3 -1.6 4 -1.5 1.2 -1.6 1 -1 -1.9z"/>
 </g>
</svg>